<mxfile host="app.diagrams.net" modified="2023-08-30T07:09:19.674Z" agent="Mozilla/5.0 (Windows NT 10.0; Win64; x64; rv:109.0) Gecko/20100101 Firefox/116.0" etag="NbOJVKhLh31E1cGlaPUx" version="21.7.0" type="github">
  <diagram name="Pagina-1" id="Pf37XiuSWIKAKXUb8cM1">
    <mxGraphModel dx="989" dy="520" grid="1" gridSize="10" guides="1" tooltips="1" connect="1" arrows="1" fold="1" page="1" pageScale="1" pageWidth="827" pageHeight="1169" math="0" shadow="0">
      <root>
        <mxCell id="0" />
        <mxCell id="1" parent="0" />
        <mxCell id="cTB7-Oe_V62q6MQqIVd6-1" value="" style="image;aspect=fixed;perimeter=ellipsePerimeter;html=1;align=center;shadow=0;dashed=0;spacingTop=3;image=img/lib/active_directory/internet_globe.svg;" vertex="1" parent="1">
          <mxGeometry x="40" y="80" width="50" height="50" as="geometry" />
        </mxCell>
        <mxCell id="cTB7-Oe_V62q6MQqIVd6-2" value="" style="image;aspect=fixed;perimeter=ellipsePerimeter;html=1;align=center;shadow=0;dashed=0;spacingTop=3;image=img/lib/active_directory/generic_server.svg;" vertex="1" parent="1">
          <mxGeometry x="410" y="80" width="28.000000000000004" height="50" as="geometry" />
        </mxCell>
        <mxCell id="cTB7-Oe_V62q6MQqIVd6-3" value="" style="shape=image;html=1;verticalAlign=top;verticalLabelPosition=bottom;labelBackgroundColor=#ffffff;imageAspect=0;aspect=fixed;image=https://cdn2.iconfinder.com/data/icons/social-media-2285/512/1_Twitter_colored_svg-128.png" vertex="1" parent="1">
          <mxGeometry x="750" y="80" width="50" height="50" as="geometry" />
        </mxCell>
        <mxCell id="cTB7-Oe_V62q6MQqIVd6-4" value="&lt;div&gt;WhoScored,com&lt;/div&gt;&lt;div&gt;Scoresway.com&lt;br&gt;&lt;/div&gt;" style="text;html=1;align=center;verticalAlign=middle;resizable=0;points=[];autosize=1;strokeColor=none;fillColor=none;fontStyle=1;fontFamily=Verdana;" vertex="1" parent="1">
          <mxGeometry x="5" y="23" width="130" height="40" as="geometry" />
        </mxCell>
        <mxCell id="cTB7-Oe_V62q6MQqIVd6-5" value="&lt;div&gt;&lt;font face=&quot;Verdana&quot;&gt;&lt;b&gt;Raspberry Pi&lt;/b&gt;&lt;/font&gt;&lt;/div&gt;&lt;div&gt;&lt;b&gt;&lt;font face=&quot;Verdana&quot;&gt;of laptop&lt;/font&gt;&lt;/b&gt;&lt;br&gt;&lt;/div&gt;" style="text;html=1;align=center;verticalAlign=middle;resizable=0;points=[];autosize=1;strokeColor=none;fillColor=none;" vertex="1" parent="1">
          <mxGeometry x="369" y="23" width="110" height="40" as="geometry" />
        </mxCell>
        <mxCell id="cTB7-Oe_V62q6MQqIVd6-6" value="&lt;font face=&quot;Verdana&quot;&gt;&lt;b&gt;Twitter&lt;/b&gt;&lt;/font&gt;" style="text;html=1;align=center;verticalAlign=middle;resizable=0;points=[];autosize=1;strokeColor=none;fillColor=none;" vertex="1" parent="1">
          <mxGeometry x="740" y="28" width="70" height="30" as="geometry" />
        </mxCell>
        <mxCell id="cTB7-Oe_V62q6MQqIVd6-7" value="" style="endArrow=classic;html=1;rounded=0;entryX=0;entryY=0.75;entryDx=0;entryDy=0;exitX=1;exitY=0.75;exitDx=0;exitDy=0;" edge="1" parent="1" source="cTB7-Oe_V62q6MQqIVd6-1" target="cTB7-Oe_V62q6MQqIVd6-2">
          <mxGeometry width="50" height="50" relative="1" as="geometry">
            <mxPoint x="140" y="380" as="sourcePoint" />
            <mxPoint x="190" y="330" as="targetPoint" />
          </mxGeometry>
        </mxCell>
        <mxCell id="cTB7-Oe_V62q6MQqIVd6-8" value="" style="endArrow=classic;html=1;rounded=0;entryX=0;entryY=0.75;entryDx=0;entryDy=0;" edge="1" parent="1">
          <mxGeometry width="50" height="50" relative="1" as="geometry">
            <mxPoint x="438" y="116" as="sourcePoint" />
            <mxPoint x="761" y="116" as="targetPoint" />
          </mxGeometry>
        </mxCell>
        <mxCell id="cTB7-Oe_V62q6MQqIVd6-10" value="" style="dashed=0;outlineConnect=0;html=1;align=center;labelPosition=center;verticalLabelPosition=bottom;verticalAlign=top;shape=mxgraph.weblogos.json" vertex="1" parent="1">
          <mxGeometry x="40" y="180" width="50" height="60" as="geometry" />
        </mxCell>
        <mxCell id="cTB7-Oe_V62q6MQqIVd6-11" value="" style="endArrow=none;dashed=1;html=1;rounded=0;entryX=0.5;entryY=1;entryDx=0;entryDy=0;" edge="1" parent="1" source="cTB7-Oe_V62q6MQqIVd6-10" target="cTB7-Oe_V62q6MQqIVd6-1">
          <mxGeometry width="50" height="50" relative="1" as="geometry">
            <mxPoint x="140" y="380" as="sourcePoint" />
            <mxPoint x="190" y="330" as="targetPoint" />
          </mxGeometry>
        </mxCell>
        <mxCell id="cTB7-Oe_V62q6MQqIVd6-12" value="&lt;div&gt;&lt;font face=&quot;Verdana&quot;&gt;Event Data&lt;/font&gt;&lt;/div&gt;&lt;div&gt;&lt;font face=&quot;Verdana&quot;&gt;&lt;br&gt;&lt;/font&gt;&lt;/div&gt;" style="text;html=1;align=center;verticalAlign=middle;resizable=0;points=[];autosize=1;strokeColor=none;fillColor=none;" vertex="1" parent="1">
          <mxGeometry x="20" y="243" width="90" height="40" as="geometry" />
        </mxCell>
        <mxCell id="cTB7-Oe_V62q6MQqIVd6-14" value="" style="verticalLabelPosition=bottom;html=1;verticalAlign=top;align=center;strokeColor=none;fillColor=#00BEF2;shape=mxgraph.azure.script_file;pointerEvents=1;" vertex="1" parent="1">
          <mxGeometry x="362.5" y="180" width="47.5" height="50" as="geometry" />
        </mxCell>
        <mxCell id="cTB7-Oe_V62q6MQqIVd6-31" style="edgeStyle=orthogonalEdgeStyle;rounded=0;orthogonalLoop=1;jettySize=auto;html=1;exitX=1;exitY=0.5;exitDx=0;exitDy=0;exitPerimeter=0;entryX=0;entryY=0.5;entryDx=0;entryDy=0;dashed=1;dashPattern=1 4;" edge="1" parent="1" source="cTB7-Oe_V62q6MQqIVd6-16" target="cTB7-Oe_V62q6MQqIVd6-21">
          <mxGeometry relative="1" as="geometry" />
        </mxCell>
        <mxCell id="cTB7-Oe_V62q6MQqIVd6-16" value="" style="sketch=0;aspect=fixed;pointerEvents=1;shadow=0;dashed=0;html=1;strokeColor=none;labelPosition=center;verticalLabelPosition=bottom;verticalAlign=top;align=center;fillColor=#00188D;shape=mxgraph.azure.script_file" vertex="1" parent="1">
          <mxGeometry x="438" y="180" width="47" height="50" as="geometry" />
        </mxCell>
        <mxCell id="cTB7-Oe_V62q6MQqIVd6-17" value="" style="endArrow=none;dashed=1;html=1;rounded=0;entryX=0;entryY=1;entryDx=0;entryDy=0;" edge="1" parent="1" source="cTB7-Oe_V62q6MQqIVd6-14" target="cTB7-Oe_V62q6MQqIVd6-2">
          <mxGeometry width="50" height="50" relative="1" as="geometry">
            <mxPoint x="320" y="190" as="sourcePoint" />
            <mxPoint x="320" y="140" as="targetPoint" />
          </mxGeometry>
        </mxCell>
        <mxCell id="cTB7-Oe_V62q6MQqIVd6-18" value="" style="endArrow=none;dashed=1;html=1;rounded=0;entryX=0.5;entryY=1;entryDx=0;entryDy=0;exitX=0.5;exitY=0;exitDx=0;exitDy=0;exitPerimeter=0;" edge="1" parent="1" source="cTB7-Oe_V62q6MQqIVd6-16" target="cTB7-Oe_V62q6MQqIVd6-2">
          <mxGeometry width="50" height="50" relative="1" as="geometry">
            <mxPoint x="520" y="217" as="sourcePoint" />
            <mxPoint x="539" y="160" as="targetPoint" />
          </mxGeometry>
        </mxCell>
        <mxCell id="cTB7-Oe_V62q6MQqIVd6-19" value="&lt;div&gt;Scraper&lt;/div&gt;&lt;div&gt;(haalt data van site)&lt;br&gt;&lt;/div&gt;" style="text;html=1;align=center;verticalAlign=middle;resizable=0;points=[];autosize=1;strokeColor=none;fillColor=none;" vertex="1" parent="1">
          <mxGeometry x="260" y="210" width="130" height="40" as="geometry" />
        </mxCell>
        <mxCell id="cTB7-Oe_V62q6MQqIVd6-20" value="&lt;div&gt;Builder&lt;/div&gt;&lt;div&gt;(Schoont data,&amp;nbsp;&lt;/div&gt;&lt;div&gt;maakt dashboard&amp;nbsp;&lt;/div&gt;&lt;div&gt;en tweet het)&lt;br&gt;&lt;/div&gt;" style="text;html=1;align=center;verticalAlign=middle;resizable=0;points=[];autosize=1;strokeColor=none;fillColor=none;" vertex="1" parent="1">
          <mxGeometry x="450" y="210" width="120" height="70" as="geometry" />
        </mxCell>
        <mxCell id="cTB7-Oe_V62q6MQqIVd6-21" value="" style="strokeColor=#dddddd;shadow=1;strokeWidth=1;rounded=1;absoluteArcSize=1;arcSize=2;" vertex="1" parent="1">
          <mxGeometry x="660" y="175" width="200" height="60" as="geometry" />
        </mxCell>
        <mxCell id="cTB7-Oe_V62q6MQqIVd6-22" value="&lt;div&gt;&lt;b&gt;&lt;font face=&quot;Verdana&quot; color=&quot;#000000&quot;&gt;Eerste Divisie Plots&lt;/font&gt;&lt;/b&gt;&lt;br&gt;&lt;/div&gt;&lt;div&gt;&lt;font color=&quot;#000000&quot; face=&quot;Verdana&quot;&gt;Match Dashboard&lt;/font&gt;&lt;/div&gt;" style="editableCssRules=.*;html=1;fontColor=#999999;shape=image;verticalLabelPosition=middle;labelBackgroundColor=#ffffff;verticalAlign=middle;labelPosition=right;align=left;spacingLeft=20;part=1;points=[];imageAspect=0;image=data:image/svg+xml,PHN2ZyB4bWxucz0iaHR0cDovL3d3dy53My5vcmcvMjAwMC9zdmciIHhtbG5zOnY9Imh0dHBzOi8vdmVjdGEuaW8vbmFubyIgd2lkdGg9IjQyNCIgaGVpZ2h0PSI0MjQiIHZpZXdCb3g9IjAgMCA0MjQgNDI0Ij4mI3hhOwk8c3R5bGUgdHlwZT0idGV4dC9jc3MiPiYjeGE7CS5zdDB7ZmlsbDojNDI4NWY0O30mI3hhOwk8L3N0eWxlPiYjeGE7CTxwYXRoIGNsYXNzPSJzdDAiIGQ9Ik00MjQgMHY0MjRIMFYwek0yMTIgOTcuODQ2Yy0zNy44ODQgMC03MC4xNjQgMjMuOTktODIuNDc4IDU3LjYwOGgwbC0zLjQwMy4wMDFjLTQyLjYzNCAwLTc3LjE5NiAzNC41NjItNzcuMTk2IDc3LjE5NnMzNC41NjIgNzcuMTk2IDc3LjE5NiA3Ny4xOTZoMCAxNzEuNzYzYzQyLjYzNCAwIDc3LjE5Ni0zNC41NjIgNzcuMTk2LTc3LjE5NnMtMzQuNTYyLTc3LjE5Ni03Ny4xOTYtNzcuMTk2aDBsLTMuNDAzLS4wMDFDMjgyLjE2NCAxMjEuODM3IDI0OS44ODQgOTcuODQ2IDIxMiA5Ny44NDZ6IiBmaWxsLXJ1bGU9ImV2ZW5vZGQiLz4mI3hhOzwvc3ZnPg==;" vertex="1" parent="cTB7-Oe_V62q6MQqIVd6-21">
          <mxGeometry width="30" height="30" relative="1" as="geometry">
            <mxPoint x="15" y="15" as="offset" />
          </mxGeometry>
        </mxCell>
        <mxCell id="cTB7-Oe_V62q6MQqIVd6-24" value="" style="endArrow=none;dashed=1;html=1;rounded=0;entryX=0.5;entryY=1;entryDx=0;entryDy=0;" edge="1" parent="1" source="cTB7-Oe_V62q6MQqIVd6-21" target="cTB7-Oe_V62q6MQqIVd6-3">
          <mxGeometry width="50" height="50" relative="1" as="geometry">
            <mxPoint x="690" y="175" as="sourcePoint" />
            <mxPoint x="690" y="125" as="targetPoint" />
          </mxGeometry>
        </mxCell>
        <mxCell id="cTB7-Oe_V62q6MQqIVd6-25" value="" style="shape=image;verticalLabelPosition=bottom;labelBackgroundColor=default;verticalAlign=top;aspect=fixed;imageAspect=0;image=data:image/png,iVBORw0KGgoAAAANSUhEUgAAASwAAACoCAMAAABt9SM9AAAAyVBMVEX/////00I2c6VkZGQ5cqJfX19aWlo6cqFXV1dTU1P/0TeHh4f/0CwaZ57/5qPp6emzs7P/+/CdnZ3/67f/11zJycnL1+P29vb/23FnZ2d7mbZrkbW0xthsbGwaZZz/4Ih9fX3c4+uqqqri4uK7u7vQ0ND/2WX/9NqNjY3w8PCXl5fCwsL/1En/+Oj/7sP/zyJbh7D/8tD/3n7/9uH/45b/6Ky7ytqXsMlGe6leibGKpsLR2+eiuM4qaZtNf6q2xtgAWpT/5JxISEiuetEyAAAKHklEQVR4nO2d+0ObOhTHwQIFpKWiFbW2Vlq0D7XqNl9Xtrv9/3/UTcK7JRC69MaGfP1hpaRpzsdzDnk6SRLaX7n2daQ566Z8YV2/vF787Iw6qUadt8Hrr2vWDftqml8OAJzgYFMBYDa4FE6W6OVxVMQpQ2z0+MK6kV9Dp0qnlFSozoHAJUkXIwJUCNfAZd1W1norD8B8NNqsW8tWjzVYAedqdKL/jNJVRxm8kYTjG+sGs1TE6g32pebv1V4WvLJuMTudhrCU6PK9EpbSYdpepvpEvtQ5jS7nFZGoHChBczsQlyGs5PqtyrGU4INhc9nqMgzD5HpQgUpRDgYMm8tWIaxRcq0IWHiFsDq/osvrsnGPoghYiFbU1yxPWQJWyCG4BBen1agELERrVDybtc5KwCJQCErAImYVSsAiZyU8i5xVo2Fl13JyKkbV6DC0TzH65x1Dq8GehdcgQ+pAeFa5Bhte1RaehdOgKAbbkWd1r2J9Pz5i3dLd6fTjEZfSCxJ80hXNuBaEdWamWt3csjZqJ3JfK8Y0ZX2GbM46k7OynlkbtgO91CNViCrMWXlYsilzF4sXpOPAIljtMlgAF2e0BjVZ5R2qnfxbCEu+Y20eVX3UZbX5HMTlLORaV6wNpKjTujGYTmC1c6wwsOQVR8/Ev4nBdgYVLgxl+YS1idT0SuE5CEm18bCsJ9ZGUpJLugWrDFYbwWrjYJlnrK2kpE8qjgUDEu9Z8oqT7sNWfrXODPlVW7mQMLDMY9ZmUlHp2mm5X7XXULXRnqNiWHzEYZ0ozDtVO8sNCe2iOSmCJVus7aSix239KocqpDWCi9dWMaxvrA2lIfJnITa1R2HYbr+D+u6LYXGRtMhTFia1xyEIoxDue3swi2F9Z20pBb2QpqyEzXqST1i1H2GFz8WwZB4yPGl+x8dgQitA222Ko5CPqYePrWBF4+d2mttBdkcHxH5gHIuLx2H53sdKx0rzVTs8TIdzLC5gEfUcCrJ6PmMFo2gL/BnOsWSLgwFP1RbkTWzR0ir4OYD/BkEw+vkZnXLqYh1Ltu7ZGkpDlbA6o+DxokQfn6fJmZ0SVrLFwQRgRX4fvf8iP750VsKKf1idR/Ij0EddC5uveIFV6laXmYJHeN3fPnRvVqWo+IBVkrNG8amdb90z0ypXBSmZj5H0T3wMRqcFHu4ss5pFNSwOnob4g3EX6P79SVnWrgOLg37WBTYIUdfpYUUHlSyvWFtKQbh1sPBUKj1WsszaUgrCzTqM4Fn6e4qsblhbSkG4pfuf8OYNhcQeiYv9DpiZUhSFt5RyO4L1g7WlNFQ8B49miK/oORYXfVLcHE0HjnMosuJiOgvzOFQ6LnadZitxssj6T0HSUhR4MvqJJiweVsKkot1ZSgjrmGIY8tAlhdpYslDowzJ52eB9PdpkRRvWioMph1DvO4fFjWOtuVa0bEMXFg8zDrEugnVWdGFZD6wtpKlgnRVVWBYPe0JSxYGo7AKWxcMQOqvTUZ5VG/4hKDqwVlyMoHO6DoIDJV5spudZpnXCTachq4tRQByGJpms1TMvhwXWZb8qo04A/4hyJwj+lUpgmV0iHXMxK4OVe51IKoHFx3QLXQlYNSRg1RA+wZ/gxM8YsK7qdx04mQ/dRlv0swQsAYtAAlYNEcIyMxuSBKxyWc/d73dxSR42NGwnEljmDZoEPbYErGpY8Ymc6BQKP3+SoK4IYJnJhLHccFjYM0up0pWIcBNJc2EReJaAFYtge1a6keik4WFIsOUoGQxGYJvbz5J+E8RhF5U8ith1GbeYpQj6DtbNw7en31HA8vJHVLbSE8luZTM5jGL9Zt1gpjqus7fbbG7/PdQTwRGmOCAbnN0jHd2QbZY0Lf5WnrfQ00m1d5mrqybn9qxur8wSXqZp3f0QqDK6/XEGj2BmJ/rQAr21urt6EKQ2dXR73P3+fHYTrnqdPV/9Pn7ictuHkJCQkJAQgSZOo//L6DpyVN0QsAiltVq6gEUoVcAil4BVQwJWleaT5CVVWBNv7C2nniSNbVpVMpa7HP/pJ1eUPWshSb1DyW1Nqovuhca6qu0UVm8+7fEC61Bt7RSWZ0+9pYBFoBmAJR32pwIWgUBVLvxx6VXJVDuFxZsaDcv1p57j9fp5z5/3cOWxsFy7oHc0mXoLp+djvhdz64vK7Q0NTVOBNMNJcU3HhpottvxjGGP4wvljADwtzTCMP6h4BMudjnUgY9yXcp9r6VHli7z7zb30exf7kaBcB5iuatBMYLSqxZ5hg7fPswX7Wks9hC8cWBAUBUphue7CQIaDG/phpvqhDt/RAbCWaizTG/OFASjphqFrsDJ9H559E2C5pju+7bp2DzZbi37HNjCyGJbv9YbAvEXP87wYlurpqqqfL5wZJKkltOaAnqr2JnN7OQa1G158owdQGQsf+Np8eQ7hG1/ftyYGMHQaX7nwdzwOX+NhSQU5qwVNR07pjqGjxTdboOAiej0F3xX71hBWlkTlDOKeUTRrNwLOpDrpJWQXGVoTlj5OTIcxOgxfLtQshCn0rbAY/J5M3UPoWjTs2anWYKHfcWhoPVjaNFewZSAvm6wxAU4XVQFvZOLOh5OtX36WYR0WajXKtfVg5fpZ4JMa6g0A9KqXuTHRY4xrsFx9H2FBK0L7/gLWGMBaRpXln3JqXPsaLHS9f7Dgcw4h+QtY8V3opvlMBHPYGL7gAxZMWijNUIAFuyK5KsIUD1/wActRoy4PBViOmnRE0jrConzA8mLLKcCaqeknQiXPD45gwWYLWBvaKazNMPT5CkOHYhhC8PkEv+QrwcOnITKHAqz+RtehF+PjA9YwHthRgGVvdEphFkNfxwUsF/bg0RsQlpYtWh8WJK/lZlthykIDIS5gLRNzIKycPVvAgn3QYeYGHBuGs69cwIJRGAWfkZ9LyMGakcFKPSn92DSufD9hjdNWe1o6cTdW8wYsMr0mLzedgIe1BK7USt739ZYaOdq+wmqpuhe129NbKRA4GRVNtQBN0ex6ci+JJyg8LOkw88vw9WTub49hqaox9pZLR4UXaY6B6Fr6ENzpzXRgdAYWmsYbxiBLYElj8EGtN7Ftfwb8yoifjfsKS104BlyO0sLZ4czNKVryAnc0VdVVJzd4GcOHpaHHCxYGDpaEFo/Q6o6qDxMextoKxd7AciTb0XSARDOGy9xde2bA93Vj6PlwNlNdpPeWQ0PXw6Ww8+FQzcKanQ9bafqfLPSw8ux6ogo+koUFr/cEFtCkP536RavJvj8J357nYYE+2WRCuNg38Zd9/+svdVVpowePF+h4kRblVDVggSeght380AjVgOVr2Y5oE1UDVk9t7cWGhN2pBizQtdKrS/Esclj++sOweSKGZavxYnJzRQqrB8d10+pyXIsElt1fwKFh41lVw+qfG2jTns7NUZrt5Q91vRTWBG1m1BfN7jTEsr3yMBweOtycdRASEvq/9R9YYveVSwMKYAAAAABJRU5ErkJggg==;" vertex="1" parent="1">
          <mxGeometry x="288.57" y="283" width="121.43" height="68" as="geometry" />
        </mxCell>
        <mxCell id="cTB7-Oe_V62q6MQqIVd6-27" value="" style="shape=image;verticalLabelPosition=bottom;labelBackgroundColor=default;verticalAlign=top;aspect=fixed;imageAspect=0;image=data:image/png,iVBORw0KGgoAAAANSUhEUgAABLAAAAOiCAYAAABgmC7RAAAABGdBTUEAALGPC/xhBQAAACBjSFJNAAB6JgAAgIQAAPoAAACA6AAAdTAAAOpgAAA6mAAAF3CculE8AAAABmJLR0QA/wD/AP+gvaeTAACAAElEQVR42uy9eZwdZZn2f911urMSFtn3gIoibiOo4zYaSUjoJIa12bKwJi4jo87ibM5kZl4d9ec47iMgIptiI4MMGAgEmiSdABrcA7KIKLLJDglJuvvU/fsjgfRyuvucOrWf7/fzed8hfeo8dddT97Pcl1fVkQAAAAAAAAAAAAAAAAAAAAAAAAAAAAAAAAAAAAAAAAAAAAAAAAAAAAAAAAAAAADgZYwuAAAAgCLQ3d29s6QJ1WrbpDDs39HbfHwltCnuPjm0ygRJO5k0UaYJLu1sHpqkCSabKEku31FSRWYVd99Rksw0Ua4JWz/XziYzySuSdhwpDneraGtbUdgoU6/ktT8NX/pccvlzZhbK1Sdpw8vfd+uVpND8GUkyt14p3Lgttudk2hK4NnigDS5tNrPnrRq+KNmWSiV8ZpPZFts07sV1625+bunSpSGZBQAAAEUAAQsAAAAS5aabbtpJmriTVN1JCndSxXeSKjvJfSfJdzJp59C0s9x2kvTy/wukyZJ2cmmia6vINJLuMzbe9HV4LM1401/32O6MS3pJHLMNkm+U9JxLzwXSc6H5M4H0nGTPufScqnrOg63/3SZ7zr33ub6+Sc/Onv3uZ83MyXQAAABIEgQsAAAAqIvu7u62arW6qzRuVyncVQp2DU27Babd5b6r5LtKtmso7Wry3STtuu3/RcZH/EekFqLHEUsz3vRXYxavIh0+wjefl/SESU+69JRMT5nrKdfW/yf5Exb6k2Gbnmp3f6q/v/+pjo6OLYwqAAAAqBcELAAAgBZm2bJl4yuTJ+8RhOG+FQ/2CKW9QvleJttT7vu42R7m2kPSbpJ2HrvFBCSWwruummzE8yFcxXt3Jck3bBW6/DGX/clkj8n8UUl/ctkjruqf1F95rFp98dG5c+e+yGgFAABobRCwAAAASsiyZcvGjx8/fj+pbV8P7AB37R0o3Ntle0i2r+R7SNpL0isGSQpDG2pIsYjJ7dR0k7iuYonF4+7RBlsbfNgGSQ+H0p8C2aOh+WMm+5PJ/2iuh/sr/rBv3vx7hC4AAIDygoAFAABQMLq61o/beedndmtr873dqwd7YPso1N4K7GBz38elvSVNlRRElhQyEK4GtYTrqqyuq0iHNBDDZrkecdMDgfxRlz1ipgdc9mgoe6RvnP322GnTnmUWAQAAKB4IWAAAADlj7dq1EzdvDg8OzQ+y0Ke66SCZH6TQpsr0knsqOUkB11XcPdrwV3FdJRWHJPmzkv4o6UG5fueyBwOFvwsr+t04s9/NmDHjOWYhAACA/IGABQAAkDLr1q1rf/bZTft7xfYJzPeW62C38GC5HSzXwRrVPZWgtNHCrispH+JVZsLVkK8UzHXVfByDP9os6RGXHjDpgdD9AZkeUOAPTB437p5p06ZtYBYDAABIHwQsAACABNgmUh0UBP5qBTrEQ71aZq9y+asl7S+p0li1nrCkUEjXVTyx4LpKLcvqPixD8WrMb9hWces+ye93130yu89C3TdpUtt906ZN28zsBwAAkAwIWAAAAE1w4409+wTt/rrgJReV7GBJB0s6TNKEukroFMUrXFdDWsF1lcDdrbO1nApXzcVhz0h6QPK73H39S84t7+29mxfMAwAANAcCFgAAwBhce+26SZMmvfhaD/xQuR1m5q+V7HUyHSTXuMglNK6ruK6k8RZwXaWVZXUflmfXVQxxVCX9XvJ7zfXr0PSbwIP17e26m3duAQAA1AcCFgAAwDaWLVs2fsKEHV/lgb9OHh62TaQ6TK7XaOgjf82W0Liu4uzNxlrBdZXA3a2ztVK6rhqIpfZJnpF0l8nWV93vskqwvk3962fNmvUoszIAAMB2ELAAAKDluPbadZMmTtlymHn1TfLgdQrCwyS9Vq4DEi+hcV3F3aP1t4DrKq0sq/uwkruuGjpJjUOekNmv5eFvZPq1zH/Vt2n8r449dtqzzOIAANCKIGABAECpubGnZ5+gz1+nQIdZVYcr0OGDHVUpltCFcV3FFwuuq+1fxXWVVAxjtJhP11UzMTwq9/Uuu0tmd3pQvXPz88//prOzs8qMDwAAZQYBCwAASkHX+vXjdnv8mVer4oeHrsMD6XUuvUnS7k0oSvGU0N7Ut5uPo4UfGfRYmsF1FTkOXFcpjTb1SrrfTXeaa73L7xpX0R0zZ878E6sDAACUBQQsAAAoHN3d3TuHQfAWcztcrsPddPi2X/8L6qsQcV0lGQuuq+1fxXWVyagro+uqsTj85Y3+Qy79VGZ3Kgx/ala9c/bs2Y+xigAAQBFBwAIAgFyz7Pbbd5y4qf+NCvxwdx0u6XBJr5UUeKQKEddVKnHgusJ1ldioG6PF1nFdDW+5vsYfdelOSXfKdGd74Ot4YTwAABQBBCwAAMgN3d3dO7tXtr6nSvaSWPXKhgtAXFfxCAFRWsF1hesqm1GH68qb6sGHZX6nh7pTZj8dV/E7EbUAACBvIGABAEAmdHV1VXbbbZ/XquKHy/UuSe/WNmdV5CIQ11U8QkDUOHBd4bpKbNSN0SKuqySy6lFtc2qZe49739q5c+e+yOoFAABZgYAFAACpcGNPzz6Vfj9crsPN9C5J75Q0KbbCC9dVPEJAlFZwXeG6ymbU4bryNEea+k12r28TtMLQ18ydO/MuM0vuMgEAAAaAgAUAALGzfPnyyePGTf6zAe+terekgxIpo3FdxdWT0eLAdYXrKrFRN0aLuK5SHvU1B9/zJv9VKOsxtzVS721z5859klUQAACSAAELAACaZvmaNXu09YVvl+tdFujdch0haXziZXTuxauE48hAvMJ1FUlDiD8OXFcpjLgRWm0t19UIDY/Wuj8gtzVm1hOGvuYDH5i1nlUSAADiAAELAAAaZtvjgO8y6d0yvUuut8S9puThkUFcVyO0hOsK11Vio26MFnFdpTzqow8+315sPCpZT+i+pmLWs27dbT9bunRpyEoKAACNgoAFAACj0tXVVdltn31eq6q/Sxa8W6H/haQDMyhdxzgA11VSseC6iqQhxB8HrqsURtwIreK6UhTxagReMOmO0H2Nm/XsNHl8z7Rp0zaz2gIAwFggYAEAwCC6uroqr9hj37cE0jQzf59L75K04+CqJJWSsc4DcF2lEgeuK1xXiY26MVrEdZXyqI8++CLGsNmln8j9lkC6dYcdJtyOoAUAALVAwAIAAK1YvfrgINR0s2C6u0+XtMvIVQmuq9TjwHWVdIbFpSHEHweuqxRG3Ait4rpSCuJVLfrl+oVcK8JAK8YF4eqOjo4trNQAAICABQDQggwRrN4vadf6qpK8iFe4rlKJA9cVrqusRj+uq5RHffTB54mnhb9o0tpQWuNmPb0vPr+qs7Ozl5UcAKD1QMACAGgBurvXvkqVcLq5pkl6Xyjt0VgRgesq9ThwXSWdYXFpCPHHgesqhRE3QquZiVct77pqZBJ8XvJVJusOgvCWjo6OX5hZcpoiAADkBgQsAIASsnz58snjxk16h4JgusnnuvS6hoqNFnBdNXcaXFdJxILrKqlsx3UVx8XiukowhogT4bajnpB0q5lWhP3B9cccM/MhdgEAAOUEAQsAoAR0dXVVdtt77zdbqOkym26uv3BpXMPlAK6rVMs2XFcDWsF1lXa2j3oYrqsU48B11fAZxjjiAblWKNAKVXtvmDdv3gvsEgAAygECFgBAQVm1atXe/W4zzII5qvXi9UaLDVxXqZVtuK4i187xx4HrKqtRN+pHuK5SiKPYrqt62SRpjZmvqKqy4pjZR/2Uxw0BAIoLAhYAQEFYu3btxN7e8H1umi3ZUZK/OpaNPq6rVMs2XFcDWsF1lXa2j3oYrqsU48B11fAZYorhUUk3mtuyanXTjccee+yz7C4AAIoDAhYAQI5ZseL2PYP2vpnbXFazJE2JtdjAdZVa2YbrKnLtHH8cuK6yGnWjfoTrKoU4WsN1VW9DVZN+7q7rwkpwLe4sAID8g4AFAJAjBrzLaq5kcyS9pdG5Og+uqzFbxXUV9x2tvxVcV7iuEh39uK5GbBXXVcNn8FSGh7/0///epOVyW7Fly4TrOzunbWBXAgCQLxCwAAAyZsWKO3Zta+t9fxgEc819jkZ4l1VsG31cV6mVbbiuItfO8ceB6yqrUdfMR/HF0fKuq/pbL7nrqt4PN8l8jUJd19+mHx4/e/bv2a0AAGQPAhYAQAZ0d699rYLwGEkfkPQ2SZXES1hcV6mWbbiuBrSC6yrtbB/1MFxXKcaB66rhM2QsXNU+wvQrl11XcV09d+6sdTxqCACQDQhYAAApcUtPz2FW9RNNdqJLr0u1lMZ1lVrZhusqcu0cfxy4rrIadc18FF8cuK6E66rxs4wVg0lPuOwGmV/Zu2nD8s7Ozl52OAAA6YCABQCQEF1dXZXd99nnHVb1E112vKR9Uy9hcV2lWrbhuhrQCq6rtLN91MNwXaURR2OJh+sqgRjidF3Vx0aTut105biKftjR0fE8ux8AgORAwAIAiJFr162bNGXTpiNDD0409w9I2inFsnGUA3FdJRkLrqvItXMycTiuq8xGP66rlEd99AkA11WMMWxtYIvkq026Tmq/ct68ox5hVwQAEC8IWAAATdLd3b2bVcYd6/LjTPZ+l8bFZD+JtsnGdZVq2YbrakAruK7SzvYxD0stDlxXKY60kRrGdZVJHLUbCCXd5tLVYZv/gJfAAwDEAwIWAEAEbli79hXjqppj7idKmimpPcYKPvoGG9dVamUbrqvItXMyceC6UmajH9dVyqM++gSA6yrGGBpbmO9y6cq2ILx87ty597GLAgCIBgIWAECdjChavbxHxXWVdLmE6ypy3ZpcHLiu0s72MQ/DdZV0HI0lHq6rBGLIp+uq3gPvcunKahBefgJiFgBAQyBgAQCMwpiiVXwVfPQ9Mq6r1Mo2XFeRa+dk4sB1pcxGP66rlEd99AkA11XMMcSw7gz49C4hZgEA1A0CFgDAEFatWrV7VcHxJjvRpfdKqoy8C8V1lXS5hOsqzluO6yqWOHBdpTDiRmgV15Uyc11FnAhxXdXdxE8k+4FC6zr22KMfZDcGADAcBCwAAElr166d2FutTncPFkg6RrWcVvFX8NH3yLiuUivbcF1Frp2TiQPXlTIb/TkXr3BdJRgDrqumD2ooDtOdcl0aqP+KefPmPc4uDQDgpekRAKBF6erqquy+9/7T3MOFtlW0mlLfRhbXVdLlEq6rOG85rqtY4sB1lcKIG6FVXFfCdRXtLHlwXTUVh6sqqdtkl5r1XT1v3rwX2L0BQCuDgAUALcctq1cfHoTBQgU6yV17plzBR9/c4rpKrWzDdRW5dk4mDlxXymz047pKedRHnwBwXcUcQ9quq7G/uEmmm11+yROP7fXDJUuO6GNHBwCtBgIWALQEq1atel3VK51mOk3SqxrXJHBdJV0u4bqK85bjuooljlYWr3BdpTjSRmoY11WUs5TAdVUPz0i6zuSXzJs3+2YzS244AADkCAQsACgtK1bcvmfbuP5TJVsk6U3R9AhcVxmW0KmKV7iuItfOycSRE9dVwllW92G4rpKOofGkw3WVQBy4rqJ86UGZLg1UvWTevHn3s/sDgDKDgAUApWL9+vXjnnj66Zka4WXsuK6arRNwXSUVC66rSBpC/HHgukphxI3QKq4r4bqKdpYWcV3V84U7ZX5p35b2Szs7Zz3NrhAAygYCFgCUglt6eg6zqi0w0xmS9mhOj8B1lWEJjesqneqn2do5mThK6bqqszVcVymNthFazlK8wnUV+Swt7Loa65PNkq4N5Jf29m5a1tnZWWWnCABlAAELAArL2rVrX9FX1Qnu/kFJfxbL/hDXVeLlEq6rOG85rqtY4sB1lcKIG6FVXFfCdRXtLLiu6m7qYUmXhRW/8IS5c+9j9wgARQYBCwAKxbJly8ZPmjLlqJEeEYyuR+C6yrCExnWVTvXTbO2cTBy4rpTZ6Md1lfKojz4B4LqKOYZyuq7q4U5zv9S977LjjjvuKXaVAFA0ELAAoBDc0tPzGqvaGWY6U9Luse4Ps3RdRShk0qkTcF0lFQuuq0gaQvyx4LpKYcSN0CquK+G6inYWXFcxLR+29RFDl84/jl8xBIACgYAFALllq9tq5w/Iw8WSHVnPnIXrqoEWcV2lXj7iumpYQ4g/FlxXKWR69A7HdZVgDAV2XaU3bZXSdTX6F0y/kfSd9opfOHfu3CfZfQJAnkHAAoDcsXLlbYeGCheZ6WxJuyayP8R1lXi5hOtqhFZwXeG6SizbR2kR11WKI22khnFdRTkLrqvUlo8tMv0friwAyDMIWACQC7q7uydY2/i529xW0xPbG+K6SqVkw3VVoyVcV7iushr9uK5SHvXRJwBcVzHHgesqavD3yuzbCnsvOu644/7ELhUA8gICFgBkyqpVt73F5ee4/FRJOya6P8N1lXi5hOtqhFZwXeG6Sizbx2jR0xhxI7SK60q4rqKdBddVlsvHoC9vMemHki445pg5t+DKAoCsQcACgNRZv379uCeefm5eFLdVND0C11WmJTSuq7Srjyi1czKx4LpSZqMf11XKoz76BIDrKuY4cF3FGvyAv95vZt/q7227oLNz1tPsZgEgCxCwACA1enp69umr2mIzfVh1/JJgLPszXFeJl0u4rkZoBdcVrqvEsn2MFnFdZRcDrqvIZ8F1leXy4fX/1bRZrisDBV889tjZP2d3CwBpgoAFAIni7nZrz+1HmoeLJR0rqS2VvSGuq1RKNlxXNVrCdYXrKqvRj+sq5VEffQLAdRVzHLiuYg2+gSbvlOz855+dfMkZZ0zbzK4XAJIGAQsAEuH222/fcUtfeLK7/kry16VaxuK6SrxcwnU1Qiu4rnBdJZbtY7SI6yq7GArouootDlxXsX0h166rsZt4XPLvyCv/c/zxs3/PLhgAkgIBCwBiZeXK2w51hR+U2VmST061hMV1lUrJhuuqRksZuq7iS/2Cuq6GfAXXVZJx1GgV15VwXUU7C66rJprLj3A1lNClZeb25eOOm30zL30HgLhBwAKAGIpnD1b29MyW27lRX8re/GYK11XS5RKuqxFayfKRQVxXaWf7mIfhuko6jm0t47qKdAZcV1lM3aV1XY3FvW76xvg2XTB37twX2S0DQBwgYAFAZLq7u3cI2saf6vKPy/XaTEpYXFeplGy4rmq0hOsK11VWox/XVcqjPvoEgOsq5jhwXcUafErL6BOSf1ve9rXjj+/4I7tnAGgGBCwAaJienp59+twWm+ujkl6RcukYdwUfPQZcV6mVbbiu4k57XFeR48B1leLIH9IyrqtIZ8B1lcXU3bKuq9HolXSNB9X/OuGYY+5gNw0AUUDAAoC6uWX16sMDBX8l6RR59F8TbH4jhesq0xIa11Xa1UfMqY/rKlIsuK5SGm0jtIzrquEz4LqKKYYsxatyCFe1GloTyr/s/Vv+t7Ozs8oOGwDqBQELAMYomLe+38pkn3TZu5KoDnBdNVsn4LpKMpY8iFceSzO4riLHgesqxZE/pGVcV5HOgOsqhjhwXSWSxIP/Zb91+QXev/mbnZ2dz7HrBoCxQMACgJr09PRMqbotdumvJO2fxM4c11UDLeK6Sn3XjeuqYQ0hmThwXSmd0V+jVVxXyky8wnXV9EGt6bqq3UBOXFcjNm3SM5LOr/ZXvtTZOfsxduEAoJHnCwCA7axatWr3qlU+YhrwfitcV2mWjHV+mBfXVbyx4Loa0gKuqzSzfczDcF0lHce2lnFdRToDrqsY4sB1lUgSN7CV6JX0/cCC/zzuuDl3sysHgKEgYAGAJGnlyjsO8iD8mOTnSD4xqZ05rqsGWsR1lfquG9dVwxpCMnHgulI6o79Gq7iuhOsq2llwXWW5hBXPdTXGQaFcy8LAPtN53Nzb2KUDwEsgYAG0ON1r1rzZQvuEpFMkb0uyOsB11WydgOsqlThwXeG6SmzUjdEirqvsYmhl11WTC0Lrua5G/hKuq0S2Emvk9rnjj59znZklNw0BQCFAwAJoUbp7bn+3efhJSXMSrhxxXTXSIq6r1HfduK4a1hCSiQPXldIZ/TVaxXUlXFfRzoLrKsslrHSuq7H4pZv912677PDdadOm9bOTB2hNELAAWoiurq7KHnvv1ynp7yS9OeGqMcJmCtdV0iUbrqu4bzmuq6ZjwXWVwsgfoVVcV8J1Fe0MuK4SaSq9OPLvuhqNB+X+X+PHB9+eO3fui+zuAVoLBCyAFmDdunXtGzf1nuLSP0p6TQqVI66rRlrEdZX6rhvXVcMaQjJx4LpSOqO/Rqu4roTrKtpZcF1luYS1nOtqNJ5w+Te8uuW/Ozs7n2O3D9AaIGABlJj169ePe/Lp50526Z8lvTqFqjHCZgrXVdI7PFxXcd9yXFdNx4LrKoWRP0KrBXFdJRYHrqvIZ8B1lUhT6cVRbNfVaI0+5dLXesdXvnzanDnPsPsHKDcIWAAlZJtwdbrL/1my/VOqHHFdNdJi7sWrhOPIYNeN6yqShhB/HLiu0qvvcF3VaBjXVZSz4LpKpKnIDbSw66pmo9v+9YLk3/Bq7+c7OzufphoAKCcIWAAlYvnyX0yeMGnj2S79raR9U6oaI2ymcF0lvcPDdRX3Lcd11XQsuK7Sq+1wXTU1+HBdxRgDrqvYOw/X1Zin2CC3bwfW99njjz/+UaoDgHKBgAVQArq7u3cI2saf5dInJe2dYuWI66qRFnFdpb7rxnUVSUOIPw5cV+nVd7iuajSM6yrKWfIgXuG6ynQJVQFcV6MdulGyCz20z3d2zn2YagGgHCBgARSYnp6eKf0KPibXxyS9IsWqMcJmqoVdVyMegOsqlThwXeG6SrSuwnVVs2VcV5HOgOsqhjhwXSWSRAUSroayWe4X9I+zz54yb94jVA8AxQYBC6CArFu3btLGTb3nuPQPkvZMuXLEddVIi7iuUt9147qKpCHEHweuq/TqO1xXNRrGdRXlLLiuEmkqcgO4rjzO9O416Ttm/Ut5tBCguCBgARSI7S9n11LVfFQw0aoxwmYqL66r1MvXUQ7AdZVKHLiucF1lNfpxXaU86qMPPlxXMcaA6yr2ziuMeJV/4WooGyW7sBL0f/q44477E9UFQLFAwAIoAOvWrWvfuKn3DJf+RcNezp5K5YjrKpbNHK6rpGLBdRVJQ4g/DlxX6dV3uRGvcF3humr+QFxXmS6hKrHrajQ2yPzrbYF/9thjj32WagOgGCBgAeQYdw9W9tx2vKT/lPTKDKrGCJspXFeZldG4rtKqfpqtneOPA9dVVqNu1I9Smw2zfGQQ11WkM+RBvMJ1lUhT6cWB6yqucvhpuX91y5b2L86f3/E81QdAvkHAAsgh24Ur/3+SHZJR5YjrKpbNHK6rpGLBdRVJQ4g/DlxX6dV3uK5qNJwX11V9Z8B1FVMMuK4SSaIWcF2NVhU/qdC/4N77lc7Ozk1UIwD5BAELIGd0r1p7jJk+Lel1GVWNETZTuK4yK6NxXaVV/TRbO8cfB66rrEbdqB/hukqr1sV1FeUsuK4SaSq9OHBdJcjLi+ojkv59t912unDatGn9VCYA+QIBCyAndPf0/Lkp+Jxcf5Fh5Rjhf4nMULzCdZXqbhPXVdxpj+sqciyeZKaP0SKuq3Tr7JoN47rKJA5cV7EGj+sqL+KVj3Sae83tn0844QM/MLPE5TMAqA8ELICM6V679rVW1b9LOmHsMYnrqvaBuK6SjAXXVeTaOf44cF1lNeqa+Si+OFredVV/67iuYowB11Xsndfa4lUOXVej7bfcf+KV4JMnHT+vm6oFIHsQsAAy4ua1a/dtq+pfXDpTUluGlSOuq1jqBFxXScWC6yqShhB/HLiuUqyvcF0NbxjXVSZxtLLrKqHgPfVExnU1WuN177dcKyT/287OY39OFQOQHQhYACnT09Mzper21y77O0kTkygiEtub4bpKZYeF66pGS7iucF1lNfpxXaU86qNPALiuYowB11XsnYfrKpbUjjWWCPutUNJVlaD698cff/wDVDUA6YOABZAS69evH/fk08+dLuk/XNoj48oR11UsdQKuq6RiwXUVSUOIPw5cVynWV7iuhjeM6yqTOHBdxR48rqvY0juWOGLY1vXK7DttQfVTxx133J+ocgDSAwELIGHc3VavXnuam33apQOSKiIS25vhukplh4XrqkZLrey62vZ1XFcZjX5cVymP+ugTAK6rGGPAdRV75+G6iiW1Y40l5m3dsyb/z8mTx3+5o6NjC1UPQPIgYAEkyKpVa9/mpv+W9M5I/zsyrqtEdza4rpqu2WKNBddVJA0h/jhwXaVYX+XFddVY4uG6SkVzSDcOXFexB4/rKrb0jiWORLd1pofM9c8nnDDvUn6xECBZELAAEmDlyh/vb0H/p12a7w2NM1xXww/EdZVkLLiuItfOycSB60qZjX5cVymP+ugTAK6rGGPAdRV75+G6iiW1Y43F0zv/HfLw452dx91GNQSQDAhYADGyfPkvJk+YtOFvJfukpAm4rprZSOG6Sj0OXFdpj7aoGkL8ceC6SrG+wnU1vGFcV5nEgesq9uBxXcWW3rHE4ZmcXy7pB5Wg+rfHH3/876mOAOIFAQsgluLXg1U9t82X9DlJezW2LuK6Gn4grqskY8F1Fbl2TiYOXFfKbPTjukp51EefAHBdxRhDiVxXkZrDdZXoYGpB19VIJ3rR5V+dMK7y6Xnz5r1AtQQQDwhYAE2ycuWa93sQfNHkb2psbcR1NfwgXFepx4HrKu3RFlVDiD+O0otXuK6aTTxcV6loDunGgesq9uBxXcWW3rHEkZHratiJBkT0sLn9+113/eJbS5cuDamcAJoDAQsgIqtX33FIVdX/MmlO4+tiuV1X0TZTuK6SjAXXVeTaOZk4cF0ps9GP6yrlUR99AsB1FXMMMaw7uK6yXkZxXY12ghy4rkabZn4Smn3slBOPWUsVBRAdBCyABlm3bt2kjZu2/J1kfy9pfGNrI66r4Qfhuko9jixdVwkUMumnPa6ryLHgukq3xoyQeKV0XUWcCHFdxRQDrqtEkgjXVZ5dVyOnjkuXBer7u87OzseoqgAaBwELoAFuXX3b3ED+VZcObHxdxHUVk5LRXAy4rlIvH3FdNawhxB8LrquU66vGxCtcVwnGgOuq6YNwXWW9jOK6Gu0EOXddjcRGub5g1veZzs7OXiosgPpBwAKog9Wr7zgkVPUrkmY2vjbiuhp+EK6r1OPAdZX2aIuqIcQfB66rFOsrXFfDG8Z1FeUsrfeidlxX9TSE66qQrqvRuMdN55584rE3Um0B1AcCFsAoLF/+i8kTJm34W8n+QdK4xtcmXFcxKRnNxYDrKvXyEddVwxpC/LHgukq5vsJ1FXUCwHUVcwy4rmINHtdVLKkdaywFdV2NVpBfV6mEf3n88cf/nuoLYMzxAgC1uHX1bXNN4dcl27/xtQnX1fCDcF2lHgeuq7RHW1QNIf44cF2lWF/huhreMK6rKGfBdZXl8oHraqxGcV1tP1FC29sX5fr/pkwZ/58dHR1bqMQAaoOABTCE1atXv8kVfM1l7462NuG6SnJ1r7vFLF1X0QNMq15LNg5cV7lwXSWcZXUfhusqjRoL1xWuq+YPwnWV9TKK62q0E5TNdTUK98jtr0466ZjlVGUAw0HAAtjG1l8X7PsXyf9aUlvja1NyrqvGN1O4rpLe5eC6ivOW47qKJY5WfmQQ11W6dXbNhnFdRTkLrqsslw9cV2M1iutq+4k85fObdF21ah8+5ZRjHqJKAxg0NgBg6K8LNr4u4bqKScloLgZcV6mXj7iuGtYQ4o/Fk8z4aMoMrqs0apzG1h1cV6noDnWfBddVk83hukp0MOG62n4yz/T8es6kf5X6vtbZ2VmlYgNAwIIWp6enZ5/Qg8+6tCDa2oTravhBuK5SjwPXVZojbdhXcV0lvbfHddVM4uG6SkVzSDcOXFexdx6uq9jSO5Y4WtV1NVIsLvuZwnDJyScf/xOqN2h1ELCgJXH3YFXPbWdL+oKkKdHWJVxXMSkZzcWA6yr18hHXVcMaQvyx4LpKub7CdRV1AsB1FXMMuK5iDR7XVSypHWssuK5qxLH1P/pN+saECZV/njdv3gtUc9CqIGBBy9G9Zs2bg9DOk/S2aGsTrqvhB+G6Sj0OXFdpjrRhX8V1lfTeHtdVM4mH6yoVzSHdOHBdxd55uK5iS+9Y4sB1Nfiko0y3j5js3JNOOvYqqjpoRRCwoGVYvvwXkydMevFTkv+NpEq0dQnXVUxKRnMx4LpKvXzEddWwhhB/LLiuUq6vcF1FnQBwXcUcB66rWIPHdZXJdmbUxnFd1YhjrPObrgvU/5HOzs4/UOVBK4GABS3BqlVr5rnZ1yXtG21twnUVo5KRQJ2A6yqpWHBdRdIQ4o8F11WKtRWuq+EN47qKchZcV1kuH7iuxmo0D48M4roafNII/0Pd8zL7p9/c9YtvLF26NKTig1YAAQtKzerVq3cJVfmspMXR1yVcVzEpGc3FgOsq9fIR11XDGkL8seC6Srm+wnUVdQLAdRVzHLiuYg0e11Um25lRG8d1VSOOqOc3XxsGftapJ5zwG6o/KDsIWFBabl299kSTvi5p92hrE66rGJWMBOoEXFdJxYLrKpKGEH8suK5SrK1wXQ1vGNdVlLPguspy+cB1NVajuK5GiaM4rquR2Ozyzz3/7JOfXrJkSR+VIJQVBCwoHd3dP94raOv/uqTjoq9LuK5iUjKaiwHXVerlI66rhjWE+GPBdZVyfYXrKuoEgOsq5jhwXcUaPK6rTLYzozaO66pGHPGf/xdyP/Pkk4//KVUhlBEELCgVt65ee6K5/kemXaOtTbiuYlQyEqgTcF0lFQuuq0gaQvyxtLLrapSPcF2lEEMBXVexxYHrKrYvFM51lWAS4brafgJcV4NP6smfu8+kL06ZMuFfOzo6tlAhQplAwIJScPOaNQe2Ve18mY6KvjYlJ17humqgRVxXqZePeXBdxZf6zYlXmQlXiU5BuK7GbBXXlXBdRTsLrqsmmsN1lejchutq8Mk8s/NvP6mnf/5fB2ZndXYe+2OqRSgLCFhQaNzdVvXcdo6kL0iaEm1twnUVo5KRQJ2A6yqpWHBdRdIQ4o8F11WKtRWuq+EN47qKcgZcV1kuH7iuxmoU19UocZTXdTUS/SZ9Y8uWyf+4cOHMjVSPUHQQsKCwrFx5x0EKqhdJem/0tQnXVUxKRnMx4LpKvXzEddWwhpBMHLiuUqxvcF1FnQBwXcUcB66rWIPHdYXraqSTtajrqiah655AfvrJJx9/O1UkFBkELCgkK1evXSjpa8J11XwMuK5S2+mVw3UVTyy4rlLP9jEPw3WVRp2D6wrXVfMH4rrKdBlVwy9IT2xA47qqO47Wc10N2G8NCqAq0xcqVv2Xzs7OXipKKCIIWFAoVtx++57tvdXzZfaB6GsTrqsYlYzoMeC6Sr18xHXVsIaQTBy4rlKsb3BdRZ0AcF3FHEeWrqtIX8Z1VU9DuK5wXdWKIy+uKx95w/XrMAgWnNZ57M+pLqFoIGBBYbh19doTTf4NyXaLtjbhuopRyUigTsB1lVQsuK4iaQjxx4LrKsXaCtfV8IZxXUU5A66rJmPAdZXoYMJ1NUocuK7Gok+uz1Qq1f/o7OysUmlCUUDAgtzT3d29c9A2/nOSFkdfm3BdxahkRI8B11Xq5SOuq4Y1hGTiwHWVYn2D66qZCcATTQtcV40e1Jquq9oN4LrCdTXSyXBdDdxvNfw/rt0Whr7otNNOuI+qE4oAAhbkmpVr1hyl0C6UtF+0tQnXVYxKRgJ1Aq6rJGPJg3gVz/8Siesqchy4rjKq8XBd4bpq/kBcV1kvo7iuRjtBtuIVrqvhZUZTAbxo8n886aTjv2JmGV8JwOggYEEuWbdu3aSNm/r+U/KPDs1TXFfNbKZwXSUZC8JVEqmP6ypSLLiu0q8xB7aM66rh1nFdxRQDrqtEkgjXFa6rWnEU1nU1sjRwY7Xfz5o///g/Uo1CXkHAgtyxatXat8n0XZdeGW1twnUVo5KRQJ2A6yrJWHBdCdcVrquMajxcV7iumj8Q11XWyyiuq9FOgOtq+0lL4Loa6dKeknTOKaccfzVVKeQRBCzIDe5uq3puO1fS5yWNi7Y24boafhCuqyRjaX4jFfOL2nFd4brKavTjukq3zm5yAsB1FWMcuK5iDR7XFa6rkU6G62pQ3ZT0KS7t6934oYULF26kSoU8gYAFuWDF7bfv2d4XXixpZrS1CddVjEpGAnVCXlxX8caC62pIC7iu0sz2MQ/DdZVGnYPrKr/iFa6rRr6E6yqzrUS0OHBdZUA+xKsUhKuB/Ebup55yygk/o1qFvFChCyBrVq1ae0xQ9eUyvSHa2oTravhBuK6SjAXXVRKpj+sqUiy4rtKvMQe2jOuq4dZxXcUUA66rRJII1xWuq1pxtJDraii7yez0E44/ue8Nbzj0tltvvZUXvEPm4MCCzOju7p4QtE34nOTnRlubcF3FqGQkUCfgukolDlxXuK4S3dvjuqrZsmcx6qMPPlxXMcaA6yr2zsN11ex+K/5YcF1tP2kLuq5qL3uuFdWqFi5YcPyjVLGQJQhYkAk9PT2HVT34rqQ3RlubcF0NPygvrqsUy/kWfFE7rqtIGkL8ceC6SrG+wnU1vGFcV1HOgusqkaYiN4DrKi/iFa6rWnG0sOtqhP2WS9ITJjvjlFOO/xHVLGQFAhakPQnbqp7bzpH035ImNb424LqKUclIoE7AdZVKHLiucF0lurfHdTXKDj7lUR998OG6ijEGXFexdx6uq2b3W/HHgutq+0lxXQ3dbw2WFE26oFIJP9bZ2bmJ6hbSBgELUmPt2rWv6K3qYpPmRFubcF3VWEPSjwHXVeq7blxXkTSE+OPAdZVifYXranjDuK6inAXXVSJNRW4A1xWuq5FOhutq4H4rV66rkfhZtRJ2LujsvJ8qF9IEAQtSobun54jAgy5JBzW+NuC6ilHJaC6OFHY5uK7ivuW4rpqOBddVirUVrqtmBh+uqxhjwHUVe+fhuqrzFLiuMgDX1fD9Vl0L8Atmds4ppxz/fapdSAsELEh6IrZVPbedK+nzksY1vjbguhp+EK6r1OPAdZXmaGtGQ4g/DlxXKdZXuK6GN4zrKspZ8iBe4brKdAkVrqvRG8d1tf2kuK6G7rcaj8Ok8yuV8KOdnZ29VL+QNAhYkBi33377jr194bdcOrHxtQHXVYxKRnNx4LpKvXzEdSVcV7iu0q8xB+/gUx710QcfrqsYY8B1FXvn4bqq8xS4rjIA19Xw/VYTsZjdGSg46eSTj/0tVTAkCQIWJMKqVbe9ReZdLr2y8bUB19Xwg3BdpR4Hrqs0R1szGkL8ceC6SrG+yot4hesK11XzB+K6ynQJFa6r0Rv3TM4//ES4rgbut4rruhqB59387NNOPvFKqmFICgQsiJ2Vq9culvQVSeMjb8VxXWVVvo5yAK6rVOLAdYXrKqvRj+sq5VEfffDhuooxBlxXsXdeYcQrXFcpgetqeJlREtfVyFXUV9sr4d/ySCEkAQIWxEZPT8+UamgXyOykxtcGXFfDD8J1lXocuK7SHG3NaAjxx4HrKsX6CtfV8IZxXUU5C66rRJqK3ACuK1xXI50I19XA/VbpXFcjsa6/EnYu7Oz8HVUyxAkCFsTCqlW3v9EVXiXTqyJvxXFdZVW+jnJASnHgukqr+mm2do4/DlxXWY26UT9KbTbM8kXtuK4inSEP4hWuq0SaSi8OXFfJqhPpbutGjQPX1cAyo9Suq5F4ykOddtppJyynWoa4qNAF0CyrVq052U3XyLRX5O04rqssStcxDsB1lVQsuK4iaQjxx4HrKsX6CtfV8Ibz4rqq7wy4rmKKAddVIkmE6wrXVa04cF0N3W+lHsckk0474YSTJr7hDa+75dZbb824I6AM4MCCyHR1dVX23Hv/T0v+d5IM11Wz+2NcV0nGgusqcu0cfxy4rrIadaN+hOsqrVoX11WUs+C6SqSp9OIonXiF62qkE+G6GlhmtKTrqua9N9N1lUo4v7Oz8zmqaGgGBCyIRHf3ut0qbb3fc2l65O14lq6rratKWuXaGAfhuko9DlxXaY+2qBpC/HHkTLzCdZViHLiuGj4DrquYYiiZ6yqmLm06DlxXuK5qxYHrauh+K1vhasg/7zXpuFNPPWE91TREBQELGmblyrV/por+V66puK6a3czhukoyFlxXkWvn+OPAdZXVqBv1I1xXadW6uK6inAXXVSJNpRcHrqtUFAJcV9tPiutKuXJdjRDHCyY749RTT7iKqhqigIAFDbFq1Zr5bna+pIm4rprZSGUQB66r1HfduK4iaQjxx4HrKsX6CtfV8IZxXWUSRyu7rhIKHtdVbOkdSxy4rrafFNfV0KUvT66rERYj0+fbK/5PnZ2dVSpsaAQELKiL7u7utqBtwv+T/JO4rprdzOG6SjIWXFeRa+f448B1ldWoa+aj+OJoeddV/a3juooxBlxXsXcerqtYUjvWWHBdbT8prisVwXU10tduGNfmp3V2dj5NtQ31goAFY9Ld/eO9grb+qyS9E9dVMxspXFepx4HrKu3RFlVDiD8OXFcp1le4roY3jOsqkzhwXcUePK6r2NI7ljhwXW0/Ka6roUtf7l1XI8kRv/UwPHb+/M5fUXVDXRlDF8BorF69+k2uyjWhdGBSRURiezNcV6nscHBd1WiplV1X276O6yqj0Y/rKuVRH30CwHUVYwy4rmLvPFxXsaR2rLHgutp+UlxXyqnrKnIsG0y24NRTT/gh1TeMRUAXwEisWrXm+FCVNfWLV66kxCtXgcQrH1rIpCxeeTq7nOinibdP8uK68qYuLZ4+8ViaadJ15bH3aqTQ8+K6SmnURf0o3p1rJuLVthN7miNtpIurv3VPPC08vb4YtaGxz5IX11V64tXIZyuk6yqhJKqr6UQGdJ5cV57mtm7MC/VUJtPR4/CXxKtMzj9wv5Un15Wnf25vKFPrYQeX/+/ll1+5lAocxgIHFtSalG1Vz9q/c9lnVLfIieuq9uqechy4rtLY8dduCdcVrqusRj+uq5RHffQJANdVjDGUyHUVqTlcV4kOJlxXEq6rmjVSxkXaqHcmtfPXmalRuaK9zc/s7OzcRFUOtUDAgkF0d3dPsPYJF8h9fsaVI++6iqVO4F1XScXCu64iaQjxx1F68Yp3XTWbeLzrKhXNId04eNdV7MHzrqvY0juWOHjX1faT8q6rwdefB/HKk04K89vbKzq2s7PzMapzGJYedAG8RE9Pzz79Hlwt6W0RZtIsSsc4K/iYNnO4rpKMBddV5No5mThwXSmz0Y/rKuVRH30CwHUVYwy4rmLvPFxXsaR2rLHgutp+UlxXahXXVS2R4mF3n3faaZ13UqXDkNwAkLrXrHmzhXaNpAMyrBxxXcVSJ+C6SioWXFeRNIT448B1lWJ9hetqeMO4rjKJA9dV7MHjuootvWOJA9fV9pPiuhp8/S3huqp97o3uvmD+/M6rqdbhJRCwQLeuXnuipO9ImtTgTJpF6RhnBR89DlxXqe02cV1Frp2TiQPXlTIb/biuUh710ScAXFcxxxDDuoPrKutlFNfVaCfAdbX9pIhXalnX1SjD9N9PPfWEfzOzjLMC8gACVovTvXrNP5vs38fOBVxXww/CdZV6HFm6rhIoZNJPe1xXkWPBdZVujRkh8Urpuoo4EeK6iikGXFeJJBGuK1xXteJAuBp8/S3suqr5Z5MuaW/3czo7O3up4FsbBKwWpaurq7LnXvt9zU0fbHAmzaJ0jLOCjx4HrqvUdpu4riLXzsnEgetKmY3+nItXuK4SjAHXVdMH4brKehnFdTXaCXBdbT8p4pVwXfnYI9ekW3p7248/44xjn6Wab10QsFqQ7u7uHYL28Ve4a3ZGlSOuq1jqBFxXScWC6yqShhB/HLiuUqyvcF0NbxjXVZSz4LrKcvnAdTV2CZzJpCZcV7XjQLgafP24ruoauevDqjoWLuz8A1V9a4KA1WJs+6XBH0l6cwMzaRalY5wVfPQ4Wtl1FT3AtOq1ZOPAdZUL11XCWVb3Ybiu0qhzcF2VyHW1WdImSRtM6gulZ03mLg/N/DlJUmhVBXp+25f7TNogl0Kp11wbRz2XaaNZOOQxkqCiUDuGNTe7PkVmbTX2GOPMbHLNYeC+s+ylfbJNlnycpEkyjZdroqQJkk+QNDGWe4LrKtHBhOtqFHkE8SrDk496Z1I7f52ZmkoxVufIfcSk2aed1vlzqvvWAwGrhVi5cu0bPPAfSbZ/XTMJrqs0S8Y6P8R1lVQsuK4iaQjxx4HrKsX6CtfV8IZb0nXl5nrGpWclPSfZCzJ/QdILcj0v82cle0Fh+IJZsMFdz0vhs0EQbOq36qagWtnQX6n2Vdvant0hDPs7Ojqeb7X91bJly8aHYTipWq2O6++vTG5rq7SHYXUHM2uryqe4VAlMO7p7ELjtFJqZyXc2swkeakeZT5G0s9x2knyKXDuaaYpLUyTtEiULcF01u9+KN45cuq4y00w8s3MP3m/humogU1Mpgryx5HzB5CeedtpJy6nyWwsErBbhllVrjwwCXSXXTnXOpFmUjnFW8NHjwHWV2m4T11Xk2jmZOErpuqqzNVxX6deYEZIO19WYRz0n6XGZnpD0pNyecvOnA9kz7nraFT5jYeVptfU/E5o90x6GT8+ZM+cZdkn5ZtmyZTtuqFantPXZjmY+JTTbUfKdLdz2b239v+6+kynYOZRPMWk3SXto6/+dnGwy47oa7QS4rrafFNeVcF15UyN3KP1u9qEFp574LVaK1gEBqwVY2XPbInc/X9K4MWeSkopXuK7iOA2uq8TiwHWVdrY3uJlKMBZcVymOtJEazrXryiX/k2SPS/qj5I9L9njo+lMge9IreiJU9bG2MHyiUqk82dHRsYVdDwylq6trYqWyw65B4Lv1K9wjCLWbmXaTbFc37Sb33U3a3beKXbtJ2lVSe5QRgesK11XtSHBdDbx+XFeRRu5ojf+/007t/Bczy/gGQxogYJWcW1et/ReZlo58r3FdxaRkNBcDrqvUy0dcVw1rCPHHgusq5foqR66rBk5QYtfVsyZ7SPI/SHrcTX9U6I9L9nBYqT42zuzhh/bY4/ElRxzRx24G0ubqq6/euVpt2z0ItFsYaDdz39U82DOU72OufSXtLfP9JdtL8vZo+6345zVcV6PII7iuMjz5qHcmtfPXmampFGMed3K6XTZunJ/V2dnZywxebhCwSoq726rVt33RTR8bcybBdZVmyVjnh7iukooF19X2r+K6Snpvj+uqmcQruOuq16SnXHrEZA+4/AF3PSrzRyoKHujrG/fbY4+d9iy7FSgDl1933S7jN4f7mIV7h1bZR/K9TdrHZHtLfrDL9pH7npKCJOc2XFfbT4TralBNlHEAo96Z1M5fZ6ZmsA2KLxaTbtm8efwxZ5017wVm5vKCgFVC1q9fP+6Jp5+7VFJnHTNpFqVjnBV89DhwXaVWPuK6ilw7JxMHritlNvpxXaU86qNPAGMcFcr0sFy/M/nvXPaATL+z0H8XhpUHPvCBGY/yKAPAdi66qHvC5Mkv7K0227fi2lfyvX2rg2tvuR0o+cGS9ooyQ+C62n4yXFdDSw1cV3VmairFmKeTnLdX+9vmLFp03FPMvOUEAatkdHd372Bt4/5XshmjThut7LqKR8mIHgeuq6Syqr5WWtx1Fe8dji5e4bpKeguH62p4ww27rnolPSDpHsnvM7ffmvnvzMLfbdy48UEeUwCIl66urolBMOFgD3SQyQ5294MkO9hcB8n8YEmTcV2NfKJciVe4rka7M6mdv85MzWAb5Emf/y6pMnP+/OP/yMxaPhCwSsTatWtf0duv62R6RwqVa0Q9AtdVhiU0rqvkMzyO2jmZOHBdKbPRj+sq5VHf8ATwqKT1Ln9A2x73s9DumjJl/D3Tpk3rZ3cBkA8uv+66Xdr7+g42Dw7eKmz5waF0sEkHSzpAUls6dTquq1HjwHWF62rEP3ma5/+Du45asKDzHmbPcoGAVRJWrvzx/h70L5d06IgjGddVmiVjnR/iukoqFlxXkTSE+GPBdZXCiBtz55pyHNtazpfrqleye0x+t5vd5fK7K6rebWb38st9AMXnvPPOa99pjz0OaA/toKqCgwP3V7l0iKTXaqvA1d78WXBdjRQLrivhuhrzz57++V1PuAcdCxeesI5ZsjwgYJWAlStvO9SDcLlk+ydcuUbUI3BdZVhC47pKPsPrqJ0zigPXlTIb/biuUh71L7NJrrtcuts8vEsK7pZs/Q47tP8ONxVAa9Ld3d321FMbDpKqr3UPXiPzQ2Q6RKFeK9Oejc5WuK5qxIHrCtfViH/y1M8/5KMXTHbs/Pkn3sxsWA4QsIq+KPf0HGEeLJO0e82RjOsqzZKxzg9xXSUVC66rSBpC/LG0sutqlI9wXcUew6OS1ku6S+Z3eqA7Nz///G86Ozur7A4AoB66urp2ktpfZWaHKdDr5HaYpNdJOmh7neRpbuvGnDlxXQ3cb+G6Gv6fre26qv2R98q1YMGCk7qY9YoPAlaBuWXV2iMD0w8l7ZBg5RpRj8B1lWkJjesq6QwfuQVcVwllPK6rZju8wK6rjZJ+IdkvzfyXVdkv29X/q46OjufZCQBAElx++XW7tLf3HqaKvc7cDnPpMMneKPnuaesEA0+W8Pa2rjhwXQnXVf5dV7X+UjXpQ/Pnn3QBM1yxQcAqKLf23Ha03K+SNHHYcMV1lWbJWOeHuK6SigXXVSQNIf5YcF2lMOLG3LmmNPKHtByvcPW8Sb9y6U5cVQCQN14WtlQ5XIEfLtfrJB0maUKSlTquq4H7LVxXw/8T15XXd7Cb/BPz55/8JWaz4oKAVUBuXb32WElXSBqXUOUaUY/AdZVpCY3rKukMH7mFHIhXuK4yGv24rproQX9Spjvl9lNz+5kU3DlnzvQHWOUBoEh0dXWNC4Lxh1WlN5rCN8rtLZLeImnHOOZZXFcDSw1cV8P/ievKGzl466efXDj/pM8zexUTBKyCsbLntk53v0xSO66rWJWM6HHgukoqq+prBdcVrqtEt0+4rmq23Pgt6jPZfaF5j8nXeKA7586ceZeZZVwOAQAkw/e+d80+QbsfLvfDTcHhkt4+6BHEMWZOXFcD91u4rob/J66rRoWrIYd+bsGCk/6emap4IGAViJU9ty1y9wslVZIUr3BdNdAirqsksqq+ljJ0XcWX+gV1XY24mUopFlxXKY22UXfwoxFK9hsp/LHMfqxQP95rr11/ecQRR/SxkgNAK3PFFVe/slIJ3iL54e56m0xHSJoydJ7FdTVwv4Xravg/cV01JV5tz/LPLpx/8j8wMxULBKyCsHL12sUu/Y/kQZJzBq6rOuPAdZVUVtXXSpaPDOK6SjvbG9xMpb5jSm8Wyq/r6gVJd8hsrUJbGwR9t/GCdQCAsenq6qqEbW2HWqi3meztHurtMh0mqS1NnWJYWZ/ZuQfut3BdDf9Pz+T8tf9UQNdVLcy/PP/Ukz6OI7w4IGAVgFtXrzlXsi9JbknNGbiuGmgR11USWVVfS7iucF1lNfpxXQ3kDy71yPy2iiprNmx45pe8ZB0AIB6uvfbaSRs2Vw8P5G+T+59L9i5Je6ehWOC6Eq6rkruuamHSN++//+6PLF26NGQGyj8IWDnn1lW3/Z0s/FyScwauqzrjwHWVVFbV1wquK1xXiW6fcF3VbNkVSlov063m3hOG7Wvmzj3yYVZnAID06Or6v4Pcq+9SYO+S+7u09ZcPgzjne1xXwnXVKq6rGpj8O+PGBWfzP8jlHwSsHNO9es0/m/QfSY1VXFcNtIjrKomsqq8lXFe4rrIa/a3pugpd4S9MttKllX2bK6uPO276U6zIAAD5oaura6fQ2t9p0jvk/m7J3i5pUpR1B9eVcF21oOtqhCa/N368LUDEyjcIWDll5eo1f+3SF5Ifp6lV8NFjwHWVWgmLeDWkBU91pI2ymUp91OO6ah3XVVXSPZL1yHxFm4U3z5o162lWYQCA4tDd3d32xBPPvsndppv5u116j6SdxlpJcF0J11ULu65GaLJrv/32OG3atGn9zCz5BAErh9y6qufjMvtiEmMV11UDLeK6SiKr6msJ1xWuq6xGf2u4rh6QbIXMV6jau2LOnDnPsPICAJSHrq6uitT+ZknvluxdLp8haeeXVhJcV0P3W7iuhv+pZVxXtbj4t7+9+0zeiZVPELByxsviFa6rNEvGOj/Mi+sq3lgQr4a0gOsqzWxvcDOV+o4pvVkoQdeVSQ+562YFunmbw+pRVlsAgNahu7u77fHHnz4iCOzIUJou1zskjc8qHlxXtf4T11UqcdS533LpWwvndy7m1wnzBwJWjrh11ZqPyvRlebz3BddVAy3iukoqs8ZuBdcVrqusRn/5XFfPyXWzzFaY282zZ0+/lxUWAABe4tprr5304otb3iMF012aLulNadWFuK5q/RPXVQ5cV8MPMX1zwWmdH0bEyhcIWDnh1lVrPiTp63HfE1xXdcaB6yqprEr4luO6ajoWXFcpjPwxd64x9KL9TPIbFIQ3TB4//jbe3QAAAPXS1dW1exi2HSn5dJkdJWn/2FdAXFc1/hPXVSpxRN5vuVz62sL5J52LiJUfELBywMrVa8909wsU48/h4rpqoEVcV0ll1tit4LrCdZXV6C++6+opSbfIfIX3t/1o7twjH2Y1BQCAOLj8qqsOrlSD6ZLPlWuGmnzcENdVrX/iusql66p2D3150YKTP8bMkA8QsDKmrOIVrqu4ToPrKolYcF2lnu0NbqZS3zGlNwtFd125Setcui604Pqf3tFzJy8XBQCApOnq6tohDNuOdNMscx0t04H1lxm4rob/J66rVOJownVV+6/2hUULTvpbZoTsQcDKkO5Va+abdLFiEq9wXTXQIq6rpDJr7FZwXeG6ymr0F891tdFkN8n9R1L7dbNnT3uMlRMAALLkiiv+91AFmiNprlzvlFSpvd/CdTX8n9m5rlKNo5Cuq7G/6LLPLFpw0j8xC2QLAlZGrFzZ8wE3u0pSW+plLK6rxMtXXFdx33JcV03HgusqhZE/5s61nm887qYbTbr2xQnt13dOm7aBFRMAAPJIV1fXK7a+O8vmynyepB1xXdX6T1xXqcSRkHA1+FD75MKFJ32e0Z8dCFgZcOutPdMU2DJJE1ItYXFdxS9KxHqahOPIQLzCdbX9q7iuMhr9hXBd2U/NwqtD82vnzpr1C1ZJAAAoGsuWLRv/7LObp5mF8xTYHLn2Sz0IXFej/BnXVdPi1UtfMFuycP5JFzDqswEBK2VuvXXNWxXoZklTUi1jW9l1NeIBuK5SiQPXFa6rRLcshXRdVeW2VkF4daDw6qOPPvpBVkcAACgL7m7f//7/HuGm4+U6XtKrkj3hwP+D62r4n3BdxbwbrMp1ysKFJ1/JaE8fBKwUWb169SFVD1ZL2iO1EhbXVfyiRKynwXWVWBy4rtLO9gY2UgnHkU/XVVXS7XJdWamEXbNmzXqUVREAAFqB7373B4eZ2YlmmuPS4XEvwbiuMoqjdVxXtZroc9e8RYtOvp4Rni4IWCnR3X3bVAvCHpn2Ta2MzY3rKvXydZQDcF2lEgeuK1xXWY3+fLmuNsl1vWRXjRunH82YMeM5VkMAAGhlvvvdH7zWzI6T6XhJb4lnv4Xravif8uK6SiCWLIWrwc1sNPOjFiw4ZS0jOz0QsFJgzZo1e/RVtUrSa1IpYXFdxS9KxHoaXFeJxYHrKu1sb2AjlXAc+XFdbZHsJpOulPp+2NHR8TyrIAAAwHAuv/yqAysVP8ZlC9WImIXrapQ/47pK0HVVi+fM9P4FC07+KSM6HRCwEuamm9bt1D5+S7ekP0uljMV1lUr5Gv00uK6SiAXXVVLZjuuqzot9WbRqb9c1OK0AAAAa46XHDGU6VdKrx95v5UW8wnVV++PSuq5q8YRZ8J4FCzrvYSQnDwJWgqxbt27Shhe33CTpnYmXsLiu4hclYj0NrqvE4sB1lXa2N7CRSjiObF1XfQp1o5l1IVoBAADEtNJufQH82938FMlOlGvvwfstXFepx4Hrqh4edA/evWhR58OM4mRBwEqIrq6uyh577nOlzI5NvIzFdZVK+YrrqkZLuK5wXWU1+rNzXd0p06X9W4Ir5s2b/jirHQAAQDIsXbo0OOSQN77TzBe4dKrkO6QeBK6rBj5uKddVrUPXh9Xx7z7jjGOfZfQmBwJWQqxctfarLv/LREtYXFfxixKxngbXVWJx4LpKO9sb2EglHEc2rqvfSP79sGKXzz3qqPtY4QAAANKlq6trYl9ocwK3hS4dLamS6Alz77pKOJZWdl010MzQw0y69dlnd5x17rkdWxi1yYCAlQC3rur5R8k+nWgZi+sqlfIV11WNlnBd4brKavSn6Loy+VOSXWXSpbNmTV9jZhk8swAAAABDueyyq/azSniayc6UdEjSWxFcV6N93PKuqxp/D69YtOCUU9k7JgMCVsx0r1oz36RLGunbhjM7S/EK11Xcd7Ox1nBdpbcq1fhqy7quRtzMpRRHeq6rzTJdI9l3Nj7/9E2dnZ1VVjUAAID88r3vXflOl50l6SRJk+PciuC6Gu0jXFdjbNY/s2jRKf/ECI0fBKwY6V69+n3mwQ2SxidSxuK6Sr58Fa6rmi3husJ1ldXoT8V1ZXfKwkvDvvbL586d9iSrGQAAQLG48JprpkzY1HushbZApunNbkVaynXV8FYM11Vdn5h9dNGCk7/G6IwXBKyYuKWn57AgtB5JOydSTpfYdTVmq7iukpmB62kF1xWuq0RHf6auq0clvzK08NtzZ836BasYAABAObjiiv891N0XuXSW5LtF2+vgusJ1Vc9hozZQDcxPWLDg1B8yKuMDASsGVq5cub+r7TaZ9o29jMV1ldyEFctpcF0lEQuuq6Syvdiuqxji6HX5/1Wki1544dnlPCIIAABQXrq6uiZWq5UTXP5BSe8ca1ORB/EK19VYh+TcdTWcjfLw/YsWnfZjRmQ8IGA1ye23377j5t7qKklvir2cxnWV3KTV9GlwXSUWB66rtLO9zs1cJrulWOJw6X65f6s6LvjOvOnTH2flAgAAaC2++90fvNZNHzLpTLl2qL3HwHWF66qewxqO40m5vWvRopPvZSQ2DwJWE3R1dVX22Gvf/5PUEWsZi+squQkrltPgukoiFlxXSWV7y7quek12TWg6f/bMI2/ml2AAAADgsssu29Fs4slm/lFJr8d1NdpHuK7ii8Xvaav4O0477bRnGIXNgYDVBN2re75mbh+JtZzGdZXcpNX0aXBdJRYHrqu0s33UwwouXN1j5hdU+9ov5oXsAAAAUHvv6Xb5FT94v0kflusDktqSPWE9f8Z1lVj9lb7rathX3XXTgQfu1TFt2rR+RmB0ELAicuuqNR+S9I3YylhcV8lNWLGcBtdVErFk7rra9nVcVxmN/vjEqz5JV4fS/8yZNX0lbisAAACol8svv+pAs/CjLp0taac0tkK4rsY6pAyuq+FfddfXTz/9lL9k1EUHASsCK1eu+Qs33SRpXCwpjusquUmr6dPgukosDlxXaWf76AtqtrulqHE8ZmYXV6z69ZkzZz7E6gQAAABR6erq2qGvT6fK7BOSXpPUVgjX1ViHlMd1NcKHH1m06NRvMOKigYDVIKtXrz646sEdknZrOs09uQkrD+IVrqtRWsJ1lc6KNMrXcV1lNPpjEa/sTnP/yh577PK9I444oo+VCQAAAOJi6dKlwSGHvH62KzxXsulxbYVwXY11SDldVzXol4KjFy06aQWjrXEQsBpg9erVu1Q9uE01FHlcVw3EgesqmRm4nlZwXeG6ymbUxSFcvSDZJeb6RkfH9LtYkQAAACBpvve9HxwRhvobmZ8gqRJ1K4TraqxDyu66GsYzkv05v0zYOAhYdTLaLw7iumqgRVxXicyAdbWE6wrXVVajvznx6nfufp7C3vPnzJnDL7cAAABA6lxySddBlYp9TKZzJE2Mtt/CdZXYjjT/rqvhh5seGNfmbz/11FP50aEGQMCqk1tXrvm6TB9uKsVxXSU3aTV9GlxXicWB6yrtbG9wM5XqbqmBGLY+JjhxYtt3+bUWAAAAyAOXXPK/e1Qq1Q/LdK6kXUbb1OC6GuuQlnNd1cqLVZMmts3o7OzsZXTVBwJWHXSv6vmgyf4nuh6B6yrpErq50+C6SiIWXFdJZXupXVe9knV5UP3SnJkz72T1AQAAgDzS1dW1U3+/PhSG9ldm2mvkfQ6uq8R2pEV0XdX+gF8mbAAErDG49dY171CgW7XtFwdxXTUQB66r5GbAxG45rqtY4sB11ehHT5rpvEDVr8+aNetRVh4AAAAoAhdddNGEceMmny3ZJyXth+tqrENwXdX61KTTFy069WJG1NggYI3CihW379nWXr1Tpn0b1yNwXSVdQjd3GlxXScSC6yqpbC+r68oelIVfajP/1syZMzey6gAAAEAR6erqGtfXp9Nd9inJ90v0ZLiumjw0L+LVoE82B2bvWbjwlHWMptFBwBqB7u7utqAyboVL721ck8B1lXQZjesqzluO6yru1anlxKvGNa1fmuu/eL8VAAAAlImurq5xW/rsZJP/q6SD09oS4rqq57B8ua5q/O0P49rtcF7qPjoIWCNw68o1X5bpXFxXDbSYpesqeoDxxIDrKp0VaZSv58F1lXCW1X1Yjl1Xa8zDzx199FHXmVnCL4UAAAAAyIaXhCzJ/8WkV6a7FcN1FWssybmuan1+86SJ7TM7OzurjKLaIGDVYOXKntPc7DJcV3W2iusq2RkwkVuO6yru1QnX1YgfVWX6Qajg83NnHflTVhgAAABoFbq6usb19tsSuf+TpD3j3BLiuqrnsLy7rmodZZ85Y9Ep/8ToqQ0C1hBWrbr9jaGqt7k0KcUKPnqK47qKf+aptyVcV+msSKN8vXyuq+g7hRy6rvokXRGo8umjj37/PawuAAAA0KpccsklkyuV8X/psr+XtHP8WzFcV7HGkqrravgXTNa5aNEpP2DkDAcBawCrV6/epd+Dn6hemyeuq+QmraZPg+sqsThwXaWd7WMeljPXVa+k71es+u+zZs26n5UFAAAAYCtdXV2v2NJnf2fyj2okwwSuqyYPK57rqsbhL4Rh+Odnnjn/LkbNYBCwtrHUPXjf6rXXutSRUgUfPcVxXcU/89TbEq6rdFakUb6O6yqj0T/2R1tMulje9h8dHdP+yKoCAAAAUJuurq7dt/TZX0v+MZPGR9uK4bqKNZZsXVfDvmKmeyqV8G3z589/nhEzoF/ogq10r1zzzzL9x9iJhesq6TIa11WctxzXVdwLCq6rYR+9YGbfqFj1izNnzvwTqwkAAABAfVx++Q9eLYWfd9cx9e/QcF3FHofHeXisjX3v9NNPPZWRsh0ELEm33trzHg/sFkltCVfw0VMc11W8s04jLeG6SmdFGuXruK4yGv2jf7RR8gv724PPzJs+/XFWEgAAAIBoXHbZFX8uBf8l6Z2jb8VwXcUaS85cV7Uw0zmLFp36LUbJtv5o9Q64Ye3aV0zo95+5dMDIiZWh62rQgbiuUo8D11V6q9IIX82DeIXratBHW0y6OLDq0lmzZj3KMgoAAAAQx97b7bvf/cEJ7v55l6YmvQssvnhVWtfVUDZXq8Gfn3XWyb9glLS4gOXutnL12h+69IEEK/joOYvrKt5Zp5GWcF2ltyKN8HVcVxmN/pE/6pX0nb6K/9u8o456hOUTAAAAIH66urombunzc+X2j5J2zEK8wnWVYBzRQr+3Wt10xFlnnfVCq4+Plhawuleu+WuZvlA7sXBdJV1G47oaoRVcV7iuEsv2MVqs/VGvS98yb/tPXs4OAAAAkA4XXdS1V1u7f1bSwtjqdlxXMR6eqOtq2FdNuuj00089s9XHRcsKWLesXv1282C1pPYEKvjoOYvrKrmRP1ZLuK7SXZVqfBXXVUajv/ZHVZddqtCWzp595O/ZRgIAAACkz6WXfu+dsuCrkt6S5JYU11WCcXg8YbtpwZmLTr2slcdDSwpY3d3dO6sy/qeSHzQ4I3BdJV1G47oaoRVcV7iuEsv2MVqsff4VoVX/Zu6sWTxrDwAAAJAxS5cuDV75ytfOl+wLMu0e95YU11W9h6fruqrBRrmOOOOMU3/TqmOhNQWsVWu+J+nkmCv46DmL6yq5kT9WSy3suoov9QvquhryFVxXkqTb5f73HR1HrWSrCAAAAJAvLr/88l3c25a69BFJlWS2pLiuEm6sya/5ryZPan97Z2fnplYcAy0nYN2yes2HzfX1mCv46PmK6yr+UV9va7iu0luVRvgqrquk4hijxWF+ZP1aCv+xo2PmtWwNAQAAAPLNxd/73p9ZNfimSW+LuiXFdVXv4Zm7rmoUMP6NM86Y/5FWzP2glS525crbDjXf9tJ292zFK1ei4pUrinjlKqN4NeyqGrrM+PrEm26yXK4rTyfTR5/70x75NcJNZtR5vR89ZLLTf/zjNW9CvAIAAAAoBotOOeVnE8bZO01+rqQXomxJE9mRNtDMyId6Kucf+2yxNtZk2EM+NfvQd77zvdmtmPst48Dq7u5uU2XcWklvxXUV80QR62lwXSUVC66r1LN9zMMydF1tlNnXJo6v/L9p06ZtYBsIAAAAUEwuvfSqvc36PuduC6LtFHFdJdxYk18d8Ygn+vvsDeecc+rjrZTvba1yoVYZ92/u/tak2uddV3W0yLuukp+JR2qFd10llPGFe9dVaNLlYdj2d7NnT3uMLR8AAABAsVmw4PhHJS285JLvX2mmr0k6oL7dIu+6SrixJr825hG7t7X5eZKOaaV8bwkH1i2rbnuXeXWl6nnRXVL5iusq/lFfb2u4rtJblUb4Kq6rpOIYo8XBH93oof5m9uwZv2KrBwAAAFA+Lrzwmint7Zs/baaPaNvrgnBd1Xt4IVxXtfSFs844Y/63WyXHSy9gLV++fPK4CTv8TPJXp1g2jnAQrqskY8F1NaQVXFcJZXzhXFf3mPxTRx991JVs6wAAAADKz8UXd70jCPwil16TyI4U11VCYUf6H8k3SvqzM8447b5WyO3Sv8R9/IQdvhK3eFX369yaf2t39PQe8ZQpvS7aIwcYT19k5LrKg3gVz+8TNHF/tn01U9eVJ5VlBRKvTM+6+ccmTmh7PeIVAAAAQOuwaFHnbePH25+59DlJ1Vh3pLG4rtITr0Y/W6yNNRm2Rz3/ZMm/09XVVWmF3C61A+uWVWvmmfsPUyobRzgI11WSseC6GtIKrquEMr5Qris36bIgCP9m5syZf2ILBwAAANC6XHxx1zvMwm/L9Nq0tua4rhr5msfV0D+dccZpnyl7PpdWwFq1atXuVQ9+JWnPVEtp3nWVzMivp6UWFq88lmZ411WcC0pG4tU6k5179NHTb2O7BgAAAACS1NXVNXHTFv9Xk/+NorwXmnddJRS2x3Z+M/W7+zvPOGP+T8qcy6UVsLpX9vyfpLmplbC4rpIb+WO15Inc0fpbwXWF6yqr0b/9o8dM/g+zZs242MySUc8BAAAAoNBccknXu2XhJZIOintrnn/XVYQG8++6GspdUu/hZ5xxxuay5nAp34HVvbLnNMUgXvGuqzpPU6hHBssjXrl41xXvulK/S/8t73vN0Ucf9R3EKwAAAAAYiYULO3sC63+zpEvi3JoX411XHldjTYbtSZ7/dWbj/6XMOVw6B1Z3d/duCtrvkrR74qU0rqt4Z51GWsJ1lUaGjfpVXFcZjX5/afK2O8Mw/ODs2UetYzsGAAAAAI1w6aXfP97dz5fpFVE3triuGvmaJ3r+l79u6g+kPz/99NPuLGPels6BZUH719WEeIXrqs7T4LpKZzaudTW4rhIYeQVyXW37dcE77uh5G+IVAAAAAERhwYKTrqpWg8MkuyHKxhbXVSNhJ+q6Gvx1V1vV9e3zzjuvvYx5WyoHVvfq1XMU2rWJjhdcV/HOOo20hOsqjQwb9au4rjIa/S9/ZFdWgupf8uuCAAAAABBPjeF22WXfP9ddn5M0PvqOFddV5IaTeMe92T+fefqpny5bvpZGwLrppnU7tY3bvF7SvomNF35hMNmRN1pL/MJgktlV11f5hcGk4hijxa3/c8p9QWAfnjVr+gq2WQAAAAAQN5deesVb3NUl6ZWN71jTdV3FWvNk7bpKrprZEpgdfvrpp64vU56W5hHC9nFbvqikxKtBdr5kStdii1fxP8wV/TI93nsS+dLi6ROPpZnmXVeeTqaPGnomritPMtPHaHHrR1tM+tSGDc+8HvEKAAAAAJJiwYKTfzphQnC4pP+tf8fa/KtJ4tvBe+Lnr+9r0V9NEnM1Mz708FtdXV2VMuVpKRxYN69c8/5AvqKR68F1FddpcF0lEQuuq9SzfczDMnhk8Da5nd3RMf0utlQAAAAAkBaXXnrFYnd9RdJ4XFeNfC0XwtWQYso+ceaZp/13WXKz8ALW8uXLJ4+fMPmXLh0c603P5buuUiznU3zXVc3WMnJdNdcc77qKe0Fp0XddvSj3f9+w4dkvdHZ2VtlCAQAAAEDaXHrpFW8Jaz5SyLuuIjectni1lRfDqr/p7LMX3F+GvCz8I4TjJ0z6TL3iVSF+YXDEA1L6zbUMfmHQI18mvzAYa5/wC4MJZnodLW79aLmHwes6Oo76HOIVAAAAAGTFggUn/zSsjj9CZlfHsjvO8hcGmwg9V78wGO2oSUEQnOfupXj6rtAXsWLVqjdWPLhTUlss+YrrKplRX29ruK6SzrBRv4rrKqPR75JMz5rbJ2fNOvICM0vmeWUAAAAAgIbrFLdLLrvi7+T6tKTG36eE6yqFymrsXzN3t/lnnXXa5UXPx8I6sJa6BxUPztcY4lXjrqvUy9dRDkjmldHRToPrKok+wXWllnddmXRNX5u99uijp5+PeAUAAAAAecLMfNGCUz5nCmdLejql0iCemqd1XVfDPjLzL5x3XtdORc/HwgpY7129ZrGktzedr8N+YTC13xgb44CU4uAXBhObTsZshV8YTDDbGw83g18YfM5kS44+esYx86ZPf5ztEQAAAADklYULT1tuqvyZzO5MuDRovuYp/y8Mqh7X1RD2amvr/Y+i52EhHyFcseKOXSvtfb+RtFtT+ZJb11UKcfALg4lOJ2O2wC8MJpDtBfqFQfebKhU/a+bMmQ+xHYJG2O/jaydO7q+em7vAwrz3XP4C5CV3Ee9TSC9lPwK4CcWgiVnG7XmZNgehnq4qfCYwPd3bZk97+w7P/PG/37mJvm1tLrroogmVyvjzXLYw5tIgnpqnlX5hsPEGwjC0d5x99mk/Lmr+FVLA6l7Z8x1JiyLfdN51lezIG6s13nWVdIaN+tWWfddVjcMyeEn7BpP9zaxZR/K4IETikL/u3s16255I7gyNp6XnPpPzF6B7+a4pjfvkXr5rKka+tWbuuZd7PDXBZpceMelRkz0SKnzUTI+49IBV7dH+ij1y8J6VP9y6dFo/q3Z5cXe75JLv/43M/1MvvReLd12lMGq96fOb6ce///3971i6dGkh/9eIwglY3d0971agVUNjx3UV12lwXSURC66rpLK9OK4rk6/tr+j0uUcddR/bHohKsgIW4lUxxATEKwSErMYo4hW5V3e+9Ul6UNJv5brfpd8G0n0yv/eBp599QFfyS8tl4ZJLLp8pBd93107xZSmuq0brjAhn/eCZZy44r4g5VygBa926de0vbNj8M5kOa/ie4bpKdbHDdRX3JgjXVeRYsndd9crsUz++vecLRf1fOiA/JCdgIV4VQ1BAvEJAyGqMIl6Re7Hl2xa57pHpbrmtl+lu9+qvH3zmufsQtorJxRd/942SXSvpgOazFNdVhFojCk9L41575pmdTxQt39qKFOzzG7Z83AaIV7iu4joNrqskYsF1lVS2F+hdV9I9gQWnzpp15E/Z3kCZCh7EqywEBcQrBISsxijiFbkXa76Nl+mNkt6obW9TMAt00Ct26bUlN93vrjvd/M7A7c6Nm8KfPX7pzI2s0/lm0aJTf3nRRV1vD4LqNZLeFi1DW8t11XQczZ//FWa9n5d0RtHyrTAOrO7u2/dT0H+3pB3qvmcJC1djtorrKvVFF9fV9q/iukpy9Ne1oJxfCcJPzJzJxgviI34HFuJVMQQFxCsEhKzGKOIVuZfVOHVp65vo75bpdpPfFlT9jvv3vf1u4WjPJV1dXRM3bapeLOnExjIU11XEWqPZONwDvefs0+evKVKeFUbAumXVmkvMfQGuq7hOg+sqiVhwXSWV7YVyXT0lt7M7Oqb/kK0MxE28AhbiVTEKPMQrBISsxijiFbmX1TgdteHnJd0h0+3muj0Y199z/1c7nmeHkJf1zu3ii7/3H2b2T2NnJ66rCHVGzDHYuof+cN/bi/Sak0IIWDevWvWWigc/CaWgsTuC6yr1OHBdZbcJwXWV8HaungXFbqn228K5c498mC0MJEF8AhbiVTEKPMQrBISsxijiFbmX1ThtuOGqSfe4rEfuK6qV3hV/+J85z7BjyJZLLvne6aHrAo34yiJcV9FqjQTicF901lkLLilKbuVewHJ36161ZrWkdzV2R3BdJRkLrqshLWT9q1KO6yqz0b/1o36TPnXHHWs+z4vaIUniEbAQr4pR4CFeISBkNUYRr8i9rMZpLA1XZfqp3G510839Eyev+uN/v3MTO4j0ufjiK+a5/HuSJjZ1j3FdJR3Dw+1t4WsWLlxYiNee5F7A6l7Zc5JLV9R/R3BdpR4HrqvsFmtcVwlv5epZUPyPW1/UPn01WxVImuYFLMSrYhR4rSleFU9QQLwq8n1CvMpDvqVyTZtkvsbdVoQKrv3DedPvYjeRHpdc8r23h67rJO2G6ypqrZF8HK7w388+c+G/FiGnci1gdXd3T/Cg/W5JU+u7I7iukowF19WQFnBdJZDthXJdyaUV/e02f9706Y+zRYE0aE7AQrwqRoGHeIWAkNUYRbwi97Iao6le030mLQvNrtfmtpUPfmfaZnYXyXLJJVccGnr1BskOSDolcF1FacYlaVN/m792ycKFf8h7PgV5Ds6t/RMaSbzyoUpGyuLViKeMv5yPdpp4+yQvritv6tLi6ROPpZkmXVcee69GCr2c4tUofbL9o36X/u0nd6yZiXgFZS14EK+yKPAQrxAQshqjiFfkXlZjNPVrerVLf2XuN9j4vqcPWnLTtQctuWnhqz66bEf2CsmwcOHJd1f7g3eY9IskyzWPo+EYXFfFEa8GRTux0mufLkI+5daB1d3dvZcH7fdKmjL6HcF1lWQsuK6GtIDrKoFsL5brSq4/hJXglDkzj1zLlgTSJpoDC/GqGAUe4hUCQlZjFPGK3MtqjObqhmyWbIUUXhuYfvjbb878E7uOePnWt7pe0dbef72kt8WZDriuojRT8z0s7h78+dlnn/bjPOdRbh1YobX/h4aKV7iuon4znr7AdZXdIo3rKqtRN/Sj5ePG2VsQr6DMBQ/iVRYFHuIVAkJWYxTxitzLaozm7oZMkHyOZOeFbn88aMmNyw/64E3nHPCh63ZhLxEPZ5/d+XRbJZwh1+q4yjVcVw2vuhrlJcJmFv63u+f6NVO5DO6W1avfpNDulFSpfUdwXSUZC66rIS3gukog2wvmupJcps9seP6Zf+3s7KyyBYGsaMyBhXhVjAIP8QoBIasxinhF7mU1Rgt1Q7ZIdpPcL5n0zLPXrL+ys5fdSHNccsklk0Nv+6Gk6biu0hxN9f36lZmdfOaZ87+f1/zJp4C1sudHkjqGdyy/MJh6HFn+wmDkJvmFwVjiaAnXVV0fveCmM2bPmnEVWw7ImvoFLMSrYhR4iFcICFmNU8Qrci+rMVroG/KMZFea69IHzp++RrIyDqRU6OrqGvfii/3fl3RMvBnELwzGUFTd19//4mFLlizpy2Pu5O4RwltWrXqXUhKvxrT7eaRvxZN4dZ3Gk+uLhi4zvj5p/gnReFxX7oln15hfz9R15UlkewM2Xs9k1NX66J6wqrcjXkHZCx7EqywKPMQrBISsxiniFbmX1RgtfO7tIvliN1990JIVdx+0ZPk/v/LDy/dn39E4nZ2dvVu2vNBpZlfGV0nkRbyq+9UkKVSakYqqV7e3Tzojr7mTOwfWLSt7Vsr1F0lPdLiuRmkN11V2izOuq6xG3fCPTN+fOL7t7GnTpm1gmwF5YWwHFuJVMQo8xCsEhKzGKeIVuZfVGC1t7oUy3aLQzv/dM8/+r67kVRON0NXVVXnxxf6LJZ0WPXtwXSVQVP1xypTxh3R2dm7KW87kyoHV3b16VtLiVa5dV3VdMq6rJPoE15USEq8K6bqqyvW3HbNmnIx4BWUveBCvsijwEK8QELIap4hX5F5WY7TUuRd4qOku75q6y073TF1ywycPWdy9G3uS+ujs7KxOmtS2yN2/H62SwHU1ZrTRzr/fCy/0fjiPOZMbAcvdzS34dFKl65iJl4dfGPR4UjZSX2T5C4ORm+QXBmPpE08ty+o+LLXRP/yCXzD5cR0dM77AlgLKDuJVFv2GeIWAkNU4Rbwi97Iao+XOvSH99kq5fbZXvX+cunh518Hn3DCd3cbYdHZ2VidPbj9N0hX1Z070/5E8/sqqEL8wGOWsf3/ZZZftmLd8yY2A1b1qzYmSvwXXVbITP66rIVeD6yqNLGtojvW0Rv/wP/82sMo7jj76qP9jKwFlL3oQr7Io8BCvEBCyEhQQr8i9rMZoS4lXAxkv6cTQ7Kapi5ffeeDiG05939LuNvYqI9PZ2VndsuWFhe52Da6rKM0kUlTttmWLfyJvuZKLd2B1dXVVdt1j71+ZdGiq0ybvukp9AeJdV9u/yruukt7ieCPnXm3ed3xHR8cTAsgxtd+BVTbxKp9FD+JVtGtCvMpaUGit3CuugIV4VbT7FKHfHpTbl3ptywWPnD/3RXY0I+oC4158sXqVy+fEWWcksLolnvopvetqrNY39LX7Kz+0cOGf8pIjuXBg7b7nPqfHLV7huhrlqnBdJZ1dY369fK6rOlvLn+tKks7fc/ddjkS8glYoehCvsijwEK8QELISFBCvyL2sxijiVQ2myvxL7Wr//dTFy5fu+5EVu7KHGU5nZ2fvpEmV4yX9KFJO4bqKO+N3aO+zT+YpRzJ3YC1btmz8hElT7pV0QCpTJq6r1BcfXFfbv4rrKuntTUPCVb+bf3T2rKO+yXYBisJgBxbiVTEKvLIVcohXxRAUEK/IvazGKOJVnS1uMOnbgYL/euD8GX9ghzOY8867dtK48RtulMJ3pZF2uK5GbWqzh/bqc86Z/8c85EbmDqwJk6acpZjEK1xXo1wVrquks2vMr+O6SnrUNSRebQhMxyBeQdlFhGIVd4hXZblHiFdZCwqIV+ReVmMU8apeTNpB0rmhwvunLr7x21M/eP1U9jbbWbJk7ou9WyqzJf086bTDdTVmX0ywiufGhZWpA2vdunXtz2/YfK/kUxPq7DE+xHWVVCy4rrZ/FddV0lsbbzTER6oWzJ0768ifsj2AorHVgVVp6HFXxKus1o/WfHQQ8SprQQHxitzLaowiXjVJn6SLqv32bw99+6hH2PFs5cILv7dPUAnXSJoad8rhumqoqc2mtleeddYpmedmpg6s5zduWtCseIXrapSrwnUVd482/HVcV0mPugbFK9evq216B+IVtAqIV1n1G+IVeZfFOEW8IveyGqOIVzHQLmlxpc3vm7p4+Zdf+cHle7CLkc4665RHqpVwhqTH40w5XFcNd+UEt/6P5yEnMhOwurq6KnJ9MrHOHvHGplRCe+QA4+mLjFxX3lST8fSJx9KMN90RmYpXiWWZRwo3VdfVyB+taG/Xu+fO4D0D0BogXmXVb4hXkMU4Rbwqy1jimvJ1TRnk2iRJ51ZD3T/1nBs/+6qPLtux1efJsxcsuD+shjMlPRuDv6BO8SrZdPeo0cYsXHkjR4f+oW9/+9u7Z50PmQlYu+6xd6ekQxLpbFxXiaRtXVeE6yrmXvXIh+O6GviRX7jn7rt0zJgx4znKJaAopuhJrt8Qryi4sxiniFfkXVbrAuJVgkyR+Sf7tgS/nbrkhk9OPb17Qivva846a8EvTH6CpN4EVzPhuhqlwJUmV6uVj2WdC5kIWEvdA5P+MfbOxnWV+oKD62rwZeC6SnJLE8l1JZeWzj76qLOPOOKIPmQNaAUQr7LqN8QrRIQsxiniFXmX1bqAeJUGJttNbp/VuN5fH7T4xhNbeX9z+unzbzbTOVGq3uK4rmocmaXrygcXuGb2kYsuumjnLPMgEwHrL1atOUbS62PtbFxXiaRtXVdUeNdVk7Hgukph1EVxXcklfWL20TP+DUkDWgXEq6z6DfEKEaFs4zR/9wjxKk/5hniVAa90edeBi5ffdODZNx3aqjPE6aefdomk/xfjSqZ8ua4ScyVEdV0NZaf+/uCjWeZANo8Quv9DbJ2N6yr1xaZ8ritv6qu4rpLczjT+v4Zsi77X3E6ZffSM/6YYgJYp+xCvMuo3xCtEhKzGaesoYYhXeeo3xKssMWm6BeEvpi5e/uXXnHnNlFbc75x++qn/auaXNV/N4LqqebSPXuCa2ccuvPDCzHIvdQHrlpU9HZKOiKWzcV0lkrZ1XRGuK1xXiY+6aI8MStro0gc6OqZ/H0kDKO4o5JLtN8QrRISsxmnr5B7iVZ7WBcSrnNAu6dwtbRPuPmjJDQtbbc9jZj5p0riz3NUdPUtxXY1Y4I7NK6S2D2Z1/1MXsMz975vubFxXqS80uK4GfxXXVZJbmciuK0l6QqG/b87RM5YjaUCrgHiVVb8hXiEiZDVOEa/IuyzGKb+gmEP2dbeLp55zY/crP7j89WohOjs7e/v6rNNM9zdWzUR7NUkyWVUc19XwOcY+8ZWvfGV8Fvc+VQFrxa1r3urSe5rqbFxXiaRtXVeUoesqvsW4oK6rIaHjuqoZ/e8V2rtnzz5qHZIGtAqIV1n1G+IVxWlW4xTxCrIYp+XPu0Lnm/n7qqF+euDiG/79sBO7xrVKri9ZcuqT1Wo4R9KzuK6ijtbIzoy9Jk/e+ZQs7nuqApYp/ETkzsZ1lfoi07zrKp5Y3OMqNgrsuvKksqwUritJ9qBX7f2zZ0+/l60rUKQgICTbb4hXZbmm4o1TxCtyr2zjNB/3qBz95u0mfWrDLjveecDZyw9vlTt51lkL7pGsU1I1Us2D66qZ+eav3d3SvuepCVg337x2X5OOj9TZuK4SSdu6rqgp11VMjwxmuZHAdZXCqGvKdSVJ94T99u45c6Y/wIYMWmbrjXiVUb8hXiEgZDVOEa/IvazGqZc670oiXr38Xya93gK/feo5N3y2VdxYZ5xx6k0y+9eG8hfXVRy8/qKLLjky7fudmoBllfCvtPWFc/V3Nq6r1BcXXFeDv4rrKsntS7OuK0nSXRWrTps798iHkTSgVUC8yqrfEK8QELIap4hX5F5W4xTxqoh5Z1KbTJ/cuMtO6w5cfMNbWmFvdMaiUz4j6cq6ap5Wdl3FW+AqDO3jad/rVASsnp6eKZKf01Bn47pKJG3ruiJcV7iuEh91TbuuZNJPw/62986aNetRJA1oGV6giMtmXUG8QkDISkxAvCL3shqn5X4esazi1ZDP3yDpjlZwY5mZb3qx/UyZ/RrXVeIF7sBWj77ggksOTfNepyJg9VX9TEk719XZuK4yWVhy4boSritcV3VHvy6w6oy5c6c9iaIBQBGXbJGCeEXuZVUUI16Re1mN03LnXiu9K2y7G2vH28r+S4Uf+UjnBnM/TtKzSaU0rqthl2Ru9ldp3ufEBayurq6Kuz5aV2fjukp9YXn5tHlwXWVZZOC6SmHUNe+62saa/t6J7581a9bTiAUAFHHJFneIV+ReVmIC4hW5l9U4Rbwqae69pRr6T6aec8NfqcScccZp98m14OUOwnWVpHglSTL3heed993d0rrHiQtYu+221zGSXonrapSr8mSGT91x4LrCdZXotiU215Uk3W7e1zFv3rsL8SAVQOuAeFWW+4R4lQcxAfGK3MtqnCJelTz3Jsj0pamLb7h6v7NueEVZdyRnnjn/Opn/F66rZDJvWLOmiVbp/2Ba9zdxAcsD+ytcVyNcFa4rXFeJbBdK6bqSpJ+Ma9Osjo6O5xELACjiki3uEK/IvazEBMQrci+rcYp41UK5d0xbRXdOXbz87WXdmfRtefEfJd2eTnXXeq6roZj04a6udN6zlqiAtWLVqtdJek9jGZEX11W8seC6GnI1uK4SmN9K67qSTD+vWHXWjBkznkMsAKCIS7a4Q7wi97ISExCvyL2sxiniVQvm3lSX90xdcsMny7g7WbJkSZ9U6ZT0VLI93aKuq+Hs/eyzW45J494mKmAFVftw/RmRN9dVQr4cXFe4rhLZKpTWdSVJv9zSZtN55xUARVzyxR3iFbmXlZiAeEXuZTVOEa9aNfdMapPrs1MX33D5PouvnVS2LDjzzFMeknR6I52H6ypiHC6ZhUvSuK+JCVjLly+f7Gbz68sIXFfNDJ+648B1hesq0WUwZtfV1gN+bd43/bjp058SAFDEJVrcIV6Re1mJCYhX5F5W4xTxityTJJ06Tu1r91+87JVly4Yzz5x/nWRfibeXPdHbUyDX1RCXjKadf/7FhyR9TxMTsNonTDpJ8p1GvxO4rpKcpHBdbf8qrqukR13sritJ+q28bUZHR8cTiAUAFHHJFneIV+ReVmIC4hW5l9U4Rbwi9wbxpoqCHx+w5Pojy5YVO+zQ/neSrWu+ukveddWQeJUD19WQICwIlLgLKzEBy90/OPqdwHXVbNrWFQeuK1xXiS6BCbiuJJn0SDUIZ8yePe0xxAIAirhkizvEK3IvKzEB8Yrcy2qcIl6RezXz7RUW2g0HLr7hL8uUGZ2dnb1mtkDSi9F7GNfV8AO9Vg4tuuiiiyYkeT8TEbBuuWX1myR7axN2qHhueIquq5qnw3WV3aSN6yrBTB+jxeZcV5L0nIc++wMzZ/4OsQCAIi7Z4g7xitzLSkxAvCL3shqniFfk3qj51ibXV6cuvv48Le1uK0tvnnHGqb8x0983Xhvhuhp+4KhB7NrXZ8cneS8TEbDCQB9O45HBPLmuoj8yiOsq1j7BdZXC8peM62obLwbSnNmzj/o5YgEARVyyxR3iFbmXlZiAeEXuZTVOEa/Ivfryzd0WH/jwlv97zZnXTClLr55++mlfk3Q9rqsINdoorquhmCX7GGHsAlZ3d/cOJp2c9EDEdTVCPuG6wnWVSKaP0WLzritJ6jMPTjj66Bk9iAUAFHHJFneIV+ReVmIC4hW5l9U4Rbwi9xrOt6O3VCas2e+D1+5bhp41M69UqudIerqhmgfXVYNR23u+9a1LXp/UfYxdwKqq/TS5dkzqjuO6GuGKcF3hukp06UvUdSVJoUzzOzqOvB6xAIAiLtniDvGK3MtKTEC8IveyGqeIV+RetHxz+Rsq1fbVB515/WvK0MOLFi162E0frfse4LqK1Anuvjipe5jAI4R+dlJ3HNfVCPmE6wrXVSKZPkaL8biuXuJvZs+a0YVYAEARxzXFf02IV3kQExCvyL2sxiniFbnXdL4dFFZs7YHnLH9nGXr67DPmf1dS16iFDa6rZjthflIvc49VwLpp5cpDTToC11XzaVvXFeG6wnWV6LKXuOvqpS99c/bRM/4bsQCAIi7ZAg/xitzLSkxAvCL3shqniFfkXmz59grJbzzw7OXvL0OPt1WqH5b0p5r9j+sqjk7Ypb8/mJPEvYtVwArCYCGuq+QmJVxX27+K6yqpTB+jxXhdV5Ls2o0bninVT/UCsJHOY4GHeEXuZSUmIF6Re1mNU8Qrci/2fJss82VTFy8/pui9vmjRoqfcwr/BdTX0wPiCMNOCJO5dEN9gcJP85MQ7G9dVZpMjrivhuor3jv4k7N90cmdnZxXBAIAiLrkNN+IVuZeVmIB4Re5lNU4Rr8i9xPJtvLt//4Czl59Q9N4/+4yFl0p+XRK3okVdV0Pz7ejzzvvubnFfV2wC1s0rV75P0tREOxvXVZKpO/aEh+sqgfmtFV1XkqTftgXhnLlz576IYABAEZfchhvxitzLSkxAvCL3shqniFfkXuL5Ns7Mv3fgOctPK/xdCCt/KdeGFCqqpAvcaNkVs+tqSNPtQdB/UtztxiZgWRgsSKyzcV1lNjHiuhKuq/iz/MmKVWfNnDnzTwgGABRxyW24Ea/IvayKO8Qrci+rcYp4Re6llm9tkl9ywNnXzy/ynTj77NN+L9mn0r2r5XVdDe0Lly+Mu+1YBKy1a9dOlOm4RDob11WSqTv2ZIfrKoFlxiMdVgLXlST1uVnnrFmz7kcwAKCIS27DzS8ock1ZFXeIV+ReJmKCEK/IvQzGaWBm35l6zvUnF/mOPPTQ/V+R7LZ0qszSu66Gtvq288676LWxJl0cjWzqrR4jaadYOxvXVWaTIq4rZe+6SvbHMBTFdRVLHObnzpk1vRvBAIAiLrkNd+sKPcUq8BCvinyfEK/yJiYgXpF7WY1Tr7h0ydSzb5hX1LuydOnSUPIPSaomd0dbx3U1rPyrVGJ91DSeRwg9XBBrZ+O6SjJ1x57ocF0lsMQU33XVfBz29dmzjvomggEARVxyG27EK3Ivq+IO8Yrcy2qMIl6Re1mN05dP0u7m3z/wnGVHF/XunHXWgl9I9s1GrhzXVZ194b5g6w/+xUPTAtaKFSv2lGxGLJ2N6yqzCRHXlXBdJTri7JY9d9/54wgGABRxyW24Ea/IvayKO8Qrci+rMYp4Re5lNU6HnWS8ZFcdsPj6dxf1Lm3ZYp+S9ER8dzMHrquXA/ZsMntroAeed97F74nrnM07sCrtJ0hqa7qzcV0lnbqjT3K4rhJYXnBdbcUeNO89+YgjjuhDNABAQEhmw414Re5lVdwhXpF7WY1RxCtyL6txOuJJJprruoPOvv6NRbxTH/7wac+Y6Z/jqTJz4rryjFxXQwINAovt1wibFrBMdmxTnY3rKrPJENeVcF0lPOJc2lCxYE5HR8cTAgAEhEQ23IhX5F5WxR3iFbmX1RhFvCL3shqnY55kp9C07KCzfnRgEe/YH/7w229JWhf9TuK6GkFwOXbp0qWxvL6qqUa6u7t3k/TeyJ2N6yrp1B19gsN1lcDSgutqSIsfmjXr/esRDQAQEJLZcCNekXtcU9LXhHiVNzEB8Yrcy2qc1n2SfcMgWLbfWTe8omh3bcAL3cPGayNcV6MILnvvt9/Ud8QRR1MCVlXBPI3x+CCuqxpX1MquqwFjO5PFAddVesus+5fnHH3UZYgGABTbyWy4Ea/IvawKPMQrci+rMYp4Re5lNU4bPsnr2gL/4WEndo0r2t0766yF6yS7BNdVA3e/DsElDHV8HLEEzX3ZTmi4s3FdJZ26o09uWbuuHNdVcstbXlxXkuS3b9zw7N8hGgAgICSz4Ua8IveyKvAQr8i9rMYo4hW5l9U49ajfes+GXXYo6C+QV/5J0sb6Clzhuqov8hPj+DXCyAJWd3f3zm56f92djesqs0kQ15Vy6bpKTURL03W1VaV8POyvnNDZ2dmLcACAgBD/hhvxitzLqsBDvCL3shqjiFfkXlbjtMmTuJ1x4DnXf6Jod/Kss055RO5fGrPAw3XVSOT7XXDBd45oNq7IAlZobXPlGldXyLiukk7d0Sc2XFcJLCm4rka4sqoqvmDu3CMfRjgAQECIf8ONeEXuZVXgIV6Re1mNUcQrci+rcRrbSf6/qWffMK9od9Ss73OSHq9d4ArXVbTIm36MMGhi1Bw3Zsi4rjKbLHBdCddVasvrwCuzf549c+ZNCAcACAjxb7gRr8i9rAo8xCtyL6sxinhF7mU1TmM9SeDmlx549nWHFumunnXWWS+4+WeG1Ty4rprIFctGwLr22nWTZDpq1M7GdZV06o4+qeG6SmA5wXU12pWZdOtP7ljzeYQDAASE+DfciFfkXlYFHr+gyDVlNUYRr8i9rNaERE4yRVb54as+umzHIt3dsG/T/0i6H9eVRhBcGo7lVd/85oVvaibWSALWxB1e7JBrEq6rGleE6wrXVSIZVkefpOq6GtbqE4GFp2796VkAgDg33IhXFHFZFXitlXvFFRQQr4p2nxCv8pZvqV3TIX2bg4ul5l/knRZLlizpk/uncF3FlydBUDmumXijPkI4G9dVjSvCdYXrSknGkSfX1aAOdzc7Y9asWY9SpgMgIsS74Ua8Iu+yKvAQr8i9rMYo4hW5l9UYTeMkfsyBi5cX6qXuZ5214PuS3ZlJT5fDdTUIM3U08/2g8cHjJmlm43eh5K4rz2aSwHWlhMQrXFd1teqSyb88Z9aMHyEcACAilKcozvYeIV5lnW+IV+ReVmMU8Yrcy2qMepoX9Nn9z77hPUW522bmkv9bihXmgFtSDtfVkHx+ywUXXLBn1O83LGB1d/e8RdLe9d8FXFdJ9Qmuq9SyrO7DWsh19dI/fz1x4rh/oCgFQESIf8PtLXmPEK+yLvAQr8i9rMYo4hW5l9UYTf3mtAXm3933Iyt2LcpdP/vshdea6Sep9PKgF2snWtHVGWjs1WXg3nZU5C83fNGmWfXfBVxXSfQJrivhukp1+fGR/vliWPETp02bthnxAAARId4Nd2tatxCvsu43xCtyL6sxinhF7mU1RjO7Ofu19fWdX7A1+j8Sr7qb+0W45u50gq6roadwWeTHCCMIWN6B6yrx1B19IsN1lUaW1X1YatNLflxX2/5pfz935szfIB4AICLEu+FuzfdeIV5lXeAhXpF7XFMS14R4lfXcluPccx13wDnLzilKBkRxYeG6GvEUM7u6uipR2mlIwFq9evUuCvW2tAYCrqshV4PrKqHpNk+uK284xJRdVy9xy+yjp38N8QCAoifeDTfiFWRR4CFeMedlJSggXpF7WY3RfNwck33pwLOvO7QomRCG/unYq+4WcV0NYZenn970tijtNSRgben3mZLaYrhNjXc2rqvsJqlSu648Ute1qutq2582mCqLt77QEABasZBLZsONeEXuZVHgIV6Rd1kJCohX5F5WYzRXN2eSrHLZ4YvXtRchG845Z9E1ktbF0rut57oahJmOjtJm0OCIOjrpQYDrasjV4LpKaKrFdTVmqyOcxFwf7+g48rcICACtLSDEu+FGvCL38lbglS/vEK/ylG+IV+ReVmM0lzfnLU/6E58sSlaY+Wearrpb03U15ENPVsBautQDKZiZZDmP62rIBJax6ypz8SqxLMN1NWqro5/kxo6OGRdSIABAfBtuxCsKuawKvNb5pUvEqzwJCohX5F5WYzTXN+dT+y3+0RuKkBkPPfS7ayTdHalnW9x1NeTDt1xwwQV7Ntp+3QLWe96z+s2S75nEAMB1NeRqcuK6yuSRQVxXKS853shJnu5v0xk8OggA8W24Ea8o5LIq8JxxSt5l0G+IV+ReVmM09zdnXEXBxUV4lHDp0qWhmb7ScJ1YctfVqC3WvuygWh03o9Fz1C1geeDTkijncV0NmbxwXSWUZbiuRm21jpO4/G/nHXXUI5TsABDPhhvxikIuqwKvdXIP8SpPggK/oMg1ZTVGvShd/2dP+RN/U4RQg6D6HZceb6zsKrfryiOkn5m/t+G+b+DY9+K6SmZCwHUlXFepLjcNua5einzV7KOPuoiSHQDi2XAjXlHIZVXgIV5BFuO0/HlXjnxDvMrBHfiX/Zbc+Oq8x3nGGWdslvs36+t+XFejfPi+Rs9Xl4C1dKkHcr0rsYvEdZXdxITrSpkN60K4riRJWxTaB3l0EADi2XAjXlHIZVXgIV6Re1mMU8Qr8i6rMVrIG8DYKhcAAIAASURBVDMhCKtfK0Kg48bpq5I2jl524boa/UN/1de//u39GzlvXQLWO9976xslvSL2i8R1lUb6jvp1XFcZDetiuK5e4jNz5sy4m7IdABCvol0T4lUeCjzEK3KvbOM0H/cI8SqvuVbcG2PSUQecveyEvMe5aNGipyRdUrvrcV3V+2Fbm72nkXMH9R0UvDf2i8R1ld2khOtKGQ7roriuXuLuQP2fY7MGAIhX0a4J8SoPBR7iFbmX1Tgt9y9dIl7lKdfKlXdm9pVXfXTZjrnPntC/9HKH47qKlJPujT1GWN87sEJ/X2wXiesq20kJ11V2wzqaISu+PvEI3ROGH+no6NhC6Q7Q2iBeRbsmxKs8FHiIV+ReVuO03JYuxKu89llp8m7vvs32qbwHuXjxonvlujlT11XNg/LtuhqImRoySwVjDzQ3mb07lovEdRXn1UT6Kq6rTIZ10VxXWycT6Ttz5szqpnQHaG0Qr6JdE+JVHgo8xCtyL6txWu7cQ7zimlLirw468/rXFCDO/0nJjlBHMVkM19UQDrnwwgv3qffgMQWsFatWvV7Sbk1dZAu7ruKb5AvquhoSOq6rpJeYpl1X27AXKkH4T5TuAK0N4lW0a0K8yoOYgHhF7mU1ThGvIItx6iXsM2+vBsr9q0wefnj//5P0x5Sqy1FueXFcV0OpVoO/qPfYMQWsoN/e29RFFtJ1FU8s7hm/qD0Pritv+iqi9wmuqybupv/brFmzHmW7AcBmm810Y9eEeJWH4g7xitzLapwiXpF7WYzTUopXL/3XvAPOuv7IPMe6dOm0fknfSu1ulsN1NZS6Naex34Fl/p5IF1lo11VMjwxmORnhulJmw7qwrquXPrd7Xtzw7Fcp3wFaF8SraNeEeJWH4g7xitzLapwiXpF7ZRunWY1RH6pH/H9aujTIc8z9/fqWpP7EK+4Sua6GjJO6f4kwqOMC3pZsP+K6ijUBcF0pw2FdcNfVVioKP97Z2dnL8gnQqhtHirgo14R4lYfiDvGK3MtqnCJekXtZjdNy5Z7X7rQ/O/Dht52S57g/9KFFD0v6v8TuYjldVwM59CtfuayuX50cVcBatmrV7pKmJtOPuK5iTwBcV8psWBfcdfUSJl3b0THzekp4gNYE8SraNSFe5aG4Q7wi97Iap4hX5F5W47R17F3u+vRhJ3aNy3eUwTcTqbhL6roa2nnt7X1vqevA0T6c0O9vTaYfcV3FmgC4rpThsC6F62obfWFVf00JD9CaIF5FuybEqzwUd4hX5F5W4xTxitzLapyW+b1XNTnw+Z0nn5nn+B9++Lc3S3ootjtYftfVoNaCQG+t59hRBayqD398ENdVEhMUrqtIfYLrKu67ed7cuUfdRxkP0HogXkW7JsSrPBR3iFfkXlbjFPGK3MtqnLaceCVJMrdP7ffxrol5vYalS5eGki6PpeJuDdfVoNbc7G31fGdUAcuCwQJWHlxXg1rK0nUlXFe4rpIe0iO0Gq/r6iU2mLd/mjIeoPVAvIp2TYhXeSjuEK/IvazGKeIVuZfVOG1N8Wob+1Se3+GsnO+pLmrq7rWY62og5t68A0uuw+Ppx5j9QXlwXWW54cd1pcyGdflcVy8tHP81e/a0xyjlAVoLxKto14R4lYfiDvGK3MtqnCJekXtZjdOWFq+2Hm/6xzy7sBYvXnSvpB9HqtFa0HU18I/uOvCCCy7Yc6zvjyhgLV+58iBJezTvukrgkcGMBjyuK+G6SnxIj9BqMq6rl3iiYtUvUsoDtBaIV9GuCfEqD8Ud4hW5l9U4Rbwi97Iap4hX29g72DB5cb6vzC5p6M61sOtq6B/DsP2IsdoYUcCqhHobrqshExOuq7TSeMxwcV3F2Rf2Hx0dHc9TzgO0DohX0a4J8SoPxR3iFbmX1ThFvCL3shqniFeDv2x/k+dfJDTr/Z6kLbiuxmitxh/DcOzHCINRTnJEtH7EdRVrn+C6UobDusyuq5ca+N2LG545j3IeoHVAvIp2TYhXeSjuEK/IvazGKeIVuZfVOEW8qsF+L+w0pTOv13f22Wc/HUo/aqwUbl3X1ZAPxnyR+2jvwDq88fhxXcXaJ7iulNmwLr3r6qUZwD/d2dnZS0kPABRxWRcp5btPiFfRrgnxKm9iAuIVuZfVOEW8GgmT/63kltsLNbui/tva2q6rwd1mbxmzfB3xk1Cvrz9+XFex9gmuK2U4rMvvutrO71984blLKcgBWofm1jbEK4q4rIo7xCtyL6txinhF7mU1ThGvxuidNx5w9rLpub3Y6qYfSdo4ejGJ66rGQXt++9vf3n20I2oKWMuXr9lD0u5pDi5cV9u/iusqo2HdKq6rl9sz3FcALQTiVePXhHiVh+IO8Yrcy2qcIl6Re1mNU8SrujD7m7xe75IlS16U2Q0j31JcVyNdQV+fv360o2o7sNr6X9+UEBC1s3Fd4brKZli3kuvqJf6wacMzF1PSA7QGiFeNXxPiVR6KO8Qrci+rcYp4Re5lNU4Rrxroqhn7Lf7RG3J74aF+gOuq8SsIQztstKOD2n/0w9IYWLiutn8V11VGw7rFXFcvYabP4L4CaA0Qrxq/JsSrPBR3iFfkXlbjFPGK3MtqnCJeNVrSVKr6YF6vva9vwnWSNiV5f8viuhpcp0YQsHzEL+G6irVPcF2lMG3juho2KcgfMu//DmU9QPlBvGr8mhCv8lDcIV6Re1mNU8Qrci+rcYp4FekcZgteddqyHfN4/R/5SOcGyZfjumr0CiI8QmiqJWDhuoq1T3BdJXBX62yxRV1XAxTTL3R0dGyhtAcoN4hXXFMxizvEK3IvKzEB8Yrcy2qcIl41wZTeCXZKjrviB6llS4FdV0OIIGD5wEcIcV3FmgC4rlKYsnPquqrjYpOb6l9WTJ/ZOGnctyntAcoN4lW0aypWgYd4VeT7hHiVNzEB8Yrcy2qcIl41i5l/OL99seU6SX2JV9uFd10NYucLLrhgv5E+HCZg3Xzzzfu6tEucF4vraqiGkHgKjxk6rqukl43GLzZh19VL/zqvc9q0DZT3AOUF8SraNSFeZV3cIV6Re1mNUcQrci+rcYp4FVMvvvHAM69/Rx77Y8mSJc9JWpNoppTDdTWI/v7KiO/BGiZghdb+elxXMScArqsUputiu64SE68GN95XserXKe8BygviVbRrQrzKurhDvCL3shqjiFfkXlbjFPEqVgI/J6/9YubLEqm2o1uy4snWeF1Xg29nMPJ7sIY/QujVQ2Mt43Fdta7rqsZhuK7SisNrhGNXdHR0/JESH6CcIF5FuybEq6yLO8Qrci+rMYp4Re5lNU4Rr2I/v+n4fRZfOymPfVOt+o9iz5ISuq4G51MwoiZV4x1YdnBsQxLXVWu7rjzuu9pAn+C6qjXYv0iJD1BOEK+iXRPiVdbFHeIVuZfVGEW8IveyGqeIVwl1646VsG1eHvvngx888y53PRBLtV1i19WQNkbUpGo4sKILWLiuxtQQ0ukTXFcpLhf5dl0N+PSW2bOP+jllPkAJSxbEq0jXhHjFNaV1TYhXeRMTEK/IvazGKeJVwsEsyHFXXd90hpTcdTWEV470wXABy/zgpoYjritcV4lO0x73R/H1SQ5dV9uHdci7rwDKWLIgXkW6JsSrrAs8xCtyL6sxinhF7mU1ThGvksZMM6ae/qO9ctpd10euE1vGdTWopX27urrG1fo8GJKEJumgSGU8ritcV4mkcB0tRvsovj7JqetqAI/utdfu11LqA5Rt48hGOso1IV5lXeAhXpF7WY1RxCtyL6txiniVEm3VSnBKHgPbuHHSLZI2NZwdreW6GthS5emnNx5Y65hBAtYtt9yyj6QJDZ8A1xWuq0SnaFxXNVuut3H3bx1xxBF9lPsAZdo4spGOck2IV1kXeIhX5F5WYxTxitzLapwiXqWJmZ+ax7g+8YnOTWZaW3ed2Jquq0F/qFbDmsaqIQ6sysENnQDXFa6rRFK4jhZxXdV7dGhWvZByH6BMG0c20lGuCfEq6wIP8Yrcy2qMIl6Re1mNU8SrDDjiwLOXH5TPvtOtdWVG67quBp2/UlFNbWqQgBWav7LuE+C6wnWV6PSM66pmyw00vu2wZbNnz/49JT8AIF5xn7Ir8BCvyL2sxijiFbmX1ThFvMqK0MNj8hhXEKgb19UoLQ0tud3GdmAFZgeNeQJcV7iuEknhOlrEddVwD7p0HkU7ACBecZ+yK/D4BUWuKasxinhF7mW1JiBeZYlZeGwe46pWt/xY0sbGUqa1XFdDGNuBJa99EK6r7V/HdZXk1IzrasSki6YvPrx543PXCwBaHMQr7lNWBV5r5V5xBQXEq6LdJ8SrvOVbuXPPC5dw9q4DF9+wd96iWrJkSZ+kNfUXkXlxXcUXy1iuqyHUfDpw8DuwTFNrngDXldxxXcV7V+tssWVdVy8lXlM9+N3Ozs4qxTtAK4N4xX3KqsBDvCL3shqjiFfkXlZjFPEqJwRe9Q/kMTDT9vdgRXwRVjyVdkOuK49/dNTX7NSaN3dIq/sMOwGuK1xXiU7LuK5qJ51H1RdfJgzCyyjeAVoZxCvuU1YFHuIVuZfVGEW8IveyGqOIV7nCPJePEYah3drEzw/Gk5Wefk57tGZ3+eIXuyYO/WMw5N974rqKpCHE3yc5c10lEweuq9qJF0tW/XLe0Uf/kgIeAFpBQCiumIB4VfT7hHiVJzEB8Yrcy2qMIl7lkPfus/jaSXkLymzzOkkbks6jPLmuvIlmJ07cuOfQv70sYC1bdvuOLk1uru9wXTXdJzl1XaUmoqXqupLK5roaAO4rgJbGW/OqEa8y7jfEK3IvqzGKeEXuZTVGEa9yyoSgGvxF3oJasmRJn5nWJVlhFtx1NahPzMJh7zJ7WcAaN65vr+gx47qKpU9wXSWYXWO0Wg7X1UuEFat+jwIeoFVpzUcHEa+yLvAQr8g9rimJa0K8ynpua63c8/IknAKzmTnt5TuSyKGyuK6GzH97Df207aX/qFq4l3k2A9djacab/nqmrqtEpsG8CFdjtFgA11Vii54nkFXu3R2zO/5IEQ/QiiBecY+yKPAQr8i9rAQFxCtyL6sxinhVAHIqYAV3SGHy2VhI19VQbJiAFQw4fu/GT4Drquk+wXWVYHaN0Wq5XFcDR/X3KeIBWhHEK8iiwEO8Yn7ISlBAvCL3shqjiFcFuapDD1587QH56+vg9kSzseCuq8F9FY4sYJmG27OSHLS860oJiVe866quVsvzrquhhIFXr6U0A2g5OaIlr6l4++18BIx4Fe2aEK/yJCggXpF7WY1RxKsi5V61GhyVt8iWLFnwqKSHEqn6C/quq5EIgtEcWPI9mz1BQ5MLrqsYe7TBPsnykUFcV0ll1Uvf65k9e/ZjFPMArQTiFfcpbwVe+fIO8SpP+YZ4Re5lNUYRr4qXe3ZkHiM0sztizcQSua4GEoY28kvc5WM5sHBdNd0nibmu6mwtNdeVNxwirqt4+iJwv5oCBICCu+zXhHiVhwLPWybvEK/yJCggXpF7WY1RxKsi5p6bvyefcYZ3RL26sruuBmLmozmwtGeSZT2uq7h7tMHWcF1ltCQl77oaSF/Ff0hBD9AqIF5xn7Iq8FrHxoV4lad+4xcUuaasxijiVYFzb9+pH7x+at4ijeLAahXX1RBGFrDctEsSgxXXlXBdpboU5Mh1pXRcV9tnQv302KOPfpCiHqAlyuqWvCbEqzwUeK2Te4hXeRIUWsAp4uUdS8XKtfLnXguJV5KksL/67rxFG4a9v1Qz8lOJXVdD2HnoHwa+xH3HuMt6XFdx92iDreG6ymg58mbepR8Zk/2Qoh6gFUC84j5lVeAhXkEW4xTxijkvqzGKeFWK3DPLnYC1ZMmS5yT9IdKVld91NZAdurq6KgP/MPARwp3iGqi4roTrKtVloIVdVwPnZtf1bJ0BoIxFD+JVHgo8xCtyL4txinhF3mU1RhGvSpR7OX0Plv+ioXq1oUcGE+jd9FxXg0rcZ555ZoeBfxgoYO1YFtdV5uJVnLes0dZwXWW0FGXjuto+tPXUT36y9qcUwgBQto0n4lUeCjzEK3KvbOM0H/cI8SqvuYZ4Varccx26z+Jrd8tb9GbBL+u+qtZyXQ1tZaeBfwskaenSpYGkHZq+yJy4rjJ5ZBDXVcpLAK6rQY2Gumnp0qUhG0MAKNPGE/EqDwUe4hW5l9U4LfcvXSJe5SnXyj3ntbR4tRULqsERObyIX41Zr7am62p7Ky6FYWXHgZ8FkvSud71riuRBU5MJrqsYb1mDreG6ymgZyth1pQEj2/1GimEAKNPGE/EqDwUe4hW5l9U4LbelC/GKa0ov17hPkmTmh+fw3vxy1CtqZdfV4PMPd2CF4bgdI18krquEpjxcV2O22uquK9/eerVqKyiIAaAsG0/EqzwUxYhX5F5W47TcuYd4lbd8K2/eIV4NxN6StyvZZZfJ97n0Iq6rmuXtgDy24Q4sKdwp0iSC6yrGW9Zga7iuMlqCcuS62t76+mOOmfkQRTEAlGHjiXiVh+IO8Yrcy2qcIl5BFuMU8arsc565cidgdXZ2Vk26u/FLbAnX1YBctp0H/nurgNUW7tjQReK6Smi6w3U1Zqu4roa17tJNbG0AoAwbT8SrPBR3iFfkXlbjFPGK3MtinCJetUTemabm8UXuoXRPY0Vsa7iuBhIEYS0HVmWnuicQXFcx3rIGW8vSdTXKR7iuku4LjS5Lm3oojAGg6BtPxKs8FHeIV+ReVuMU8YrcK9s4zWqMIl6NRJvbm3N4cffhuhorp2s8QhiE4cQxL9IzTj5cVwmlcB0tRjNkxdcnuK5GbX1cRWtZrgGgyBtPxKs8FHeIV+ReVuMU8Yrcy2qcliv3EK/GIAxy9xihud+fZh8UxXU1pJcGaVVtkhSatVuik4c3/dW8uK5SH4w5dl0lPkF5msO5RstZCleqe2TfP2vWrEcpkAGgqBtPxKs8FHeIV+ReVuMU8Yrcy2qcYu9qubwL/PW5u0Kv3GsWJn793nSzMbuuGqN94D/ahvzfBCaP5l1XmQ2ArF1XiU+zHvdH8cWS5eOCDZzAE+2KsVs38fggABR344l4lYfiDvGK3MtqnCJekXtZjVPee9WSeed6bf7uW9t9Zr2JXn/zrqtUy9taDBKwAkkyG/xH94xf1J6Hd11501cRvU9411VGS07O33VV63DTGopkACjixhPxKg/FHeIVuZfVOEW8IveyGqeIVy28NzlUcstTRB/+8GnPSPZkElVm0d51NTLhcAeWhdbu5jFOHLiuIsWC6yqj5aZYrquBRwVeQcACgMIVPIhXeSjuWkm8sptl2fxir7tPNte45lrJrt5K5sxhihlhu8h8vNx3lrSHZHtL2lPSxKRyD/EqD/Nb68x7vPeqoRlth33OuHG/Ry7SQ/m63vA+yXbDdTVSK177EULedZXUkOFdV2O2yruuGmp9wJHPzp49/TcUywBQpE0n4lUeirsWc16Zr3ngf6Z/jvEJL3HQ2Sv2VKX6GrkdYtKrQ9PrTXq7pF2byT3EqzzMb60z7yFeNU5bpf+1Ut4ELN0n+Tti773ivetqpDiGC1ihhe3Nu+lwXUWKBddVRlNYcV1XA/i5meEZBoDCbDoRr/JQ3PHYIMDvvjX9cUmPS1o18O8Hn7PiEK+Eb5fr7ZKOlMZ6Zw7iVb7mt9aZ9xCvInOolI0jdxQejL33Cu+6GogNel97myR5aO1mGSQarqsUhi2uq5otF9d1NfCvP2MLCgBF2XQiXuWhuGtR8YoXxECdPHDB9Hsl3SvpUkk68OzlBwUVzZCCuZIfJQ18HBTxKl/zW+vMe4hXzeSb5+5F7mZ62D2mniuP62ogNd6BNeQl7qlcLK6rhIcsrqsRWy6Q62q0I83t52w1AaAIm07EqzwUdy3svDIzxilE4fffmvk7SedLOn/q6d07B+P7j3X5EsnfXtz5LR9zBOJV1H5DvGoq38xenberN/OHPOLTcOV1XQ2i9juwUrtYXFcpDFlcVzVbLoXrajth6D9nawkAed90Il7lobhr8ccGcWBBDDz4nWnPSrpI0kUHfvimQytVXxS6L5a0CwJClvNb68x7iFcx5JvrwPzd1+CPjfZDC7iuBjJIwAq2DYYglYv1xH4YsuHQM3FdedNXEL1Pxvgo8cnIY7+bjfVJ1q6rmMUrSVse23f3u9lOAkCeN52IV3ko7njnFUDc/P4bM+5+4Lyj/n58/+YD3fURyX6PgJDF/NY68x7iVWz5tr+af/l3rFSr4/4Yudciua48ljuXknglSZWB/wi2/X/9iV5sYxpC/Mk+IPR4hZI6W8ux6yqZOLyhkyTuuvK0hvJIF1d/6w3EsX7JEUf0sYUEgLxuOhGv8lDcIV4BJMk93573wu8vmPmNyc88e4htdWP9gXkv63UB8YrcGzXfJhy4ePleeeqJD3/4tGckbWioToxUvMbsuvJmWmjoy4Nq3q0OLAv6ErtYXFfNXkH0PsF1ld30mYzravuxpl+zbQSAvG46Ea/yUNwhXgGkxforO3t/d8GsC/onT3mtzP9e0vPMe1mMU8Qr1tyx863aVz0gh53yx7p7rDVcVwMZLmBpRAcWrqvIfYLrKqNpq9Suq5cxt3vZLgJAHjediFd5KO4QrwAyqUD/+52bHjxv1ueq/XaopB8y76U5ThGvWHPry7fA8vgerNoCVgu7rgZWvjUcWPK+WC8W11Vst6vhPsF1ld3UmbDravA49vvYJgJA3jadiFd5KO4QrwCy5qFvH/XIg+fPPNZknZKeaOV5D/Eqar8hXiWVb6HyJ2AFgT86am+1nutqIMMFrMAG/hHXVeQEwHWV0ZTVmGJaVNfVQCoKcGABQGkLnla6JsSraNeEeAVF4HfnH3Wl2vrfKKm7Fec9xKuo/caam2S+mfkB+bvn24VuXFeD72kY1noH1suPEOK6ipQAuK4STt0xWva0htBYozu1KcU3bmy/n20hAORp01ms/TbiVZHvE+IVFIkHvzH7sQefeW6Gy/9DUtgq8x7iVdR+Q7xKPt+CPfPWQ2bBU8N6qrVdVy/f0yAIawhY7n24riImAK6rjKarnLiuPD3X1YAp7pHOzmkbBACQk00n4lXWxR3iFUCuubKz+vvzZ/2Lu50g6cWyz3uIV1H7DfEqlXwz3yNvvRSGegLX1fb7OeSe1niE0L0vBQ0h/ovFdZXiNIHrqvboTn/qNnceHwSA3Gw6Ea+yLu4QrwCKwu8vOOpqSe+X9KeyznuIV1H7DfEqtXxz7Z6/vgqfjNZl5XRdDaGGAysI+qJcIa6rJIcnrquaLbes62pQFzzIFhAA8rDpRLzKurhDvAIoGg+eP/MOSe+V9FjZ5j3Eq6j9hniVcr7tkb8cCJ7EdVX7szC0/oH/DiTJQu9NSEOI/2JxXaU4ReC6qj26M5i2B4m29jDbPwDIetOJeJV1cYd4VT8B8hfkigfPn/kbq4Tvk/RoWeY9xKuo/YZ4lUG+7aql3W156rFKpZFfK20J19XLmA3Wql56B9aGeq8Q11WSQxPXVc2WcV0NHsQe/pGtHwBkuelEvOKa0rqmeHItNMY25I3f/c/R94TuMyQ9U/Q5AvEqar+xPmWUbzb1wRd3y1e/9T6ZZv/mwXUlr+9euuuFgf8Ott3D52LUEOK/WFxXKU4PHqmLkokD19Xwn6JwmfkjbPsAIKtNJ+JV1gUe4lXj4MCCfPKHC2atN9MxkrYUdd5DvIrab4hXWeZbf1uQq8cIH3300ac16q+Uls91VW8rZsHzg1b0rX+sPB+DhhD/xeK6SjB962g1y0cGcV2N+IcwFA4sAMhk04l4lXWBh3gFUDZ+d97MVe76cBHnCMSrqP2GeJV9vvW/Ik+9t3Tp0lDSxiT7tnnXVQyxeOP30V2DzFZbf4Uw6Hu+SQ0h/vIe11WKU0PjF4vrKqG+qHlRg/9QrVZ4BxYApL7pRLzKesONeAVQVn5/wcxvS/qfIs0RiFdR+w3xKg/5FnhlSv760TYkUe3G57qK4UXt0b453IFVqVSei6ghxJ/QuK4SSpk6W8V1pXy5rgb/0aS+X/7yticFAJDiGo14lfWGG/EKoPT0jvuEpF8UYY5AvIrab4hXecm3UJ5DAcs3xt2vRXVdDb7/NtyBNW3atM2StrS066rGYbiu0ooD19VYrqsBPLnNYgoAkMraiHiV9YYb8QqgFXjwO9M2VwLNl7Qpz3ME4lXUfkO8ylO+BVIOBayXXlYes3gVb5Ha8P1r9mrMqsMdWNsaf6GlXVee9HD0uD+Kr09a3nXVQCGn9F1Xgz61JH6pBgBaD8SrYmy4KXioHKGV+O03Z/7apU/ndTwhXjEFpXmfkuw2N9shh3myMbZHBgvuuhrYUH9/DQfWts+ei1ENiNQ3uK6SjCPaxbaG68rTGMZ1XJTX8zUELABIZX1EvMp6w91aBQ8SE8BWdnjmuf9P0t15myMQryKLEi27j8hzvlkuHyHUhtjK23iL1IbvXYweMoXhC7UdWDJ/PtVExnWV4pSA66r2xRXDdTVkQnqWrR0AJL1WI15lveFGvAJoVdZf2dkrtw+lXS1kvyYgXrHmppdv7vl7hNAsuoBVNtfVgFj6PvGJTwx6rHqAgBU8G8MJGu4bXFdJxhHtYnFdJdQX0V1X248yPS8AgATXSMSrrDfciFcJVAXG+Ici8eAFR62U/No8zBGIV1H7DfEqv/lWLgdWGV1XAxj2lODLApa5nkw8iXFdpTgd4LqqfXEFdF0N+oM9y7YOAJJarxGvst5wI15RSQJsS9ugsjSNyiX7NQHxijU3gz2IaVIOO/nFhsvbcrquBjJMo3pZwArdH4vhBHX1Da6rJOOIdrHJzRe4rpp2XQ2ca01Ps6UDgMJvHEtU8CBeRbsmJCWA0fn9N2f8TKYfZjVHIF5F7TfEqyLsQdytLYcd3d9weRtvkdrwPfOE88tdjwz9WzCgMH4skQTGdZXiVJA315XjuopwhjGOeFEAADFvPBGvst5wI14BQA1C+/cs5gjEq6j9hniV33wbVpO15y9/xhawWsR19TJmenzo3wY+QvhY7OV9zlxXycSB66p2VseVts10RzlcV0MWxj52cwAQ53qJmJD1hhvxCgBq8+AFR/3cPFxTzLmtteY9xKs851vNa6rkrbfNvL+u8jbeIrXh++Up5pa7PTr0b9sfIRzVgVUO11VqIhquq+ymxHK6rgZObb1s5wAgrlm2ePvtfASMeBXtmrLKNzMhm0FhCRX8T/Hmttaa9xCv8pxvta/JpPYcdnrfiPVqC7muhhw/TKPa7sAKa70DC9dVQ32C6yqRtG2sO8rnuhq0CceBBQAxzXCIV0XZcJfjHtFvANHY4dnnrpT0p3LMbYhXrLdZrQk+5F95fAeW9Y9Y3sZbpDZ8rzyzvLKRBawgqD7W1AlwXaU8BeC6Gn5xZXVdDfiOIWABQPOzC+JVHjbc3jJ5l3W+ucuYF6CorL+ys1em7xVfTEC8Yr3Nak0YfkLL4TuwJFUHVZMt67ra/rUgDEd+hLC9vf1PkkJcVw12eiauK2/oJLiuEuyLFFxXgyZbNwQsAGhqlkO8ysOGu3XsSHnINx4hhKJjVV1V7DGKeMV6m9Wa4CP9NXcOrJfegYXravvXrD0Y2YE1bdq0fsmfjNo3uK7SGP64roZfXIauK2/8DM3GEBrvwAKA6DMM4lUeNtytU/Tw2CBAPPxuv9vXSMN/jasYYgLiFettVmvCqM7g3L3EPQytH9eVXvbIuGo9JThAwNr2hcei9A2uq6ZvVWOx4LpSK7muAADimOkQr/Kw4Ua8AoAILF0aSvbD4okJiFest1mtCaOf0Ez9ebsLZgpj0wsi3qM8uK4GfLvv0UcffXroYYMFLPOHGukbXFdpDH1cV8MvrrVcVwMbsjCXz2sDQM43nohXedhwI14BQHQC13XFEhMQr1hvs1oT6tkXeX8O86stk3uYM9fVduzhpUuXDhP12gZ3mj1gVl/flNd1FetH8cXiiafuGFmd8RTY4MPAeXFdxX1uDwwBCwAa3KSxmc5+w414lSmGpAYlwILVUrUqNffoE+JVZHGhJfcQ+VpL47smUy7fK9ye9v1zzziXfNQdxQO1/hoM/of9bsSGExGvcF3V1SquK7Wy62rQZBuGCFgAUPdMg3iVhw034hUANM8D5894TtL6/IsJiFest1mtCQ2YHXL4CKG7taV2/3Lruho87dX64yABy4MaB3nT4TXX6Z7GcONdV7WzOtG0rfO2tOi7rkZoCAcWANQ9HyFe5WDDjXgFAPFh0up8iwmIV6y3Wa0J3uhYyuE7sKxS33WW7l1XI1HTXDVIwKqq+sBIfZP6I4Opua684RBxXSXcF7iuRp7YeAcWACBeFWTDjXiVn7BHfUEGQHFGoHsP83iq/d2Se4h8raWJXVM1h/nWlui9K4brauAXajqwBnVSWxg+4Ba4XJZMihfEdZXqcOddV8Mb5l1XI32IAwsA8rdxLEfRg3gV7ZoKkW+8AwtKQij7VZDLdQHxivU2qzUh6gmL9A6ssr/raoT5LgzGfoRw5syZG+X6UzIpjutqzFazdF0J11VeXVcDPzT5JLZvAJCfjWM5ih7Eq2jXhCwEkC672273Smqo8Ea8irImIF4VYw8S/YQmz52AFQS13oHVaq6rQT0y9iOE23gg/nddRbMV8a6rNKYcb+Zd+jHeFt51Vc+H7tqZ7RsAlENMQLwq8n1CvAJInzvPP6JP0n3lXRfysCYgXhVjD+LNfntjDnOvLc5qs0DvuqrFC+eee+YTtT4Ihp/HHkg1sXBdRY08nj7BddXwGdJ2XQ3EXDuxtQCA4hcpiFdFvk8UxQCZFrl35Wdd8LL1bcvM48Xeg8RywhdyeLMmxHJ9hXZdvdzIiJpU2/AEDB+wpt91ybuuxmyVd12Jd11FOEuAAwsAii4mIF4V+T4hXgFkS2B271jDEPEK0rpHBRWvZOYbc3i/dsjP/cjEdTXwDtUvYAWy+zzpi81SuIr+UXyxZPm4YAMn8ES7ojiPC8Yahzd3Fg99FxZjACiumIB4VeT7VFTxKvSAShvKxKPZrwu894r1trji1daWLI8OrB2a6ZoCPy5Yi/tH+qDWTzWuT/Ricype4bpKIQZcV5HP8vIRge3Mvg0AiikmIF4V+T4Vu7YLmTCgPJg9NtKARLyKui6gced/DxLvCc1tQw57dQfJMrwXeRGvXGb265E+HfYOrOd3nHi3pGrsF5uHd13lWLziXVcJ9kUB33U14hG8xB0AhHiVj35DvCL3ANKnavZoduMU8Yp5r/jilSSFHuZQwLIdGu2W4r/rqva9dg/rF7A63/nOTS49EOvF5th1xS8MJtkX4hcGPfpZRjhiV7ZuAK0N4lUe+g3xitwDyKrGDR7NZpwiXjHvlUO8kiTL4SOE7ja5kftQrkcGB1W+YXu7fjPSkcEIf1wfy8XiuooaeTx9guuq4TPk0nU1mElXX331zuzeAICNdFYbbsQrcg8gO8a19T6Z/jhFvGLeK9ePeIQ5/BXCIKjjJe4ldl29hJl+u2TJkhdH7KcRmvh10xeL6yqj6QXXVaYvak/GdTWISmXivmzfAAABIYsNN+IVuQeQLeMf27A53XGKeMW8V75rCkxP5C8vR3+Je8ldVwOv89ej3rsRGlsf+WJxXUWNPJ4+wXXV8BlifWSwiR6vN4Yw8P3YvgEAG+m6NoMUBxGuqXTilfGGZigP66/s7JVURbyKui4g9GS/nmZ/TZWqPZmzvDSN9CuELeC6GjrNjfZhMEKBvD7SxeK6ymgY4roqu+tq8BfCfdi+AUArb6TT32wjXpF7AHkqdrWF8RRJJGDNzXw9zcU1+a7j9nwqT3fxS1/6zk6S2mr1fSu4rgZfszXuwNpzl11+I6mv7nBxXTV5m5rsE1xXDZ+haK6rgZgCHiEEAASE1DbbiFfkHkDu2Mx4anRdQLzKfj3NTe49e+f5R/Tl6U6OG1fdbWg3tJjr6mXa2qxxB9YRRxzRJ/P7cF2N0SquK+G6itbjzdwTDx0BCwAQEFLZbCNelSL33IzxCSVjc2bjqYgzBOJVDtbTXOXek3m7m2a+28B+bzXX1QD6Hn98x3tHOyAY8ZPQf9FoHLiukuyLIS0XyHUVexwt6LoaNMFJB7JvA4BW20inv9lGvCpN7vEOLCgf7WWey+NdFxCvsl9Pc5d7f8rbHTXz3VrZdfXyoaHuXrq0s3e0w4JRquSfNBIHrqs0hl8xXVfJ1hOt4boa2EAovYp9GwC00kY6/c024hW5B5BrJjCe6lkXEK+yX0/zmHuWw18gtN1b2HU14FD78ViHBqN88pN64sB1lWRfDGkZ11XDvV0W19XABkw6qKuraxx7NwBAQEhis414Re4B5J4JjKex1gXEq+zX03zmnrvnzoEVhsFuMRfLDcsMmbmuBh4ejGKievmQEejfvPmnkvpHiwPXVRpDD9cVrqthf21ra5s8lb0bACAgIF5FvSbEK4CCcmJXRbE+Qoh4xbyX1bqQzX2yQH/I290d+A6s1PoxN66r7f8MQ4suYM2dO/dFSetxXcV6mxrvE1xXDfd2GV1Xw2jTIezgAKDVBQTEq2jXhHgFUFz2nLDTBMbTaOsC4lX262m+c89CfyiHN3m3aH1YfNfVgH9uHj+++uuxvh6M0fhPkk81XFc1W8Z1Fam3S+y6GkTFEbAAoLUFBMSraNfUiuKVhQGqF5SGHdr0Cua9kdYFxKvs19P8516YQweWpD1T6cMcuq4GrNY/W7JkSd9YTYwuYA14kTuuq8i3qfE+wXXVcG+3hOtqwEEuvZotHACUcSOd/mYb8YrcAygOYeB7M55qzW+IV9mvp8XIPQsqeXRg7R+xWG5YZsiZ62rgQT+up6m2Uc9T9Z9YYLlxXSU+gDzLIZexcPVywxkJVzUb9HTj8Ohn8NTG/8sHvo4tHAC0ooCAeBXtmhCvAEoywk17M56Gzm+IV9mvp4XJPR8/Xn/M4Q3fN7H+8yR6Py7X1UBsXT3NjerAmjix7VcuvRjvheK6qtkyrquGeztW11XuxathQb7Z3Y1tHAC0koCAeBXtmhCvAEpEUwIW4hXzXlbrQm7u05/u/2rHljzd7fPOO2+SpF1jr3oHfC2TRwYbfEOTWX0OrFEFrGnTpvWb9PPEk5Z3XWU37Fv5XVejNpSPd12NEuSOP/zh9QeziwMABASuabRrQrwCKBnmezGeXprfWJ+i9VtLz+W5e3ywWm3bP/a+8yRq9yRcVy/z3Ec+cs599TQd1HHM7c1fKK6rmi170z0YQ3fguopypRk8Mjicir+ZXRwAtMqm071815T0fUK8AijhaHe9ivGEeJX9WlrQ3HPdl7e7bhbuG1vfFcx1NYDbzayuQ8cWsDxYmUjC4rrKbsj7S7MXrqtGrzRd15WPfgmuN7ONA4BW2HQiXjV+TYhXAGXFDmv18YR4lfVaWtzcs8DvzV8+2/6xVJzFc11tvy+mujWnMQWsarV9taQwtiod11WzPRhDd+C6inKleXBdDbwEk/6MTRwAlH3TiXjV+DUhXg3dGTuKGJSDpUsDyV7TyvMe4lXWa2mxcy/0IHcCVhgO/AXClnJdvUy1GqOANWfOe56R9MtYkhXXVXbDHddV5CvNletq4GQnHFgAUO5NJ+JV49eEeAVQXvZ76M8Plnxiq44nxKus19Liz+WB+T15i8lM+7Wi62oAG595Zud1dd/DOo9bWV/0uK5qtozrquGrxHU19iWYtO9VVy3bj+0cAJRx04l41fg1IV6N1LTxq71QCiqBv6FV5z3Eq6zX0nKsueM2BfflMA9eFambC+66GsDapUs7e+s9uC4By9xWRk5UXFfZDXVcV5GvNK+uq2EbmYrexXYOAMq26US84ppihUcIoTRDxd6V+XjKZE1g3st2LS3N+vTo/Zd3PJ/DuA6J0s0Fd10NbKGhd67XJ2BZ30rVfA9WcV1XycaB6wrXVXMH1tsXLgQsACjXphPxKuK64eQeQNkx01+02nhCvMp6LS3VXJ67xwe/+MUvTpS0b6M1bglcVy8TBIpfwJo1a9bTMq2vO0mzdF3VcUcTfWQQ11Wkq0ynXimH62rwTgYBCwDKs+lEvIp2TYhXAOVn9w937+Cjvv8U8Yp5L6s1oTD36dd5C6i9ffKrVI8mUzrX1ctsqla3/KSRLwQNjISVY3ZbHlxXmTwyiOuq9kXlyXXlyfZFiq6rId960zXXXDOFbR0AFH3TiXgVce1AvAJoCSb29r5DUnurjCfEq6zX0vLN5e7+y7zFFATBq+utccvkuhpwT9aee+65Wxrqs7qPNFuJ62qElnFdRToDrqsY+sJVqartz9nWAUCRN52IV9GuCfGq3j0s78CC4hNIc1pl3kO8ynotLeeaawp+lruYzF89VveW0HX18lWZNfb44La5sD7GVdQtqdpIXY7rqqEwm+gOXFdRzlJc19XgZi3kMUIAKO6mE/Eq4vqBeAXQSnO2ufkxrTCeEK+yXktLO5dXq23hXfnLd3v1aAViGV1Xg1sLb2n023ULWNOnT39Kpp/Uk7e4rlIY3riuIp+lBK6rwV8O/Eg2dgBQxE0n4lW0a0K8AmgtDjpr+VslHVD28YR4lfVaWuq5/DePnD/3xRzG9epaXVtm19UAntlzz11vb7SVoMHRcf1YPYrrqqEwm+gOXFdRzlIW19Xgv9mfd3XdtBPbOwAo0qYT8SriGoJ4FeHUZox9KPSMEOi4ss97iFdZr6UlX3Ndv8xpZIcNLRDL77p6mRs7OzurjbbUkIBlHlwf4TVY8XZ6y7uu6m8d11WMfZE319Vg2trb+6axvQOA4hQqLb6RjnhNiFfRCJ13YEGBWdrd5rL5ZZ73EK+yXkvLv+a6+c/zFtPXv/7t/SXt2mKuq5cx0/VRWmxIwLrjjp47Jf0pdnGg3p7EdaVGxKtk8w7XVUNFh2J2XQ2bAXwGOzwAKMLGE/Eq4jqCeFWQAg8gXg58ePNcyfct67yHeFWUuc0Lnmf2k7zFZBa+sQVdVy9/2NenG6O02pCAtXTp0tCk5cmmMq6r2heH66rRs5TcdTWUo9niAUDeN56ICdHuEeIV+QYtPTN8sAwCQu0xinhVjLmt8Pep2jvhxdwJWAr1xlZzXQ34+Gcf//iSR6O0HkQI6PpYxIF6e9KzGk64rnBdNVlwKGHX1eAvHHT11cteyTYPAPK68XQv3zWlcT2IV0Up8ADiZ78lN77aZNMRr5j3spvbin+fTPrVE9/o3JC3uKrub0iwcK/r0JRdV9s/jvj4oBRBwGpvD250qRr/wMiT68pxXUU4A66rGPoi0gVs/YJZOJOtHgDkceOJeFWUQqUc92hYv1mAnAWFJAjDf5Q8KNt1IV4VZU0ox32qSrflMS4zvTHVe5Sl62rICYNQN0SeFxv9wvTp058y6ceJDQxcV8J1Fe0sLei6GvQldx3DVg8A8rbxRLyKdk2IV0Up8ACSYf/Fy15p8vmlm/EQrwoyt3lJ8k2SLHcC1le+8pXxkg5JqHAe9dBMXFeDD3nmiWcevT3q2aIp+mbXx3OhuK6GXxyuq0bP0squq8HjUu+77rrrdmHLBwCIV8W+T4gwRSnwAJLDQvuUpLZyjVHEq2LMbWUSr6Sg39bmL7pJr5PUnvj9yZHravuf/KalS5f2Rz1rJAHLXNfEOihwXQnXVbSztLrrasgn7Vv6bA5bPoCWL+NLKCYgXpF7TeSbh8a8AEXioCU3vMlMpXJfIV7lYS1tnfV2QL898dDFRz+Qt/iCwN8ac+E86qE5cF29/Gcza0pLiiRgHX309F9KuieWi8V1JVxXjZ8llr4og+tqyCdmfizbPoBWBvGqyPcJ8SqhfOMdWFCssWRh6F+WVCnNFSFe5WAtbZ31dnC/+UrJcnhh/vbE7k0uXVcv/3mL+5brmomgmZcCXt3UxeK6Umauq5oNtpjrypvr9Ry5roZ+MnP58uWT2fwBtGTRk8ONI5vpeq8J8aooBR5AskxdfMNCSe8tzYyHeFWQua2U4pVcujmfkdrb678vxXddDZgPbjr33HOfbyaK6AJW6FdFvlhcV8rUdeWNnwHXVQx9kZDragiTNmzqPYrtH0CrgXhV5PuEeFWUAg8gWV75weV7uOvzpZnxEK8KMreVU7ySJFWCW/IW54UXXjhF0qGx3pd8u65exiy4qtloIgtYHR0z7pT0+4YuFteVcF1FO0seXFdNxZGs62rooD6BLSBAK4F4VeT7hHhVlAIPIPGstmoYfkvSHuUQExCvijG3lVi8kh5++ILZ9+Yt1hdfDN+qUXWYcrmuBtDX3x/8X7MRRRawzMwl/W/dF4vrSriuGj9LnlxXHkvfNxew1/VtO+aaa66ZwkYQoCUKnhxuHNlM13tNiFfp5JuFyF2Qfw445/q/dNfccogJiFfZr6Wts96OIF7JXCtyGvI7YrknBXFdDaD7E584++lmI2vmHVgyr/UYIa6r4ReH6yrKWXBdRb4nk6oe8DJ3gNKDeFXk+4R4lV6+eWD8CiHkmv3Puf6tJivFo4OIV3lYS1tnvR1JvJKk0HRLHmM209ubqvaK5boaeK+uiiO6pgSsH/947W2SHh0xbFxXwnXV+FlwXTV5T1ySW6l+ehkA8rnxRLyKdk2IV0Up8ACSZ/8zb9wnkH4oaULxxQTEq2LMbeUXryS59ef1Be56W+T7UTzX1UtU3YNr4oiyKQFr6dKloaSrcV3VujhcV1HOguuqyXuy/QtHdl177b5sCwHKCOJVke8T4lX6+cYjhJBX9vt418QgqF4jaZ/iiwmIV9mvpa2z3o4hXsmkn/3xkrkP5y3ur371vNdK2rPhaq+grqsBd2T1xz52zuNxRBo0falW/UEM1x5Tp+O6wnXVXK8X23U1eGxX+u1ktoYAkP8NN+IVhVzeCjyA5DnsxK5xlQ07dMl0BL3RmnMe4lUc/TaiEeD/8hm9va/he1Fc19XAb1wVV8RNC1jrbr99paQ/5sJ15bHcoibmA1xXUc6C66rJezLCF0ziMUIAyPmGG/GKQi5vBR5ACpzYVdm485RLJZtTjnWhbAMV8aoYe5CRryl0XZvH+IPA39c6rquX6W9vD7ti68NmG1i6dGko13dj0RcidTquK1xXzfV6iVxXQ3nz1Vdfdzi7RADI54Yb8YpCLm8FHkDyHHZi17ipO0/5rkud5VgXGKj5n9taS7yS9PAjF835WQ7HirkH741yy4rpunr5um/40Ic+9Ke4og/iaMQUXJz+cMF1heuq+V4vm+tqKKG0mG0CAORvw414VeRrKly+maiwIRfsuWD55A07TbkG8ap15z3Eqzj6zceY8nWtZLm78K9+9bxDJd+rkZKxwK6rAQSXxnkFsQhYHR3T75L086aL8kaEAFxXDZ8hD66rWOLAddXAnl2nLlu2bEe2jACQnw034hVFXMoFnssYxZA1Uz/8o70mTgi7ZZpVjnUB8Srzua0l9yBjd2Jodl0er6NSCd7XSPoV2XU1gOer1Q2xPs4ZxNgnlyY/9HFdFd115QmPu3r6pOyuqyHssGVLeBpLHwDkY8ONeEURl0GBhwMLMuaAs5cf7n12h0tvLce6gHiVi7mtBdbcRsUrSc9OnBSsyOfV2PvqKQzL4bp66f7ZlZ/4xCc2xXk18QlYav+uS/24rhJKPFxXTfd6q7iuhn7Z5UvYOgJA9htuxCuKuIwKPA9xYEFmTF287ENm4RrJDijHuoB4xTXld00w1zX3f7VjS96uZenSpYG7v2+s21QS19X2+2G6NO6+jE3Amj172mMyX5HI4MN11fAZcF3FdE+K6boa+uU3XXXV//05W0gAyE5MQLyi4Ekz34ZckwU4sCB1XnXGst0POOf6H7rbNySNL8e6gNCTr/mtvGuue7Rr8iC4Io/Xs9tue79V0u4jFYZlcl0N4PdPP/3I6rj7MoizMQvjfEEXritcV833equ6roZ+2cw+xFYSALLZbCNeUcRlVdyhW0E2HHD2shP62uzXJs0rz7qAeJWv+a28815U8UrSU3tW9rw5p9d09EiXUzbX1fb6U5ctXbo0jLsvYxWwNm6cfLWk52LpeFxXDZ/h/2/vvOOsqM7//zlzd5euoEgT7JqoMU2T/BKTfEOqQVcE9UpHbCg2wJiYb9qariYqWEEpYl+KImiKJuab3kw3phhFabaodJbdO+f3B6xSttwyc+ecmff79corye7szJwzz3nO83z43Lm4riJ6JulwXe36U6PRixc/MpiSEgCqW2wjXtHEJdXcIV5B9TnwnB8cfOC533vYGLNQUr/07AuIV27lt/TmvQrEK0l28ROzj2t2cVzGBCdmxHW184XuimMuIxWw8vkPbJHVoooHi+uq5CvguorgmaTMdbXbT2tlWnBhAUAVi23EK5q4pJo7xCuoLoec9+jeB5z7g2/KhE9KGpaufQHxyq38lt68V5l4JVljGl0c10033TRA1r47vqdVnusqnqh544y/vvjiyf+IYz6DyG85F84ue7C4rsq6Aq6rCOYija6r3X9gzAWNjY09KTMBIP5iG/GKJi6p5g7xCqrHflMe73nQeT+YVrCFp43Cz0vqlq59AfHKrfyW3rxXqXgladXq9Vt+4uLYwrDu09qhu7jkuopXRLOz4prPyAWs+hNO+K1k/lDyYHFdlXyFSD8yWMGM47qqYC7idV3tTp+gttuZlJsAEG+xjXhFE5dUc2ez1IVDghx8zmP9Dzrvew3dm5ues9ZeK9m+6dsXEK/cym/suR3+hTF3aGG+4OJojLHDon9STrquWnm9S5cgNjdcENNDml30YHFdlXUFXFcRzEUWXFe7r01pemNjY47SEwDiKbYRr2jikmrubEeFqWGlQxQcfM733n7Qud+/IzQtz1trviJpnzTmPcQr1/JbuvdcaysekzUqzHdxbA0NDTXW6uPZcF298TzvmDx58ua45rQmjpNu6lp7d/ctzVdL2qvDSU/adVXC2VMlXHV6IpdcVzHcg432j3wQrnauvWpqug+XtIQyFAAQr8rMuYhXjjV3nRXzOLCgfIac9cNBJheebmRPD2U+IMmkOe8hXrmW39K950YgXklW/7dq7vCnXRzfPvsM/Kik3lV75sm5rt74ca4Q3BbnnMYiYOWHDt348CM/vMdK57c5KpvwsrSlnT11rqsKrlAd4arzA6vruorwHpIVr3YsP/s5IWABZB7EqzJzLuKVY80d2hREz6Hn/6BfS0tYL6MxUvgRScEuulVKYw/xyrX8lu68F4l4JckazXN1jMbo1Ko8c1vNSOnwqwx/dtH0856Mc05r4jpxGIS3mjA4f49ReeS6ivw+cF1VfJCN/frF/UF1XVdtn8CW/+fvXbLk4RNGjjzx+5SoANkE8aq8MSFeudbcIV5BNAye1tgt2LjX8YH0cSt9vKVg3yVjgizFHuKVa/kt3bEXlXglab2t0SIXx9jY2Jh78cXXT4n9eTvgumrFyNwa97zGJmDVn3DCn5c//MPfyui9uK6E6yqCA3FdlXnKNkXy8CuSELAAMgjiVZl5F/HKseYO8QrKpKEhOHDV8W+xpnBcYM1x1tjjtFHvltTVZjT2EK9cy2/pjr0IxStZmbvWzD5ps4vjfOmlVz8iBf1ie97uuK5a+W/Pvepi/5RPTaxnN3aWpPfiuir97LiuIroHXFft8f+WLFn6iZEjhz9KJQuQHRCvyhsT4pVrzV2JJza22wEXLO9DBsgGprm2dyFo6RkUaveSsQMVhIOMgsGy9nBJR2i1DpUpdDGSrLHerKf41inilVv5Ld2xF6V4JcnWBLrR3bEGp8X2rB1yXe30s7mTJk3aGve8xipg2cK2+0xQ91118uIyXFcx3Aeuq8j+IC2uqz0PyX1FEgIWQEZAvCoz9yJeOdbclXNi87VcWPc1H55TerQEm1y8GauczUlBuOOXJqL7Qbwi9pJap4hXbZ/PPPbc7Sc95eJYt398cN0ppY/TO9fVTo9Dt1VjboM4T15fX79ZRrdXfTm+8Y2OCbqubIc/KO7PYslxLrmubDxzkbTrKmLxqqRTlnbw8QsfWPYx2noAyHoTh3jlS3OX7thDvHJZTEC8IvaSWqeIV+2eM7A3uDreF19c9yHJDoj0WVfVdVWSeCUrPXLppef/uxpzG8QerIXgBkktkff5HT7Y4s8e+X04+5HBzkcaifaS5EcGyxqAjftUFd28jfn6gVUDzThA+rHV+Vx6qhoexCvXmjvEK2IvqXWKeEXsJbVOEa864Lk167c84u6Yw9NKe8625F/Ho6fYsm7PmOD6as1t7AJWff0nnjfS4tiXIq6rTsSrmOfCS9eVjftUZd98fK6rPfjgkiUPnUR7D5BeEK9KHxPilWvNHeIVsZfUOkW8IvaSWqeIVx1hjL1RC/MFF8fc0NBYJ5kzInnObruuWn/9t4svPvdH1ZrfoDqXMd+JpM/v8MHiuipnpLiuYjlVRTdvq3b91lOYbzU2NuZo8wFSWNIjXpW+FyBeOdbcIV4Re0mtU8QrYi+pdYp41Qnrc4XC7a6Ou2/f1080Rn0ramI9cF21Yoz9rjGmakFbFQHrxBM/+XtJv4hvfeO6KmekuK5iOVXZN19F19XuJ3pbrrbreFp9gLQ1KhTSpY4J8cq15g7xithLap0iXhF7Sa1TxKvOMFY3rZg/4nVXxx6GmljRM/bDddX6nF/q1avrfdWc36BqD1L2uujnG9dVOSPFdRXLqSq6+Wq7rvY4kdXXGxsbu9HyA6SlUaGQLnk/QLxyrLlDvCL2klqniFfEXlLrFPGqCLYGtbXOvrz9xhtv3NcYfbqsJtYj11UrQaCbJk2atLWac1w1AWvrpvUPSvpPdPON66qckVbHddXxgbiuyjxljEFkpf1NTdcLafsB0lY4UkgzJh+bO8QrYi8pMQHxithLap0iXhU3S2buc7NPWOvq+MOwdqykupKfr0euq51oCsPcrGrPcdUErHw+XzDW3lj5fOO6Kmek1XVd2ejnAtdVLEG0850Z6fMPPPBAb9p/gLQUjhTSxY7J3/4O8cq354R45bKYgHhF7CW1ThGviqRgTOE6l+cgCMyEkjpPD11XO/32zqlTz32x6nNczYsVCk1zJK0rf75xXZUzUlxXsZyq7Jt3yHW1O/sUbO7LSAAAaSgcKaSL3p8Qrxxq7hCviL2k1ijiFbGX1DpFvCoaY+9dNWf4067OwY03zj7aWh1b9Dz46bp645BCIXd9EvNcVQFr+PDhGyTNLn2+cV2VM1JcV7GcqqKbd8F11fGpzUVLliw/EikAwOfCkUK62DEhXrnU3CFeEXtJrVHEK2IvqXWKeFUChdDar7s9E+a8ojpPr11Xb+SY70+fft6TScxyUO0Lhi2570raUvx847oqZ6S4rmI5Vdk375LrqhPZszZU6OyLEQEgzoIb8YomLqnmDvGK2EtqjSJeEXtJrVPEqxKZu2bu8H+6Og+zZs3qbq0dn3LX1RsYE3wzqbmuuoA1fPjHX7RGt3c+37iuyhkprqtYTlXRzbvvutrt9q0+tmjRslOQBQB8KxwppIsdE+KVS80d4hWxl9QaRbwi9pJap4hXJbItF9hvuTwXzc0aI9k+pfa4PrmudnruP7700sk/T2qugyQuWqPC1ZK2tT97uK7KGSmuq1hOVfbN++O6auMAY787b97jXZEHAHwpHCmki96nEK8YU5XGhHjlspiAeEXsJbVOEa/KuNqs524/+VnHp+T8Uh+5b66rVnI5+40kJzoRAWvYsGGrZHXHnrOH66qcq+C6iuVUFd28d66rPTmkV68NlyERAPhQOFJIFzsmxCuXGjzEK2IvqTWKeEXsJbVOEa/KYHOups5p99XMmbe8d9eXt3fcZ/noutqJX1988QU/TnK+g6QubJT7tqSWN2fPFddVcVeonuvKxjsXuK4inTyvXVd7LtLPL1788IFIBQAuF44U0kXvVYhXDjV4iFfEXlJrFPGK2EtqnSJelScamO88N/uEtS7PiTHB+cU+bl9dV60EQfDVpOc7MQHrpJM+/oxCc697rqsqfFSvqBPhuir2ariuSjx18RPWw6pwM3IBAPje8CBeudTgIV4Re0mtUcQrYi+pdYp4VSZrmrfVXu3ynNx88819JI3qrM/y3HW1A/PERRed+/2k5zxIeBl8U1JY9WWP66ryZkC4rso6peuuqz0ZtmjRQ3kaYwAaBF/Hg3jlUoOHeEXsJbVGEa+IvaTWKeJVuRjZL7x456c2uTwvhUJusqRuHU2L766rNwm/YYxJPKATFbDq6z/1D8ksrkq/3+6DxXVV6oG4rso8ZZKuq0qubzTj7uXL+9DwA9Ag+F1w84ySnTfEK2IvqTWKeEXsJbVOEa/KxuhPKw/4wwKX52XWrFm1ki5Mt+vqDf7+2msvLnVh3gMHVsQ32ptXXFcRzkWWXVcVT6CtfEqTdl1Vdv0BXZrCb9P0A9Ag+DQmxCuXGjyabcaU1BpFvCL2ktoTEK8qwmiaGhpCl+emqcmMldXg6jz9pFxXb5ztaw2OPI/EBaz6+hP+bKSF8U22cF1l3XUV8c2X/JHBmILIVvX6Onfx4qVDaf4BaBB8GJO1PG13Grz0x1064g3xyo81injlbrylL/aSEq+s0f2rbq//ieNr0RjZqZH37sXGU3VcV6389bXXXmx0Ze4DF27CmMKXtOMbCXFdRRh4uK6ib4oiefaVzUmVXFd7LFMrc9O8eY93pcUDoEFweUx+93fJ3TziVXljQrxyVUxAvCL2klqjiFcVssE06zLX5+fGG287QdI74p2lpF1XO5pAoy80OOSGc0LAOvHEE/9lrebjuooo8HBd4bqKJXnaI3vtvf6rAgAaBEfHhHjlS4OXjmeEeOVqrCFeEXtJrVHEq8pn0Hx51YL61e5PUviZyHr3YmOpuq6r1rP+9uKLJy93aeoDV24kLJivStoaWa9d4uPEdRXRXOC6iiWIEnJdtVWsT1+8eOnxNDEANAiujQnxyrUGL93fdIl45aqYgHhF7CW1RhGvIuCvA2oG3OT6HN1446x3S+aj8cyQG66r1jOHoT7nwjcP7owzAtYpp3xqpWRviTZv4Loq9UBcV2WeMrWuqz3+Xy6UFjQ2NvZEGACgQXBlTIhXrjV46bZ0IV65OmeIV8ReUmsU8SqKy4fWnP/E7OOanZ+ngv435a4rSVbG6AfTpl3wE9fmP3DpZoxt+aak9dHoD7iuSjkQ11UFU5p219WeBxwS5Lp8C3EAgObUhTEhXrnW4KU79hCvGFP11ijPya3clu7YS1i8kqxuWjPvpF+6Pk833jj7aGs0IvoYcsd11fo/wjD4iovPwCkBq76+/hVJ11eWMzLkuip6IO67riRcV2U91hiTZ0dzYa0uXLTowU8hEgDQyCU5JsQr1xo8xCtIYp0iXpHzklqjiFfRzKJZ0dRty+d9mKswVIMi1VDccl3tdIHFU6dO/o2LzyBw7YZqgvC7kv5bnv6QMddVhSqHS64rG/v1i2iEIp/70k/ksOtq918aK81qbGzcm9IcIFsNgitjQrxyrcFDvCL2kliniFfEXVJrFPEqqlvIBYXzXr45v9H1uZox45a3SXZkdPHjnOuq9X8WwjD8sqvPwTkBa9iwYesl8+3S8gWuq1KvhOuqzFNm2HW15y/NgSbX5VYEA4BsNqZJjgnxyrUGD/GK2EvbOk1qjSJe+RFriFcRcvPztw9/1If5Mib4siLRTxx1Xb1xEbNg2rQLn3L1OQQu3tTWzetmSnq6uAeL66qUK+G6KvOUuK7a+/mohQsfnETJCZCtxjTJMSFeudbgIV4Re0mt03TFHuKVy7GWvrhzRLx6tqnrlit8mK+ZM289StKpsTTzbriuWtkiYxpcfhZOClj5fH6bjL7Q8YPFdVXqlXBdlXlKXFcdY8zMxsalb0FAAMhGY5rkmBCvXGvwEK+IvaTWKfYu4g7xKpp5S2xMoayd5MNHB3fwFVWknbjuunrj11dfeunk511+EIGrN3byiSc0WulnbT89XFelXgnXVRmnxHVVLD1NoIXz5j3elWINgGI6rjEhXrnW4CFeEXtJrVPee0XcIV5FM2+Jjulrq+ad/H8+zNl1181+p2ROi7SZd8t11crqbS09rnH9eQRO310hvFRWYamPE9dVBPeB6yq2IEqF62pPjunZa8M3ERMAKKbjGBPilWsNHuIVsZfUOkW8AsSraOYt0TH9tn/NwG/4Mm+5nL1GZekmnriuWjH6/OWXT9jk+vNwWsAaPnzYHyXdXezjxHUV0X3guooliFLmumrrj6cuWvTgMMoqAIrpSPM34pVjDR7iFbGX1DpFvCL2EK+imbdEx7QuF9hRT8w+rtmHeZsx49YTJH08kt7YTddVK7977bUX7/bhmQSu36BR8+clu6mERxNjjsJ1VcoN47oq47FGnrBidV3tsVytMXc1Nj50MOICAMV0FGNCvHKtwUO8IvaSWqeIV8Qe4lU085bsmIwx5z93+8nP+jBvDQ0NgTHmmxXHjMuuq9bnEtrLGhoaQh+ei/MCVn19/WojXRNv3y1cV7iuYgmi9Luu9jhXHxPYJY2Njd0QGQCgohyOeOVYg4d4RewltU4Rr4i9NK3RJPcEm3SI3Lhyzkn3+TJ3ffoMHC/pXRU1lG67rnYcYu+/ZPqUn/nyXAIfbnLLlg1XS/b52NIkrqvIbhjXVRmPNfKEVVXXVVu80+S6XkfJAADlJkHEK9caPMQrYi+pdYp4RewxJrfXaNH8tmvP3Gd8mbt58+Z1NUZfLTtWPHBd7Thsq7XmCp/i2gsBK5/Pb5ENvhh5343rKrIbxnVV4qnT5Lpq6+Q2nLxw4YMTaM4BoOQ8jnjlWKOCeEXsJbVOEa+IvaTWaRrFq0TH9GpN2HLG0zcMa/Jl/jZu3HaJpAPKauhsEtFVquvqjcOunzbtghU+xXbgy43W13/qLiP90gXXVSSBh+uqgonDddXR6BNyXe3ZFBjdct+SJe+gSQeAYhMh4pVrzR3iFbGX1DpFvCL2klqniFcRExprxqyYP2KFL/N3ww1zBlmrL5YcJ0W4rmws8Vqy66qV1U1Ndd59i7w3ApYxxkpmiqSWCHv9ksOq4sDDdRV9wxP53Jd+IlxXbw5up2F2D8Jg0QMPPNCbZh0AOs3liFeONXeIV8ReUusU8YrYS2qdIl7FMKWfXznvpB/4NIdh2HKVpF4lNXR+ua5afzLtc587e4NvMR74dLP19Sf82RjdEE9OwnVVyg3juirjsUaesGzxc1Et19WevzysucXc//jjj9fQtAMA4pUvzR3iFbGX1DpFvCL2klqniFeRY+xdq+bVX+3THM6YMfsDxmhs0THin+uqlUenTp2y0Mc4D7xbmIVtX5G0uoJev+SwwnVV4Vzguop1g7VVv/6eV2/3Mtt/+MmX//v6VTTuAFkH8cqP5g7xithLap0iXhF7Sa1TxKsYeCLMmck+zWFDQ0NgjJ0hyRTVUHnpupIkNUn2Yl9j3TsBa/jw4Rus7GXR5CNcV6XcMK6rMh5r5AnLJdeVbf8yu9+cNdPvX7T0XBp4gKyCeOVHc4d4RewltU4Rr4i9pNYpzykG1qpFw9fMrt/s06zts8/AyZKO63Qu/XVdta6xb0+dOuWfvkZ34ONNn1I/7H4jPVJCr19yWOG6qnAuknRdRZa3cV11dC+duK72wFh7U2Pjkv+hkQfIGohXfjR3iFfEXlLrFPGK2EtqndqUxJtTY9oQmvDEVQvqV/s0h9dee/s+kr7aaUPlr+uqlf/07t312z7He+DtQg3NpZK2lh45uK5KuWEvXVc24kRR6mONPGF56rrak1qZYNHixYsPoaEHyAqIV340d4hXxF5S6xTxithLap0iXsVAs7Hm9DVzhv/Rt3nM5QrfkdS33Xn03HW1U366dNKkSVt9jnlvBazhw0942hhzdfGRg+uqlBvGdVXiXOC6Kpa+hTC3uLGxsSeNPUDaQbzyo7lDvCL2klqniFfEXlLrFPEqjtsxsuf59o2DkjRjxq0fM0Znpth11XrUkmnTpjzse9wHPt98TRB+U9K/iuvuYw48XFcVTByuq44G5Lnrqi3eKdOlkW8mBEgziFd+NHeIV8ReUusU8YrYS2qdIl7FM6vmiyvnnjzft3m89tpruxljbpWsKbXP8cV1tYPN1prL0hD7XgtYw4YNa1IYXCTb3nPDdVXKDWfXdbXniXBdvXn1CFxXbf3xp196Zd2NNPkAaQTxyo/mDvGK2EtqnSJeEXtJrVPEq5i4afXck77p41zW1HS/UrKHlRoq/riu3uCL06ZdsCIN8R/4PoDhwz/1qIyZV05Y4bqqYC5S5bqy5T3WOAtvpc51tQdGmtzY+OAVNPsA6W94EK9ca+4Qr4i9pNYp4hWxl9Q6RbyKBWPvWnXAE5f4OJczZ976DklTS+lz4vMPxOK6aj36N4MG7TszLdkpSMMgmrbkpstqVbFPHddVhXOB6yqGhGWLG57Xrqu2Nj19s7HxgfE0/QDpbXgQr1xr7hCviL2k1iniFbGX1DpFvIoFY5auGtJrkhoaQt/msqGhoUbSXEm1xU5pfMKVLfoCZbSCTWEYnp3P5wtpyVCpELDy+U+sM8ZclHrXVVkDwHVVzIlwXVXHddXW1idjblu48IGP0PwDpK/hQbxyrblDvCL2klqniFfEXlLrFPEqJn5UU+gxSg1DW3ycz332GfhZSe8uZkr9dF29ETdfmz79oifTlKWCtAzk5JNPWCqj+2ILPBdcVzaaP8B1VeJc4LqKmy5WZsmiRQ8djQgAkJ6GB/HKteYO8YrYS2qdIl4Re0mtU8SrmPi/5ua64SvmD93q43xed93sd0r2K8X0WZ66rlr5Y/fuwdVpy1RBugZTuFjSS5EHHq6ryhdnuafEdRXzpp6I66qti/UJbeGHjY0PHYwYAOB/w4N45Vpzh3hF7CW1ThGviL2k1iniVSwY/ayp65aTXrzzU5t8nM+ZM2d2yeXsHZLq0uq62kGLMfbcyZMnN6ctW6VKwKqvr3/FyEyNLPBwXUXf1CSy7+C66rDwT3TP3z7QHcMdZIPCo42NjQMQBQD8bXgQr1xr7hCviL2k1iniFbGX1DpFvIrpjn7a1GXLsJdvzm/0d1ZrvyFr355i19UOzLcvvXTKE2msPoO0Dejkkz99r5UexHVV4akiFq9wXbnpurKxzX3xc7LL5UIdalX7w7vvXt4HcQDAv4YH8cq15g7xithLap0iXhF7Sa1TxKuY7uinTV23nuizeDVjxqwPyr5pdqleG1Q111Ur/9h77y7fSGsFGqRxUIXmYIqk1yrs7ysKrey6rmxlp8R1VZ2iP9H9fhfXVVvXP6amtuWRBQt+0AORAMCfhgfxyrXmDvGK2EtqnSJeEXtJrVPEq5h4WBu2nuCzeHXTTTf1NLLzJeWqFznVdl1JkkJrdc6kSZO2KqWkUsA69dQT1spoajw5D9dVsVfEdYXrqr2B2k6vb/9fl66bG2fNmlWLWACQ3WY77WNCvCpzT0W8clhMQLwi9pJap4hX8WDu7V8zcMSqhfktPs9roTl3g6RDq9cGVd111Ro/35k27YJfpLkSDdI6sFPqhy2Q1aIS+/uKQgvXVZmnxHVVnYI/0b2+U9dVWwzr3bv/gsbGxhyiAYDbDY+//R3ilW/PCfHKZTEB8YrYS2qdIl7FgZFuXXXA78c9Mfs4r18EPnPmLWNldGZ1oiYR11XrE/vTunX7fint1WiQ5sHZsOlcSSsrz3e4roq9Iq4rXFftDdSWc31jR1lTew8iFoC7DQ/ilUvNHeIVsZfUGkW8IvaSWqeIVzHdz9dXzq2/QA0Noc/zetO1Nx0ma26uThuUjOtqB01haCY0NOS3pb0iTbWANWLEiNeNtWerIqXFFddV+1fDdVXiXOC6qmJBUbLrqq3T5K2pndPQ0JDqfAXgY8ODeOVSc4d4RewltUYRr4i9pNYp4lUMFIw1U1bPq/feyTNv3ryuhVyuUdJe8c5ukq6rN3LWFdOnT/5rFqrS1DeEw4ef+Kg1uqn0XOea68rGfaqybx7XVQn3geuq3NNNPPLod9yGiAXgTnOAeOVSc4d4RewltUYRr4i9pNYp4lUMbLLWnrJy3km3pGFuN6zbdr2kd8XbBiXqumrlp+vWvTQzK5VpJprB3j27XS7pSVxXlS5OXFcdnbTDS+C6iuLUZx155NtnWWsNogJAss0B4pVLzR3iFbGX1BpFvCL2klqniFcx8EIQmP9ZPe/k5WmY2xuun3W6jJ0c38wm77qSJGO0zphgfIPnH/UshUwIWEOHDt1qrD1TUnNx4RVD4OG6ijZRlDIXuK6qWkzYOK9vzDmNi5Zej4gFkFxzgHjFmKo1JsQrl8UExCtiL6l1ingVOUZ/Cmv0vudvP+mJNMztTdfedJg19vaUu662B1HBTrn00snPZ6lCzczHcYYPP/H3VvpaMUJApIGH6yqWzQrXlZQJ11XbyfqSxkVLb+bjhADVbw4Qr1xq8BCviL2k1ijiFbGX1DpFvIqBh7tuzf3Pmtn1qRBBrrlmQY9CLrfE7vTeq1j6wARdV28EkdXiS6dPuSdrVWqmGsDee3X7lqx+VVKxLlxXZZ0S11XMm3eGXFdtJ+3zjzzy7bMQsQCq1xwgXrnU4CFeEXtJrVHEK2IvqXWKeBX9hNqrVh3wxMlP3z1sfUrWsqmr2zzXSsfEFn8uuK6slWRW1XXVuVmsVDP3MZwHH/zBEAWFP8lqn1jfdRXRH9mqXT/C+4jJdVXUqVMtXO1W4Ce6t9u2L1ftfdia+/r123v80KFDWxAeIAsccd7jfQu58OVqNweIVy41eIhXxF5SaxTxithLap0iXkXMBmt11up59YvSFPkzZ976OWv17dhizyYcqW8GUGhlPjFt2gU/zmItnDn3wimnfGplKDuxo9SL66rMU8bsusq2eNWJ66qq+2BCrqs27sOacNSLL7+65JFHHumCtAEQT3OAeOVSg4d4RewltUYRr4i9pNYp4lXEs/lUkLPvT5t4NWPGrR+zVt+IJfaccV3twOgrWRWvpAwKWJI08uQTl0u6OdLA411XsW1SvOuqCNdV1YrXKr7rqpN7eeOy1tSv39C0ZN68eV0RIQCibQ4Qr1xq8BCviL2k1ijiFbGX1DpFvIqYO22Njnv+tpOfTFPk33jjjQdKuk9SLvI+0IV3Xe3KTwYN6vutLFetmX1/TF2tuUzSHyMJPFxX0SaKUk6N66qqBYQTrqtW8WqX69th3XrsvXTBgh/0QIwA8LVRSUfDg3jFmNK1RhGviL2k9gTEqwjZIqtzV82tn7Bmdv3mNEX+Ndcs6FEo1CyV1DfSuHPNdbX9hy/WNtvR+Xy+kOX6NLMC1rBhw5qMcnlJ63FdlXlKXFdV2bRxXb15UdvR9a0+Wdtl04/vuWdZXwFAZXsS4pVDDV76m+106AmIV36ICYhX7sZb+mLPEfHqnwqD962aV3972iK/oaEhqKvbfKekd0TaB7rnupKkUCY3/sLPXvhC1ivXTH+D1/DhJzxtTZlv78d1pUgTRSmnxnVV1eLBXdfVnhjpvUGu+af33vvgEIQJgPKSaSr7O28FBcQrBISk1ijiFbGX1BpFvIqQu5u6bjlu1fwT/5rGfbdPn4HfkTQisphz0nX1xkW/OXXq+Y9SbWVcwJKkESef2ChpThn6QuVNgnBdlXRqXFe4rorjSGPCnzU2Ln0LKR6gxH3Jpm9M/goKiFfEXVJrFPGK2EtqjSJeRcQmSeetmls/7uWb8xvTWMXMmDHrHMlOi6wPdNN1JUky0s9eX//SldSu2wmYAun1vbpfJOnP0edUXFfFnAjXFa6rtu6jWNdVO5n+wNAWftnYuOT9ZDiA4hIK4pUvDV46nhHilauxhnhF7CW1RhGvIuKXNhe8e9Xc+tvSupvMmHHrCZK9JZJ4c9l1tZ3XcoVwfENDQwt1xHYQsCRNGjp0q7FmjGQ3dqIvVN4gCNdVyafGdVWlosFr11Vb7BNa/fD++xd/nCwH0MnehHjlWINnUx13iFeuigmIV8ReUmsU8SoCtsqYK1Zt2PLh1bed+K+0VjHXX3/z2yU1SqqpuA902HW1g9BK4y/6zEXPUb++CQLWDk45ZdjfjQ3OqTyfuu26Kuk+XHBdxSJeFTkXuK6qXrxU5Lpqm55W5uH77lsyliwHgHjlR4OXbksX4hVjql6s8Zz8WKOIVxHwmzDUu1bNOekqLUzvN9Rde+0t+wdBsFxSr4pjzW3XVWtn9LVp06Y8TP26KwhYO3HKKcPul+x3y2/g3Xdd2apcv+MT4brCddVmio7v+nUyuvPe+xc3kOUguyBe+dHgpbvhRrxyVVBAvCL2klqjiFcV0izpylUbthy/Zn79P9JcxcyaNWvvXM48bK2GlBdnxX9kMGHXVeuBj+6//35fo37dkxqmYLcs0LT5c7W1Pd4uo09EkXzLCv6kXVcxbUjJCFd7njRZ11Unl0nadZVAMWarc31jZL5y332LD1y37pXzJk+e3Ey2g+yAeOVHg4d4BUmsU8Qrcl5SaxTxqkL+YsNg4ur5J/4p7Xnw2muv7bZ1q10u6R0VxVnSrqviWVFTa0fn8+l101UCDqzdyOfzBWtrxklaVVFjoGp/ZBDXVWdzguvqzQtlwHXVNsacuXef/b7X2Ni4N9kOMtL+OtKopKPpQbwqc9+z6V5P/goKiFfEXVJrFPGqAjZK+mz/moHHZUG8mjVrVm0u132RpA+W3Qd647qSrLTFKjz1oosu+i81bNsgYLXByJGfekk2PFVSUzlh7qXrinddxbhB866r3e8jhnddlXL5j4Wq+UVjY+MBZDtIN4hXfjR4iFfEXtrWaVJrFPHKj1hDvKqA5QUTvG3V3Pprnph9XHMG1rTZssXOljSs7Bjz4F1Xu7RlVhdMm3bRH8jo7YOA1Q4jRtT/VtZeUlJTIFxXJZ8a11WVCoUMu67auovQHl0Ic7+6777F7ybbQUrLvhQ2xYhXvj0nxCuXBYV0xR7ilcuxlr64S0C8elqyw1bNra9fO+fEzHwj3YwZs641RmeW1Qf65braIV7ZmdOnT7mDGrZjELA6YMSIk2bLaE4xYY7rqsRT47qqaqGQeddV20XuICv97J77F+XJdpCFpgfxyrUGD/GK2EtqnWLvIu4Qr6KZt9jHtEXSlTVhz2NWzT35e1laATNn3vplYzS1rPjyzHW1g5/36FHzGXJf5yBgdUKXWnOhrH4X6YvacV3FsCHiumrrQriudt9T9riB7saa++69f/G3GxoayIeQ2qYH8cq1Bg/xithLap3y3iviDvEqmnmLfUzLc4E9etXc+oYV84duzVIlM2PGrdOt1ZUl94Eeuq4kyRi9UFNTOIMvmSoOwxR0zoMPPjhEqvmtlQZUnLb4hsFYN0S+YfDNCyFclVbcGmnxtm2bJk6YMGETWQ9c5YjzHu9byIUvl7RHIF451uAhXhF7Sa1TxCtiD/EqmnmLdUx/kewVWXNctTJjxq3TJX235Njy5xsGd7kPY7S1UNDQyy6b8muq3OLAcVAEp5xyykprdZKkzWUvAFxXMWyGuK7auhCuq/KKWyudWlvX45f33vvAQWQ9SEvDg3jlWoOHeEXsJbVOEa+IPcSraOYttjGtkszkVRu2vDvD4tXFkr5TUh/oqetqpx+di3hVGghYRTJixElPGJlzbTm5n3ddxboZ8q4riXddtV3YllHcvl0m/PX99y8+nqwHvjc8iFeuNXiIV8ReUusU8YrY45sto5m3WCbxVRlzRU3Y8/BVc0+arYX5QhbnecaMW8+XNEOdfkLM+3dd7YT55tSpU+5ilZUGAlYJnHLKifdYa79RUqTiuop4Y8d11daFcF1FWtj2D61+fN99iy4g64GvDQ/ilWsNHuIVsZfUOkW8IvaSWqM2BbEW63i2SZpZE7YcumrOSVdl7T1XO3P99beeLelmdShelea6ijUCK3NdtbJk3boXv0wdWzq8A6v0TdM8uPSRe63sGfGtGN511dlJedfVmxdKXrjaSbryW7hqa4bv7tWj7rz6+vrNZD9wgV3fgYV45UeDh3hF7CW1ThGviL2k1mnaxKtIx9QiqwU2l/vK6tuHrcp6XTNz5i2TrTU3q0Njjf/vutqNP7W0bPrg5Zdfznt3ywAHVokYY2zztk2TZM3v2o1UXFcRb4C4rtq6kDuuq3SKV5JkpLGbNjX94u67Fx9C9gMfGh7EK9eaO8QrYi+pdYp4RewltU4Rr9phm6Q7FeqoVfPqz0a8kmbMmHWhteaW9jWJ1LmuZIxeCEN7MuJV+SBglUE+n9+SC1pOkbQ6uhXDu646Gz3vupLadF0lVCt4/q6rEsZp3hnk9Lt77llyAtkPXG54EK9ca+4Qr4i9pNYp4hWxl9Q6Rbxqg22SnR3awmGr5tZPWDW//t/UMdLMmbd+TrI3qt1PhJXuurJxBUTF77razo5vHBxx2WUXriQCyoePEFbAAw8sP9Ya/VRW3SNvRBLZK1xyXRV5+tj3ySJcV1UsCFwQrlL0rqvSB2509T+f+uv/NjQ0hGRASILtHyEsvJx8k5KOhgfxqsz9EPHKYTEB8YrYS2qdIl7txiZJc4zCq1bOHb6GCuZNrr/+1iuN0Zc7jSObcORFJFztlMrGTZ8+5R4ioDIQsCpk8YPLzjDW3FveXPKuq85Oyruu3ryQK64rF2qURItZo4e3bTUTJ04c+V8yIFSbtgQsxCvXmjvEK2IvKTEB8YrYS2qdIl7txOtG9uZCjbluzez6V6hcdlnPZubMWddJurTTOErHu652PurKadMubCAKomjFoGKWLHn4chl7daVhjuuqyNPjukqk2Mqo66rNubfSyjDQ6HFnnPoLMiBUk90FLMQr15o7xCtiLykxAfGK2EtqnSJe7eiq/yOZ22oKzbNWzB/xOhXLrjQ0NNT06TNgtqRJHcZQulxXrcExf+rU888yxlgioXJ4B1YEjBx54jUydmYloc67roqcC951lUixlYV3XRUbpjuezJAgtD+5+96FDQ0NDeRRcKTgpolLdt4Qr4i9pNYp4hWxl9Q65TkZmV9YY/Kr1m95y6o5J12FeLUns2bN6t6nz4AHFIF45cO7rnbjx+vW7TsZ8So6cGBFRENDQ/D2dxy3UNLIUsIc11WRp8+M62r7xXBdOVTI7ipctfX7x6TacWPGDH+RTAhx0+rAQrxyrblDvCL2khITEK+IvaTWqU1JvJU1piZJjQqDa1bNP/GvVCftc+21t+8TBC0PGaPj242fVLquJMn8takp+NAVV0xeRyREBwJWhDQ2Nnarqev+qGwHC7ScBcC7rqpToCe+PzvquspyEduZePUmq2TD0WPG5H9OJoQ4OeK8x/u2BHu+xJ0mLsnmDvGK2EtKTEC8IvaSWqeZFa/+LWPmhDk7h/dbdc6NN954YKFQ831Jb203flL3rqtWzKpcrvn9l1xyySoiIVoQsCJm2bJlfZtbzC8kHYHrqvMT2qpfv50CPfG9GdeVU0Vs8cLVzrQYmStzucK38vl8gWwIceC3gIV45dtzQrxyWUxAvCL2klqnmROvmoz0UEFm9pq5J/5I4qNgxTBz5q3vsNY8ItlBbc5zal1XkqTXJHv8tGkXPkUkRA8CVgwsXrz8EBPYX0rqX/YCwHVVneI88b0Z15VzBWx54tXOafXnNtS4sWNPfY5sCFHjr4CFeOXbc0K8cllMQLwi9pJap5kSr/4hY+bjtiqdmTNnf9zacJGkvducZ5twpMUoXhmjrWGoT06fPuVnREI8IGDFxAMPLD/Wyv5EUs+Sgx/XVXWK88T3ZVxXThWwFQtXu7DeyFw0evSpd5INIUr8FLAQr3x7TohXLosJiFfEXlLrNBPi1avGmoWhsXesnlv/K6qO0rn++lvPNka3SKrdY47T7bra8Wdm/LRpF9xNJMQHAlaMLF68/EQT2AetVFPd1YrrqqML4Lra9aK4rhS1eLUzd4WFrReOGzduPRkRosA/AQvxyrfnhHjlspiAeEXsJbVOUy1ebZX0mDVmQe/1m5c+uTC/jWqjdBobG3Nr1756taTpbcZNil1XO3HZtGlTriUa4gUBK2YWPbB8nJG9Q1JQnRWL66rDwjzxPbkNiQTXVeI1po13Ip4zsuNHjz4dKzFUjF8CFuKVb88J8cplMQHxithLap2mUrwqGJlfW2nBVhXufWXu8A1UGOVzzTULetTVbb5b0vA9Yib9rqtWvjVt2pT/JRriBwGrCixZsuwSazQj3hWL66qjC+C62vWiuK5ULfGqlRZZXVVTE341n+df9qB8/BGwEK98a7YRr1wWExCviL2k1mmqxKsmGf1IoX0grNWDvNcqGmbOvG2wtYVlkt65R8xkw3Ulyc6aOnXKBcbwgv9qEDAF8TNyZP1MSQ1trpRUiVe7DqjT4cXuuupAmrBKVryq6vXfvKhFvHpj7q1apbyq3EuNjL7QUgh+e889i95OVoR0g3jl23NCvHJZTEC8IvaSWqepeE6brbXLrezEupou/VfNOenEVfPqb0e8ioaZM295r7WF32p38arI8jpW11WRCyaCTuD+detenoJ4VT1wYFWRxQ8s+46ky6Jdsbb0RIDrqqobP64rh4rW6rqu2rt+szHm2vXrX/nS5MmTm8mMUAruO7AQr3xrthGvXBYTEK+IvaTWqc/Pyaw0st9XYB4Kmrs/tmL+0K1UD9EzY8Yt4yUzS1K3bLquJMk+mssV6i+55JImIqKKK5wpqOqmbZYsefg2GXt2HBuLC+IV77ra9WK868qRotUN4Wq3/2t+a2Qnjhlz2j/IjlAsbgtYiFe+NduIVy6LCYhXxF5S69S751SQ9GsjLZPRY8/ffuIfJNwwcdHQ0FDTu/eArxujz7VRZCcXXVUVriTJ/qqlZfMnLr/88k1ERXVBwKoyjY2NuVxNt/sknRbVxoLrqghpAtdVdgtWh8SrNiTWrbJqqK2138nn8wUyJHSGuwIW4pVvzTbilctiAuIVsZfUOvXmOT0l6XHJPrq1y5bHXr45v5EKIX5mzpy7n7St0Vp9JLuuK0nSX7p00UemTJnyGlFRfRCwEmDevMe77rX3xoclfbTSTQXXFa6rtu4D15UcdV21fS9G+lmhYM8dPz7/TzIkdISbAhbilW/NNuKVy2IC4hWxl9Q6dfo5rZX0c2P0WEuh5Xtr5p2ykoqgusyYMfsDUrhI0sDsuq4kSf9qaTEfuvzyC14iKpIBASshli5d2qulEDwm6b3lLDtcV51JAsJ1leVi1W3XVXtsNbJXDhy433eGDh3aQpaEtnBPwEK88q3ZRrxyWUxAvCL2klqnTj2nFkl/stb+0hjzq0LY8gsEq2SZMWPWhZK9VrJ1pYRMylxXkrSyUAg/9JnPXPQcUZEcCFgJ8sADD/QObc1jko4tZcnhusJ11dZ94LqSV66rDviLDYJzxo069XdkSdgdtwQsxCvfmm3EK5fFBMQrYi+pdWqTntHnjPSEkf19GNpfhrXmd2tm129mx0+eq66a06tr15bZkh2VcdeVJPuipKHTpl34FJGRLAhYCbN8+fI+TdvsY5Le3dmyw3VVhCSA6yq7haqfrqv2aJHVzYXClv+dMGECL4eEN3BHwEK88q3ZRrxyWUxAvCL2klqnVb1gs6SnJf1NMn+x0u9bQvPEC/OGvSxwjuuum/3OIAgbJXt4KeGSQteVJL1kbfjR6dMvepLISB4ELAdYsmRJP6nucSt7VHtLDtcVrqu27gPXldLiumovRf9L1pw7duypPyVTguSKgIV45VuzjXjlspiAeEXsJbVOY7tgi6TnrbV/lzFPBtb+XYF5Mly3+e+rFua3sJO7z4wZt54v6TrJdi0lVNLnupIkvRwE5qOXXnrB34gMN0DAcoQ3RazwqJIXIa6rqm70uK4cKlLT5brq4GGbu2prw8vy+Tz/SplxkhewEK98a7YRr1wWExCviL2k1mlFF9wm6SXJrpIxz1urZ421K5QzzxYKuRXde9gVT98wrIkd2z+uumpOry5dmmcZY0eXEiopdV1JVq8HoT5+6WemPEF0uAMClkMsXbp0UEtBj0vmiKIXIa6rqm70uK4cKlJtWl1X7fKKrL18zJjT7zDGpLFDgCJIVsBCvPKt2Ua8cllMQLwi9pJapxVfsCDp10ZaVgjMA6tvO/Ff7M7+c8MNtx4XhrpbskeUEiYpdV1J0mthaD522WUX/JHocAsELMdYvPiRwdYUfiLZQ6u/UnFdtXchp1xXCde9uK6KjtK4kvbPJHPBmDGn8Tn8DJKcgJXwS35t+sYU+96JeOWwmIB4RewltU5tDGe0f5QNllqFD66eW/9ndmq/aGhoCPr0GXCxZK+WVFdsmKTYdSVJ66zMJ6dPv+C3RIh7IGA5yIMPPjikJQx+IumQ6mUMXFftXQzXlUMFavZcV+1dv1nSLbW19gv5fH4jWTM7JCNgIV751mwjXrksJiBeEXtJrdOqXHCFtfahQFr4/Nz6n7Nru82MGbMOkMIFkv6nlBBJretq+0nXmyD85NSpF/2GCHETBCxHeeCBBw4qKPd/sjqgGiu1qEvgukqkgMJ1pcy7rtq61I4fPWMDe8n40fmHyZrZoPoCFuKVb8024pXLYgLiFbGX1DpN5DkhZjnM9dffOs4Ye6OkvYsNkZS7riRpo0zhhGnTLv4FEeIuCFgO0/jQQwcHzfqRjA5Ot3iF66qt+8B19eb4cV11smqtHrZWU8ePzz9N5kw31RWwEK98a7YRr1wWExCviL2k1qkTzwkxyxGuu25e7yDYdosUjiolPFLuupKk9TKFYYhX7oOA5TiLFy8eaE3tY7I6Kq6NDNfVmxfCdeVQYYrrqtSV2yyZW2SbvjRu3Lj1ZM90Uj0BC/HKt2Yb8cplMQHxithLap06+ZyetdYuQ8yqPtdff8ungkC3WashxYZHBlxXkuzrJrAn8LFBP0DA8oClS5f2b24OHpWxx0S9keG6evNiuK4cKkxxXZW6YnZmjZX5/Lgxp93JtxWmj+oIWIhXvjXbiFcuiwmIV8ReUuvU/edkZP9ppYWSuX/lnJP+xi4fD7Nmzdp761Z7tWTP3T7tCUeQO64rSfbl0BY+cdlll/AFBJ6AgOUJjY3f3yfIbfu+pPdEsYnhunrzQriuHCpKcV1VsnJ357dGunjs2DzfoJIi4hewEK98bLbToScgXnnxlBCvHI4372Pv78bYhUb2juduP/lZdvxowHXV3gmtJL1oFX5i+vSL/0qk+AMClkfcvXx5ny5N4Q9UsoiF66q9i+G6cqgoxXVV6oophoKsvT0ICl8ZM2bMi2RR/4lXwEK88rHZRrxyVUxAvCL2klqj3j+nUNKvrOzCMKe718yuf4Xdv3S2u650rRSeVUpYZMR1JUkrg1zuY5deev6/iRa/QMDyjLvuemSvrt1aHpF0fMlFbqJ7Ha6rtu4F15VwXUXrumqPDbLmW3V19vp8Pr+FTOovaRWwEK/KGxPilatiAuIVsZfUGrUpibc3/meTZB+10kJbo0VrZtdvphLonJkzZ51obXirpMHFhkVqXVe7nPSNbuNZY4KPTpt2wQqixT8QsDxk2bJl3Zu2aalkP150kZtcxur8MkmKV7iuEq8dcV1V9T5WGelr//73329vaGgIyab+EZ+AlTbxKo0iAuKVH2IC4hWxl9QaTZ14tfuYXpdsYyBzJy9/b5ubbrppQEtLzdVSOL6UkMiQ60qS/pWrKXzskksuWUXE+AkClqc88sgjXTZtKTQa2ZM7LHAT3edwXbV1L7iu5JTrKpH7qI7rqt1rG6PfS/aysWPP+CnZ1C/iEbAQr3xrthGvXBUTEK+IvaTWaOrFq91b2L/LaEFLGMx9Yd6wl5VxrLVmxoxZ442x10nap9iQyJLragdP1TSHH7/4cxevoaL0FwQsj3nkkUe6bNlSuNPKnl5yC4zrquqFBa6rN8eP6yqh+9jz9Ius1efHj88/TUb1g+gFLMQr35ptxCtXxQTEK2IvqTWaNfFqF5okPWqNWbB6SI8H1DC0JWt1wYwZt7zNGDPbWvv+UqYuY64rSfpNbZ098aKLLvov1aTfIGB5TmNjYy4Iutwoo/OLSga4rhIplnBdCddVwq6rDmi2sre1NJuvTZqUf4Gs6jbRCliIV7413IhXrgoKiFfEXlJrNNPi1e6sslbza23LnBXzR6xIez1w7bXXdsvlun9Jsp+RVFvs1GXQdSVJP6zrolMvvPDCjVSS/oOAlRIWLnnoc8bab+O6akeawHWVeM2I66qjHycjXu32q82y9oaWlrpvT5o04nWyqptEJ2AhXvnWcKdHT0ib+wrxirhLao0iXrVDaKQfh8bMXr1+8xItzBfSFs0zZ95ab61mSPbgUqYtg64rGemB19d3H9PQMGkrVWQ6QMBKEYuWPHihtWampKC6+xuuq7buBdeVcF2567pq49dvzM6rxujqlm2bZ0yaxGbvGtEIWIhXvjXciFeuCgqIV8RdUmsU8arITvc/krktzNk5a2bXv+L7fF177U2H5XK5GZIdVsq0ZdR1JRlzy7p1L13EFxelCwSslNG4+MExRma+SrCSRlJcJ76/4rpyrgjFddXJj51wXXV08CoZ87UutZqTz6fvXy99pXIBC/HKt4Yb8cpVQQHxirhLao0iXpVBk5EeKphwxpo5w3/h21zNmjWr+9at4Wclc4Vku5QyZVl0XUmSjL1q2rSLrqByTB8IWClk0aIHh1mZhZK6V6W4TnRvxXXlXAGK66qTH1X9Re0d/Kqoe/m7rK78z3+eWsS/YCVPZQIW4pVvDTfilcuCQrpiD/HK5VhLX9zZZP/F+bey5oZVB/a4z4eXvs+YccsoyXxHsvuXMmWZdV1JoYyZOm3alBuoGtMJAlZKWbjwwQ8oMMtl1Se2wjrxvRXXlXMFqN1jRhKr6XBddfSrsu7jr0bmK2PHnv6gMSaNnY4XlC9gIV751nAjXrksKOC+Iu4Qr6KZt0TH9JyMrgtzum3N7PrNrs3TDTfcelwY6ruSPrzLPCUpXrnuupKarcyZ06dPuYeKMb0gYKWYxsYHjzHGfF9GgyIvrBPdV3FdOVd44rrq5Efeua464g82UMOEMWcsI8tWn/IELMQr3xpuxCuXBQXEK+IO8SqaeXNmTK9IukmmduaqOSe8mvTNzJgx6wDJflPSGMmaUqYrw64rSdpkpdOmT7/w+1SL6QYBK+Xcu3TpoJpmPSzpnZEU1Ynvq7iunCs8cV118mOvXVcdXMD8xdrw6xMmjFpIpq0epQtYiFe+NdyIVy4LCohXxB3iVTTz5uSYNkqaa4PcNatvH7aq2he/5poFPerqNl0umc9K6uaj6yqW+ygiboz0Qqiwfvr0i39PpZh+ELAyQGNj494mqFssmY9VVFQnuqfiunKu6HTSdVXFe8mW66qD05lfGhN+fdy4Ud8j28ZPaQIW4pVvDTfilcuCAuIVsYd4Fc28OT+mbTJaEOb0tTWz65+P+2INDQ01ffoMOMdaXWmM+jkjXJUY8Am5riTpKZlg2LRpF6ygSswGCFgZobGxsc7kutwmqwklF9SJ76m4rpwrOpN0Xe02/7iuOvqVreb1n5D09XHj8kt5R1Z8FC9gIV751mwjXrksKCBeEXuIV9HMm1dj2ibZ+c3NLV968c6RL8WwBs3MmbeeIgXfkOyRHRS41Y8QD1xXO/i/Lk1mxJTPT3mNCjE7IGBlCGutWbTooa/I6MsdP3tcV23dC64r4brCddX5IcY8aWx49eDB/e8ZOtT9b/fxjeIELMQr35ptxCuXBQXEK2IvqTVqUxBrqRjPBknXasOWq1YtzG+J4oQzZsz64I73XH1oj7nBdVXs2RetW999fEPDpK1Uh9kCASuDLFq0dKKVbpNUW7IcgOsquwUnrqtOfpxJ11VHhzxrZGe89tpet15yybAmMm80dC5gIV751mwjXrksKCBeEXtJrVPEKwdZaWS/vPKAPyxQQ0NYzgmuv372e4wJvyzppE4K3OpHhj+uK1lp5vr1L09rKPM5gN8gYGWUxiVLP2FCLZK0V1GSAK6r7BacuK46+RGuqw5/arTCStd0qwvm5fPR/MtllulYwEK88q3ZRrxyWUxAvCL2klqnaROvUraejP4UhoUL18w75ZfF/snMmbceZa2+LumUN/tvXFd7nrTTs7fImAunTZsym4owuyBgZZhFi5a+3co+LGlwhykD11V2i02HxCtcVx39yhnXVUd/+LKVvUFhl5snThz5XzJwebQvYCFe+dZsI165LCYgXhF7Sa1TxCtP4s5Kuqu5ueUzHb0f68YbZx9RKNgvSnaMpFwnBW71o8Ij15WkjTImP23aFL40KOMgYGWcxsZl+5ugsMxK70puD8V15Vyxieuqkx/huqqgrNkkY+bkTMu1Y8eOfY4sXBptC1iIV74124hXLosJiFfEXlLrFPHKw9h71UiXrZx78vydf3j99Te/xZjgi5JGy0XhqsQAT9h1JUmrQhucfNllF/yRShAQsEDz5j3etUevdXMkjan+foPryrlCE9dVJz/GdRVRaRPK6pEg0FfHjRv1OzJxcewpYCFe+dbwIF65LCYgXhF7Sa1TxCvPY+//FJpzL3vHykIQBJ+TdJakmiIK3OpHhF+uKxnpjwWr4ZddduFKqkDYERMA27+hsHHRg181Ml+oTlzgunKu0MR11cmPcF3FVNZYWfMDYwrXjhs3+jFjTBor3sjYVcBCvPKt4UG8cllMQLwi9pJap4hXaYi9nFHLRwaty71r303GmHb+DtdVaWe3uteaprOnT5/OO1ThDRCwYBfuX/TAaGPNHEnd4t4AXPhyErurapPdIhPXVSc/xnUVW2mz62n+ZoxmtLRsuWvSJL4WuS3eFLAQr3xreBCvXBYTEK+IvaTWqU1JvGUnl3fGQb226dNDXlPP2oJwXbV1QlvkHdsvT5t24Tf4h03YHQQs2INFi5a+K5RdKqshcWQvXFcOFZm4rjr5Ea6r2Mqajk/zsrVmbi7XfOO4ceNWkZXfZLuA1fKyG00KTVyxY0K8cllMQLwi9pJap4hXaY29LrlQn9j/dR3ZZ0sJZqPkA9sF15WRtoYyZ0+fPuUeqj5oJ0YA9uTee5cOyuXCB2XMe6LMXi6IV7iudp17XFft/RjXVWylTfHF3DZJS8NA104aN+rXZOZkBSzEq/LGhHjlspiAeEXsJbVOEa+yEHtv32eTPjZonWoCW/1I8M91JRmtsTYcPn36xb+n4oP2wwSgHZYtW9Z9y9bCHZJOqzR74bpyqMDEddXJj3BdxVbW2AoONfqpsbpxy5Z1D06ePLk5q3k5KQEL8aq8MSFeuSwmIF4Re0mtU8SrLMVev27bdMqBr2nvupbqRYJv77rafuRvjKkZMW3a5LV04dARCFjQWTFkFi5e2iCrL5UeL7iunCsucV118mNcV7GVNhVb6N8I3jUKNDtQy+zx48dnrshJQsBCvCpvTIhXLosJiFfEXlLrFPEqi7FXlws1bPDrOnzvLfHOmIeuK7v9tu/dsKH7WQ0NvP8UOgcBC4pi4cIlJ1kFd0nau9gMhuvKoeIS11UnP8J1FVtZY6M4tM3fFCR9TzaYMWFC/kdZeclntQUsxKvyxoR45bKYgHhF7CW1ThGvshp71m5vuo8fsF7/r98GGZNsQDvkuipYa74wffoFV/OydigWBCwomvvuW3JEkAsekHRUZ9kL15VDhSWuq05+jOsqttImKtdV52f4p0xwS7cuwZx8Pr8xzXm4mgIW4lV5Y0K8cllMQLwi9pJap4hXWY69neftrb236NNDXuvwvVhxBrMrritJ/w1DO/ozn7noUbpsKAUELCiJu+56ZK+6Lk0LJDO8rXSE68qhUzEK+gAAU25JREFUwhLXVSc/wnUVW1kTn+uqM9Zb6Z6cMbeNHz/qD2nMwdUSsBCvyhsT4pXLYgLiFbGX1DpFvMpy7LUVb/v32KYRB/9X3XJh1YLZxj5lxYtXxuiJIKgZeemlk5+nu4ZSQcCCcgom07ho6WeN9A1JOSdf1I7raqf/wnW1549xXcVW2lQsXtloYt/avxtjFjQ3524755z8q2nJv9UQsBCvyhsT4pWLYoL5tS3kxkrpfa2KMcHehZyty1mzT2h1UGDNYdbYIyS9V1I/Yq+a8ZbevId4FX289e3aopEH/7fNl7tHHcgOua4k6a4ePWomT548eTNdNZS17zEFUC6NjUtPkAnvsVKf5PdqXFe7NO9JTQSuqxJ+hesq0ntp/0+3SlomBbMnTjzjMd/zbtwCFuJVeWNCvHJWTHj8udtO+Gg2qzRrDjr3kXdYG3zCyuYlHZf12EO8imLeEK+ijLe961qUP/QV9a4rxBLILrmuJLVYa7542WVTrqKLhkpAwIKKuO++Bw4NcnaJlXl7cvsarqud5x7XVXs/xnUVW2njiOuqCP4imduam4N7fHVlxSlgIV6VNybEK5fFBPv4c7d9OqMC1q4MOfd77zFhOEXGjJbUJWuxh3gVxbwhXsURb3vVFXTGIS+rd5dCpCd2yXVljNaEoU6/7LILf0k2hkpBwIKKmTdvXtfuPXvfKquJ1d50cF0J11WWXVdFnDKjrqvO/qRJ0qPWmAXbtqx7cPLkyc2+5Nu4BCzEq/LGhHjlsphgJQkBazcGTfrBkJpc4YuSzpEUZCH2EK+imDfEqzjjrUdtQWcc+l/t26W54pM65rqSZH5hTO70adMmryUDQxQgYEFkNDY+cKmVrpZUV41NB9eVcF11+mNcV7GVNv64rjo7fK2svTMIgvkTJox6yvU8G4eAhXhV3pgQr1wWE964CAJWOww593vvMTa8UTLvTXPsIV5FMW+IV9WIt561BY097GXttfvHCT11XUmyxpgZ3bvnPuvTPxSC+yBgQaTcu2jpcSYM7zfSIXFtOLiuhOsK11UZv86866qY3zxhZO+srTV3jxkz5hUXc2zUAhbiVXljQrxyWUzY5SIIWB1xemPugN49PyOrK1X1jxUiXjmbFRCvEou3vl1bNPrQl9W1JvTcdaX1kj13+vSLGkm0EDUIWBA5jY2N+1jVzpdUH3UmxXUlXFed/hjXVWylTXpcV539dquRWSaFd3frVvu9fD6/zZX8GqWAhXhV3pgQr1wWE/a4CAJWEQw5e/nbjAnukPTutMQe4lUU84Z4lUS8DenZpNMPfkU5Y5MZUWXClYzRE5LJT5s25RmyK8QBAhbElMitWbjwwUui+Ughrqudx47rqr0f4bqKraxJt+uqM143ssskLXj22X//uKGhIUwyB0UlYCFelTcmxCuXxYQ2L4KAVSSHXfxIl6Yt5rtG9kLfYw/xKop5Q7xKMt6O7L1FJw75r4yp8mgqFK8kc6e0dfL06dO3kFUhLhCwIFbuu2/xe0wQNEo6qNxMiutK2XZdtXMpXFedHYLrKoaTrZLsEkkLzjxz7BNJpIIoBCzEq/LGhHjlspjQ7kUQsEpkyNmPnGKM5knq7WPsIV5FMW+IVy7E24cGrNP/67ehOqOpWLjSBsmeN336RfeRRSFuELAgdu65Z1nfmpqWBVb6dCmZFNeVcF3huirjEFxXMZ+slb8YY+8xptA4YcKEZ6u1JCsVsBCvyhsT4pXLYkKHF0HAKoPBk5cdHhRySyS9zafYQ7yKYt4Qr1yJt8BIIw9+RQf33BrvSCp3Xf3Z2jB/2WUX/YvsCdUAAQuqtDm+8ZHCayTVdpYWcV0J1xWuqzIOwXUV88na4+/W2oWFmvCuc8aPfzrOZVGJgIV4Vd6YEK9cFhM6vQgCVpnsN+Xxnt2at8yV1ek+xB7iVRTzhnjlWrx1zYWacPhL2ruuxUXXlSRzZ48eufMnT568mawJ1QIBC6rK/fcv/bBMeJekIW2lRVxXwnWF66qMQ3BdxXyyYv/MWunXxqqxpTZcdO64cauiDo9yBSzEq/LGhHjlcnNX1EUQsCqbY3PAud/7rKy+ISnnauwhXkUxb4hXrsZb/27NGnvYiwpMXFNTlni13hhNmTbtwrvJk1BtELCg6jQ2Nu4j1d5mpZE7p0VcV8J1heuqjENwXcV8snL/NJTMr4zCRmNaFk+cOHF1FI/JLQEL8SrLTVyyzV3RF/nJc7d9eiiVV2UMOfd7nzKyjbLay7XYQ7yKYt4Qr9yNt+28r98GfWjAuoinpexvOfyNMWYM3zIISYGABYlx38IHJxhbuNnK9HBh/8R11WYLl1idgeuqSveB6yqm297jiL/LamEul7t/woRRT5U7XeUIWIhXpY8J8crl5q6ki+DAioghZy9/mzHB9yQNdiX2EK+imDfEK3fjbeeG3Sp/6Csa0qMpomkpS7yykm5Yv36/yxsa8tvIipDcegBIkHsWLXprEObukbXvSm4jx3XVRvuWaJ3hguuqKveB6yrCw51wXRV7xDM21HJrzcKzzhr9C2NM0XdTqoCFeFX6mBCvXG7uSr4IDqwIOfjshw8sGH1fMm9NOvYQr6KYN8Qrd+NtzzHtVduiM9/ykuqCSuqdsl1Xq4wJx0+bdvFPyISQNAhYkDiPPPJIlw0btn7LSlOrHZMuiFe4rtr7Ea4rXFfF/kl1xCsb1Yl3PWyFZB40xj7QvXvtL/L5fKGjPy1FwEK8Kn1MiFcuN3dlXQQHVsQcev4P+jW3FH4i6cikYg/xKop5Q7xyN97aH9O79t2kj+3/epl/XrZ4tUTqcu706ee8SgYEF0DAAme4//7FH7cyd0gaFP8mjuuqjdYt0RoD11Vnh+C6ivlkFf6pjeIkr0r6kTFabu22hyZNmrRHlVqsgIV4VfqYEK9cbu7KvggCVgwMPn/Z/kFL7qeSDql27CFeRTFviFfuxlvHYzKSzjj0FQ3u7KOE0QhXWyR9fvr0C2eQ9cAlELDAKRYsWdKvrkXzZfXp+DZxXFdttG6J1Re4rqp0H7iuYrptG9f1myX9VLLLCwW7/Jxzxj8tFSdgIV6VPibEK5ebu4ouwkcIY+LAc35wsFXhp3rjnViIV85mBcQrT+KtuDH17dqiCUe8pKC9Y6IRr/5kjMZMm3bhUwJwDAQscHCjtea+xgcuNtK3JXWL8LxO7K+4rtr7Ea6r2IoyXFcx3baN9fq7/fk/jOyy59Z1+/mCf+y1tLoFd/obnnQIWIhXbYADK0YOOPf7R8uGP5ds73TEW/ryHuKVL/FW2pg+Nmid3tV3Ywd/VrZwFRpjr8/lwv+95JJLmgTgIAhY4Cz33ffAoTL2DknHV74R4bra8//iusJ1VcyhuK7KPnEMut+WlkDffaJvFQtuxKssN3HJNneRXAQBK2YOOmfZR0IFP5BU53e8pS/vIV75Em+lj6lrTaizj3hR3WrCNv6sbPHqOWs16bLLLnyczAYuEzAF4CqjRo34T/9+fT4io69o+8dpytiEbLLilZUz4pXVzveRAfGqk2HaUg6O4frtH+KS66p64lXHV7OlDyhJ8SqCqSv1zxGvyhsT4pWrzV0aYy+drLi9/ifGmgv8jrf0xR7ilS/xVt6YtrYE+tVLvXYrGIqrHto5ak5NTeHtiFfgAwhY4DRDhw5tGZUf+dXAmPdL+ntpm5AbritbTcGond0pEddVh+JVzHNiS7m1lH1ksISptXHcRxmP1hXXlY1iYNX9tGWMBTfiVZabuGSbu0gvwicNqsBzc4bNlXSN/2IC4lWW854v4lUrf/pvT73WVFPS37dx1IuSTp4+/cJzLrnkkvVkM/ABBCzwgnx+xBNbNq871khXSSp0vAHhutqz5U7edVUVEc1r15WNZe5LP9RT11UFt+6P66oN+RWjSllPGfHK1ebO+j1JGeb5wb+7QrKP+CsmIF5lOe/5Jl5JUmilX77US+W7rsziMKx52/TpFy4jg4FP8C9T4B3337/4w1aaL5mD99yAeNfVnv83OeGqqvfh5buuIroX3nUV020n966r9o7a/g6s/WIuuNPW9CBe+dHcxXIRvoWwihxwwfI+atZvJXOYX2IC4lWW856P4lUrgZHGH/qi9uvWXMoVXrfWXHzZZVPuImuBj+DAAu8444xTf9qta807JN3+5uaD62q3WxGuqzZbV+G6iriAwnUVZ+i0Hz2IVx42KjyjrMZdVnj+lpNes1YjJLvRnzWKeJXlHOGzeCVtd2H9aG3vNsfRVvVgjB6tqSkcg3gFPoOABV4yfPjwDaPOGHmuNfYkK7sq6T2Vd121tyXzriv333VlY79+caO2sV+/uD9z6V1XtsoFd7qbHsQrVxs8xKs0sXLOSX+zCs7xQ0xAvMpy3vNdvGpl1aYu+se67p2dfYOkC6dOnfKpSy65ZJUAPAYBC7xmdP7Uh3Om8DZZe1vVd21cV520/q64rmK4F1xXEU4XrquSjkK8KmtMvCvM1QaPB5NGVt4+7H5ZzXdbTEC88i2P+5Xbqjumx9furaZC0Gb1YK35QRjaY6ZPv/BmYwxJF7ynhikA38nn8+sknXfPPUvuM4G9TdIh1dh7eNdVQvfBu64qPJR3XZV94gRdV/EuLcSrLDdyyTV49FFppmlbzUVdurS8T9KR7okJiFdZznlpE68kaXNLTr9+uZc+PGDdGz8zRq9Za6ZddtmUO8hIkCZwYEFqGDNm5I9zQeFtMp1/U2FF+w6uq7amJP4CCtdVBIfiuirrxC64rhCvyhoT4pWPDR6kgRfv/NQma21e0ma3Yg3xKss5L43iVStPvNJLrza1elPMcmuDY6ZPR7yC9IGABakin89vGX3GqVfIhh+W9I+o9x3eddVumyi33nVlq3b9jg+xVbt+xyPnXVdlnzi1rqv0Nz2IVy43eChkWWDlnJP+Jqvp7ogJiFdZznlpFq+k7S90f2xNn23Wmvz06VPqp0+/YDVZCNIIAhakktGjT//l+nWvvF3WXCFpW8V7jnMfGcR11faVU+i6qvjTbbiuyjpxql1X6W96EK9cbvAQr7LE83NOnGWle5IXExCvspzz0i5etbJyY5e67/51SDOZB9IMAhaklsmTJzePHj3yKiO9X9Kfy91zXHJdVVVEw3VV5iG4riqeE1xXNHIVjAnxyuUGD/Eqi2yt6z7ZSP9Kbo0iXmU552VFvGrFmHDGoPOWdSfzQFpBwILUM2rUqX8Y0H+f44zsVEkbS+mEcV211/rjusJ1Vczt4roq6aiqLHHEqyw3csk2eIhXWeXlm4duDEONlbQN8SqKNYp45VZucy72Dghaws+SeSCtIGBBJhg6dGjLqFGnzcgFhbdL9nud7Te4rjragnFdxVak4LqK4bZxXWWl6UG8crnBQ7zKOivnnvh7G5orMyIgxLhGEa/cym1uxp61+mz/cx46mMwDaQQBCzJFPp9/dvSo04ZZY0+WtLKtPhfXVXutf7IfGYy1MMB1FeHtZst1Vfx9JOm6Sn/Tg3jlcoOHeAXbWXnAb78t6WfMRLlrFPHKrdzmdM7rVhuG17KCII0gYEEmGXPGactyQeEYI90sKWzda3Bdtbf9JvORQVxXxYwc11XZJ7axhW5xF7HVTDLpbXoQr1xu8BCvYCcaGkJj7ZmS3UjslbpGEa/cym3ux5215pTBZz30aRIPpA0ELMgs+Xx+3ahRp14oaz9gpT9bXFdtXB3XFa6rYm4X11VJF6mqTo54leVGLtkGD/EK9uT5uSc9I2OuIPZcWKPpy3mIV7vPh5152MWPdCHzQJpAwILMM3r0ab8ZOGCf44zs5ZI2VW2Pw3VV5K9wXZU0gRXMfXm3i+uqpItUtb5FvMpyI5dsg4d4Be2z8vZhN0v6HrFX7BpN23pCvKoih23d0DKVrANpAgELQNtf8j569OnfsaE5WrIPVXOPq8o3+3Wyx+K66uwQXFeKYk5wXVWxREa8ynIjl2yDh3gFnWGsbQ7PlfQasdfZGmU9uZPb/Iw7a+wXB09Ytj9RAmkBAQtgJ8aOPfW5MaNPH25DnWikp+Pc43Z1XVVh88N1VeYhuK4qnhNcV1UukRGvfBtTeho8mm3onOuvv63/Z497qe9RfbbMI/Y6WqO898qd3OZ13PVULryGzANpwTAFAG3zyCOPdHlt3abLjMz/SuoR5f7miuuqahtw0q6rsg6puurgjOsq0kItaddV7I+vusLVlpZA331iv4wJCIhXfjR4Tj6cnzx326eHUtFUh2uvvbZb91z3wS25moHGhEPCMBgYBBos2UHWapCkwZIGSqpr/ZsHn91H/3y9axZEhBLXKOKVO7ktHbFnbDh01fwRPyFTge8gYAF0wr33PjjEqvlayZxW6d7mgnC1549T+nHBIk/piusq8sIocq3Jo48LRvAIbfQBHsl9dCxgIV5ltYlLvsFz9uH833O3ffojVDKVMWvWrO6S+ra0mP7GaKC1GiyZAdbqgCDQAGs1WNsFqj6lRsPmlpzmPLWfNrcEaYu9CtYo4pU7uS1VsffX1Qfu9W41DG0hq4HP1DAFAB0zevQpKyWdfu+9Cz9mZW6QdGQ5+xquq45+hesq0nvBdRXz43Pp44LZaHgQr1xu8CwT7hENDQ01++13YF9rm/cNgpq+hYLta0zYzxj1lcy+ku1rjPpaq/0k7Sdp35YWdW8rpozZ8f9t+ZPdvaagj+6/Xsuf683jZUyO5bbUPadjBj27bsoaaSaZEHwGBxZACcyaNau2V6++l0j2KzLqVcy+huuqo1/huor0Pjx1XUV2Hyl1Xe1M2w4sxCsa06QaPOcfTio/QtjQ0BD069dvb2O67W1ty16FgumVy5m9wlC9giDsHYbB3kEQ7heGQV9j7BvClLYLUn0ifZY2mkhY8sw++ve6rmmKvTLWKeKVO7ktfbG3Y97W17a0vPW5u05dS1cHvoIDC6AEJk+e3Czpu3feufieXE7XyNgx2lkIxnVVwq9wXUV6L7iuYn58Lrqu0t/wIF653OBhbiqWxsbGuldeeaWHMT1rrW3pGYYtNUFgeknqHgTqZa3Zy1q7l7WmdxBorzA0vYLA7mWtekl2b2tNb7P9H832ktRLUk9ZKbQFSUZBIFlrdziijIyxb/x3588qWeGqlU8OeV3Pb+yvpoLJTOwhXrma29IXezvN217NNTVfl3Q2mRl8BQcWQAXcc0/j+2WC6yS9D9dVsb/CdRXpfeC6qsKjc0W8sjscWP0y0fAgXrnc4PnxcLrVhH++5JgXP2OM7WWt3eMfbYPAdAtDs4ftx5iwzto3v7zFGPUyJqiRbM9QqrUF9TDG1Em2u6QukrpJpqtku0nquv0/pptku0hvfvwuqrmL7hm7IV61numPr/TUD1funUoBoeNniHjlTm5LX+y1MW+hkTl+9fyTf00nBz6CgAVQ8cZgzT33LDrNGHO1pINwXXX0K1xXkd5Lll1XETxGv1xX2498U8BCvMpqE5d8g+fPwzmg1zaNOfyV6EZtE547G9XsuyJc7bnu7//PvnpuQ9dUCQgdr1PEK3dyWzryXnHzZp5Yc9Af3quGhpBODnwjYAoAKsMYY8eOPX1hTU14lLX2Csmur8pGZ5WseGXVofPLFntwjLWEK64rW+oEVjD35d2ujf36xd+HjfX6xf+5O66rPY9EvMpqE5d8g2cz+QwqF68q3wNt6sSrPefEGOlTQ9apJrCpERA6XqeIV+7ktjTlvWLmLTx24Ip38TFC8BIELICIyOfzW8aOPf2qsBC8VcbMllSo5l66aykYg2BUdm8fg3Blyzkkojkp4TTuf2QwciWsgiu55LqykU1XZaexsVzf5YYH8crlBs+/h2OtqXytVrzuInBd2aieny37z6JNP+2fqU+XFn1wwPpUCAgdr1PEK8aU1J6w/ZfG2m8OPrtxHzo48A0ELICIGT/+1LVjR582OQyC90r6v8j3UVxXZRySXddVZCIarqsqhlAbd5va92UjXsXbqNCYVjRiXFcRP/3i5uQ9/TepX7fmVMUe4pXL+S1dea8Y8UqSZNQ3LNR9lc4NfAMBCyAmxo869Q9jx5z+ESNzsoyejmMfxXXV2SG4riJpqnBdVTGEsuK62nWsiFcuN3fZEq9wXanqrqs9mhNrdcKQ1xUYxKss5z3Eq6jnrM1fnr//mQ+8k64NfAIBCyBmxow5bVltzh4ta6dKKv1tsriuyjwE11XFc4LrqoohlCXX1a6DQ7xyubnLnniF6yrqJ1/ivwDtOHRg9216x76b/I8pxCuH81u68l4Z4pUk5azMjZLli93AGxCwAKpAPp/fNnZsfkZtjT1YVldIWl/uHorrqrNDcF1F0lThuqpiCGXJdbXreBGvXG7usiNevbHkcF0l5rpqKw3+z8AN6lVX8DeuEK8czm/pyntliletHD9w0oNj6dbAFxCwAKpIPp/fOHbs6VcZNR8qo6skbSul/sR11dkhuK4qnhNcV1UMoay5rnYdIOKVy81dtsSryvIOrquK5mS3Q3f+v3W5UEMHrUuBoIB45VZ+S1feq1C8kiQZa75zyHmNe9OpgQ8gYAEkwJgxY14ZO/r0K3JB4RgZLdTupqoO6ztcV7iuir0PXFdF3ymuq6o2B4hXLjd32RCvcF3JSdfV7ry191YdutdWjwUFxCu38luW8l5JY+q/tanui3Ro4AMIWAAJMmrUqH+NHX163gbB+2Tt47iuyjmkuq6rju+jeuIVrqtS/xzXlSuFNOKVy81ddsQrXFdRP/FoXFdt8bH916km8CM2Ea9czm/py3vtz1sZYzK6dOD4JUfSnYHrIGABOMC4Uaf+buzY/Eel4BOS/rhnQZdi11URp3TJdRW5iBapUQrXVUl3iuuq6s0B4pXLzV0Kg9G2808vuK6cdl3tTu8uBb2v30bPwg3xyq38lr68F6l4tZ1akwtuoCsD10HAAnCIsWNPfezf/37yOGvMeElPx765uuC6KkK8iq3gwHUVw23juirqbjPziiHEKz+au/QFpG1DvMJ1FfXTjs91tTv/r/9G7dOlxRMxAfHKrfyWvrwXg3jVyscGTnzgVDoycBkELADHaGhoCMeNOe2up//95FuMlLfSf6q9b+O6KuZQXFdlnxjXVUZAvPKjuUu3eIXrSl66rnYnZ6w+Nnido/GW7vWEeOVyvEU/JmPMdf3H/6AHHRm4CgIWgKM0NDSEY8eevnDzxteONNJkGa2ObM/GdVXBobiuyj5xplxXEXVtKWh4EK9cbu7S77zCdRX1k66e62p3Du7VpMP23upYvKU9ySNeuRtvsY1pSC639XN0YuAqCFgAjjN58uTmsWPzs+tqdIiRJktaG8eejeuqmENxXZV94thdVx0clYjrykZ+fR8bHsQrl5u7DIhXSc4PrqtYou3jg9ep1pEXuiNeuZzf0pf3qiRetZ7zs4PPXHY4XRi4CAIWgCfk8/ltY8fmZ4eFrYdbaaqkF6Oof3FdFXsfuK7KOnHVXFdWboRQfK4rP3QwxCs/mrtsiFc2oZWG6yq+vLVXbYve68AL3RGvXM5v6ct71RWvJEldQhW+S/cFLoKABeAZEyZM2DR+bH5GXa0OM7JXSHq93P3aBddV+/eB6yrGk1V427iuqt21efIF8o40Kf42PIhX5c5b22My1Z4bXFcxRtqbo3pPvw3qXhM6IiYgXrmV39KX9xIQr1qp33/i0hPpvMA1ELAAPCWfz28cO/aMq5q2djlgh5D1arH1r0uuq9hENFxXMdw2rqtqd23+fPoQ8cqP5o6PDca10nBdxZm3dj1bXWD1/v7rHRATEK/cym/py3sJilfbr2LsjIPOfLwrXRe4BAIWgOecffbwDWPHnnFVXa0OtNJUWb2A66rSQ3FdlX1iXFcZLLkRr/xo7hCv4kpauK7iirL2R/WuvpvUu0tLgusU8cqt/Ja+vJe0eLWDQ5vM+ml0W+ASCFgAKSGfz28cPzY/Iwy3Hmatpkpa03EZiOsqsgaizGH44boq8l5wXVVzGTnZ8CBeudzcIV7FsdJwXcWZt2ynDczx/TYktE4Rr9zKb+nLe46IV5IkY+0XB569+EA6LXAFBCyAlDFhwoRN48fnZ+yzT89DjNFkSatwXRVzKK6rsu8F11VGy23EKz+aO8SrOJIWrqu4Iqz4b305ap/N6tetucrrFPHKrfyWvrznkni1g+6mkLuKDgtcAQELIKUMGzasaezY/Oy6Oh0qayZKehrXVYQNRJnDwHVV6p/junK94UG8crm5Q7yKeqVl2nUVbxosuZgwkj4Y87uwEK9czm/py3sOiletnLH/pIc+SncFLoCABZBy8vn8tvHjT1+wedNrR1ljzpH0dDVrBFxXxVwN11VJR2XadeVCYU4T50dzh3gVddLKvOsqtjRYvOtqdw7de6uG9NxWhXVK3nMrv6Uv7zksXu24v/CGY8+bVUtnBUmDgAWQESZPntw8YWx+zn+efuotNtDJkn4dd62J66qYq+G6KumozLqudupeHWp40uG+Qrzyo7mzVVlp7T0zXFdxRVdZxcQuP/7QgHUxr1PEK7fyW/rynuvi1Q6OWrOt34V0VJA0hikAyC4L7mn8oEJ9zsieWHQ+KNt1Vd3aJDLBqMI/tdU5WYV/5sk3DFY1hGLt2Ep3Xe34gy0tga79Yz8nmgPEK1ebO8SrVg7ouU1jjniloqlMl3BV2UZa9fsoYTtY/Oy+emZ91xjWKeKVW/ktfXnPE/GqlfW1LYW3PnfXqWvpoiApcGABZJgJY/I/nzAuXy9r32Vk75TU0mFtgOuqpMNxXZXy57iu2j3aiRoW8cqP5g7xKqrZwHUVZ2RV7rranQ8PWB/Jv8ojXrmc39KX9zwTryRpr+aa3DfpoCBJELAAQOPHj/rzuHGjJrTkwsONNFPS5lL3Ud51VezVeNdVSUdl+V1XzrzZHfHKj+YO8SqqaeRdV3GlwfLfddXZPezXrVlH9dkc4TpFvHIrv6Uv73koXrUyceCZD36I7gmSAgELAN5g0ujRK8aNO+PS5jpzkKyulNV/cV1FVZqX8a/fWXdd2WqGEK6rYuYF8crV5g7xKqpnhesqrqiK3nW1Ox8csEE5YyNYp4hXbuW39OU9j8UrSTLGaIZOb8zROUESIGABwB6clc+/PH78GQ1dupiDjLGXSPpPcdssrqtIChJcV1UMIVxXfjQqNDxZGlPVxStcV3GmQcXlutqdvepa9I59N5cRb+QI//YExKuEQ+pd+/esO4eOCZIAAQsA2iWfz28cN27UDf/5z1NHhKE+Ya1Z3rr38qL2Ygp9XFclHZUi11Xp92EdrF2tI42Kx22jrd4zSs+cVd8hx4va44qoTpJ6BK6r3Xl///WqC2yZaxTxyp3cls68lwrx6s2xfHPQecv6stNDtalhCgCgMxoaGkJJj0l6bN7dje/MheEFkpkgqWtkG2+qvmGwjBNm+RsGqx5Cbn7DoKtNT3rEq7R9dBDxyo1nVHnyTsx1FWs0Vcd1tTvda0Idt99G/fLFXiU+f8Qrd3JbOvNemsSrHeyjpvCrkqbQKUE1wYEFACUxaWz+TxPGj5pckyscZBVeKdlXKj5pll1X0fQ/5Z8Y11VCpbWrrqtdR4F45WqDh3hV6fNxQbxK9CODsUVT9V1Xu/OefhvUvaZQwhpFvHInt6Uz76VQvNqOsZMHnPnQe+iOoJogYAFAWYwZM+bFieNHN7z+2l6DjTRR0t+irnOLO7TCz90l/a4rG8dt866rTo+M4V1XJYlXzr7rCvHK7wbP1+bOevh8KkveibyoPSXvuuqMuiDU+/ptKDIGEK/8yG2IV65qCYEJZ0jWsJNBtSDYACCqBsTceWfjJ7X9pe8nqDOB3EPXVeSNTCy3nQ3hqrTTuOS6quz6W1oCXfvHfrE3CIhXLjd4uK+KZUjPbRp7xCsRPxvedVXyfdhqRvL2s7aERnP+MUDrm3MdrFHEK7dyW/pyXsrFqzcFBWPOXD1v+B10Q1ANcGABQFSbl50w4YwfTBg/6sRcUDjcylwl6ZU292xcVzHcNq6rTo/EdVXUM0O8crnBQ7xK9tnguip5TqomXu06sprA6gMD1ncQB4hXbuW29OW8rIhX28caXnXIeY170w1BNUDAAoDIGTt27DMTx59xxeuv7TVYVnkj/aLUPZt3XZXyZ7zrqtMjeddVUaNBvHK5wUO8Su7ZVPAvD+JdVzFsBZ3PiZWO7r1Jfbu0tBEHiFdu5bb05bwsiVc7xtR/y7baL9MBQTXgI4QAUBXmz288NgjC8ySNk9S99K2dbxgs+8SZ+shgur9hMPqPECJe+dHgIV6Vw5Ce2zTm8FeqP/d8w2CVorjzC/17XTc9sGLfLAgInua29OW8DIpXrf+zJTDm3avmn/JXuh6IExxYAFAVzjwz/8SECaMmFwpd9jdGUyU9W/zWjuuqrBOnyHXll3gVn+sqro/+IF653OAhXiUXS7iuSpoTB1xXu//48L23aP/u27IhIHiX29KX8zIrXkmSUU0oexMvdIe4QcACgKoyadKI18ePHzWja9fgcGPscGP0PSuFvOuq2D/LzruuSruP9L/rCvHKraYH8arcebPpjCXedVWlCO5AJWuHDw9aJ8Qr13Jb+nJepsWrN/nQ/hMfPJ1uB+IEhRQAEueOOxr3V1AYJ2vOl3RQxRs+3zAY89TxDYPtHhmzcLWlJdB1FX+EEPHKjwYP8apSSv8IId8wWPJ9JPANg+Xc3qJn9tWzG7pmQUDwILelL+chXu3y61WFsPtbX7zzU5vocCAOcGABQOJMnJhfPXH86KuefeYfh8qaT0h2oaTmsvZUXFcxl464rto82gvX1a5nRLxyucFDvPIijnBdVTFvlSZe7f4X/zNofYr+1R7xyq3clp08XtSYjAYHNVs+T3cDcYEDCwCc5M477xwYqmaCsTrPSodEXfvguir1z3FdtXtkFYWryhxYiFd+NHiIV1FRnAML11XJ9+GJ62p3lj3XR/94vTs5L7Hclr6ch3jVLttMaI9ZvWDkv+hoIGpwYAGAk4wfP37txPGjr3rmmX8eLht8QtJCSdva3E9xXcVcjuC6avNob1xXu54V8crlBg/xyvkYwnVVpcit3HW1Ox8euF4B/3SfUG5LX85DvOqQOhuYG1hdEAekcQDwhnvuuad/S4smWpkzJR2J6yruUgTXVbtHJiRclefAQrzyo8FDvIqa9h1YuK5Kvg9PXVe78+jq3vrTKz3Ie07sCYhX6Y87c/Ka+acso4OBKEHAAgAvmT//7mODIJhgrcZI6lvZ9hupElbBn9lYr1/an7vkuoqvNrSlHh1TbVrsabc0B7ruT/3KOjPilcsNHuJVHLQtYFX2jxU2iWdu444Wl1xX8W5Hm1pyuu2p/moOfWuB0iZe+Zv3EK9KEhqeqdXrR6+YP2krnQtEBR8hBAAvOfPMsU9MmDD60nXr9h5sjD1Z2z9i2NLW1ms73Jg9Eq8i+KyIreQiEX1WpfjTuOS6srG5rmxJB9qyRoh45XKDh3hVvdgpX7yK9qN6LrmuSv9MXjyfnrZl3V6p9Kgp6Ni+GzOf9xCvop43xKt2znBIs+n9GboWiBIcWACQGu68886BYVibl+wkSe/AdVXqn+O6avPohF1XOwtXW1oCXfen/iWdHfHK5QYP8SpO3nRg4boq+V5S5LranaZCoNv+0V9bWnz4d3zEK3dyW5ZyuY1y3rZYo6NemD9iBZ0KRAEOLABIDePHj187ceKoGRMnjn6nteFxMpop6ZU9N2VcV0VfBNdVLGVhOeJVOaNEvHK5wUO8cjZ2cF3FtRV0PicxuK52p0su1Hv388GFhXjlTm7LUi63Uc9bN2PtNXQpEBUIWACQSs48c+wTZ04YfakNtw6xxuSttFSyTfEpDaX8WfW+YbAiEY1vGEyuLLStlR/iFeKVLw2eTUeo8Q2DVYjW6L9hsFTe3XejetUWMpX3EK/imLc0fnQwjnkzpw08c8kJzApEAR8hBIDMMG/evN7G1J0sE5wu2RMk1URdk7jwDYMV3wffMJhs2d6B66rjjxAiXvnR4CFeVYshPZva+RbCai1/T75hsJ1DfPuGwVLv4y+v9tAPVvbJRN5DvIpj3njvVYnz9tTaLi+9Q7MnN9ORQCUgYAFAJrnjjsb9pebTrILTJXt8pXs377qK4D5411WnR7cvYCFe+dHgIV5Vk6IELN51VaVIrf67rjo7c2ilef/sr1ebalOd9xCv4pg3xKty5s1Kn3nhjhHfpQuBSkDAAoDMs2DBfUcWbOEMY80YSYdHv+Xjuqp215Ym19XOtC1gIV750eAhXlWbTgUsXFdVilJ3XFe7/89/ruuuh57bJ9V5L9lliniVpT23iFjbUJML3rpy7vA1dB9QLrwDCwAyz4QJo56aNHFsw8SJo99ijD4gmRslvVj5ls+7roq6W951VcFNIF750dwhXrkaZpl911VVxKvk33XV5kV3+p9H7LVZg7pvS23eQ7yKes4QryqMtV4tLeG36TygEhCwAAB2YIyxEyeO+dWZZ46+eMWKfw0KAn1IsjMlrS29yOYbBju92xhe1F7SHXv5DYNtjxjxyuXmDvHKuRCzGf2GwXYumKZvGOzwom1c3xjpwwPWpTLvIV5FPWeIV5HEmtG4AeOX/A9dB5TdrzEFAAAd09DQEBxyyBEfCEN7umROs9KgiouBLL/rKuI6MI3vumqPNz9CiHjlR3OHeJUke3yEMBbXVXmH8q6raqyS4l9wtvCZvlqxsWtq8h7iVdRzhngVcaz9be1zvd+lnwxtocuAUkHAAgAogYaGhmDIIUd8wIT2dCNzmnYRs3jXVbW7trS+66o9tgtY/RxpUvxteBCvyp03v8b0hoDFu66qFJ3uvuuqs6Nf3FKnu57uV+WcinjlTm7LVi5PWLza8bfmwhcWnHIznQWUCgIWAECZ7CpmaTcxK/p6AddVuafy23W1MzsLWIhXLjd3iFcuMKRnk8Yc9krETwTXVRQXcsF1tfshy57bR/9c193rvId4FfWcIV7FGGuv2aD5LS/My79MRwGlgIAFABABrWJWLrTDJZ1ipcOirBdwXVVwH567rnamVcBCvHK5uUO8coUhPZo0uqNvIYzz2eK6qvIKsSVfYPfDXttWo3n/6K8w9vYI8cqt/JadXO6QeNXK7LV3jJhMFwGlgIAFABADc+fefYjJqV6hTpf0gXLzLa6rck+VHtfVzmxpCXTtH/tRSDvb3CFeucTgHru9A6sazxXXVQKro3zX1e78cFUf/eXVHt7lCMSrqOcN8apKsRZaq/e/sGDEb+kcoFgQsAAAYmbBggX9wjB3gqTTrdUnJdVFU2rgumr3yBS5rnYmPQIW4pUfzZ3fY4pGwMJ1FcWFXHVd7c7G5pzm/HOAmkPjTY5AvIp63hCvqhxrv1978J/fp4aGkI4BigEBCwCgitx99919tm3TxyXVSxouaa/yygxcV20e7YTrKp4C2GrHRwi9F7AQr/xo7vwfU2UCFq6rKC7kg+tqd376wt767Uu9vMgRiFdRzxviVRKxZmTOWnPHKfPoEqC4eAEAgESYN29eV6nuo8boJGs1TNKBuK4quI+Uuq52Pqv/AhbilR/NXTrGVL6Ahesqigv54rranaZCoNv+MUBbC4HTOQLxKup5Q7xKMNZe6mL0lhXzR7xOdwCdUcMUAAAkw6RJk7ZKemTHf7a/N8uo3hqdJKv/kVRbdCGC6yq5si9m1xWFtMvNHeJVZps9XFcJrIz4XFc70yUX/v2QvZte/vur3f7H1RyBeBX1vCFeJRxr/ZqkBklT6Q6gM3BgAQA4yE03Nfbs3r1lqLX2JGNsvZUGxllz4boqc0hVcF3tjL8OLMQrP5q7dI2pNAcWrqsoLuSp62qLMfqFZJa3tBSWXHbZhSsHn97YTb26/UvSYNdyBOJV1POGeOVIvBWCnD129dyRf6YLgI5AwAIAcJyGhobgoIMOf1fBhvVG5iRJ75ZkcF0lWPIl5LryU8BCvPKjuUvfmIoTsHBdRXUhv1xX9llrg0et1fI+fbo8usMRvQtDJi2/wBp7s0s5AvEq6nlDvHIs3n6+9o5TPiyZLFuBoRMQsAAAPOOOO+7Yv1AIPmmtPmmMPiaZ/eItcVxxXe04OmOuq53Z0hzouj/5JGAhXvnR3KWziRvcY1snAhauqygu5InraqOknxhjfmht+MOpU6f8s9MTNjxeM/j5jX+V9FYXcgTiVdTzhnjlYrwZY0evmT/yPqp9aDdGmAIAAL+ZP/+eo621J1lrPy7ZD0mmSzQlDq6rtg9M6F1XdocDyxsBC/HKj+YuvU1c+wIWrquoLuSw6yqU9EfJPGZt+Fgu1/KzSy65pKnUOxly9vJR1tp7k84RiFdRzxvilcPxtrplc8tbX16Y30iFD22BgAUAkCJmzZrVvba25wek8OOS+bhaP25YcnmD62rPg5NxXe18gD8CFuKVH81dupu4tgUsXFdRXMhR19WLkvmpMeFjYZhbNm3a5LUR3JMZctby39vte2kiOQLxKup5Q7xyN97eWHbfXrvglM9T1UNbIGABAKSYuXPvHWJt+Elj7Ces7Ec7/7ghrqu2D0zOdbUzW1qMrvtT/8wU0u4U24hXPjZxuwpYuK6iupBDrqsNxpifWmt/mMsFP7z44sn/iOPOBp/98Amy4fcSmRXEq4jnDfHK3Xjb5U62mVzu7WvmDv+nAHYDAQsAIEPMnXv3IZI+LtmPW+mjkvatVteG66qE+7Bt/3C7A8tlAQvxyo/mLhtN3JsCFq6rKC7kgHC12W7/WODPrQ0fW7eu708bGvLbqhFdg89a9iNt3zOrNzOIVxHPG+KVu/HW5pgeXXvHyE9SucPuIGABAGSUhoaGYNBBRxxZE9rjJdsqavWJus7DdVXiPdj2f+C2gIV45Udzl50mbruA9XJZp8B1VY2V0Kl41SLpz1bmscCGj6nM91hFwZAzH3qPDcxv9uydEK/cym/ZyeUpF6+2CxVWp6xZMHIpFTvsEhdMAQAASFJjY2Nu3brmdxoTfjAIzPHW2k9K2rt65VXGXVdtHrTrD9wVsBCv/GjustXEFS1gOei6iicCnXdd7SJYtditv5g+ffoWVyJt8FnLlkgaEfvsIF5FPG+IV+7GW2djMs+bLjVHrpldv5kqHVqpYQoAAECS8vl8QdITO/4zY9asWbW5XI/3GqMPSfaDko6X1Dv60irdrquizmp9LrgRr/xo7mjiOvtzXFfVWAW7iFebjfRba/Uzkwt/3tTU6xeXXz5hk6vRFir8fKCgfnv/hHjlVn7LTi7PjnglSfaAcGvL5ZKupEqHVnBgAQBA0cyde/ch1oatYtYnJB1cWWmF66oU8co9BxbilR/NXTabuME9mtr4FsK2/xzXVTVWgF0v6bcK9Qsj+/MkPxJYLoMnLZsjY8/yN7+lL+8hXvkYbyWNaUsY1hz94p0nP0sVDhIOLAAAKIGzzhr7jKRnJC2QpDlz7h1kbfPxxgQftMYeL6t3SQqKKlhwXXlebCNe+dHc0cR19Ke4rmK9j7XG6OfW6hdS+PPXXnvpjw0NDaHXoVfQl1Wj0ZK6+Zff0pf3EK98jLeSx9QtCFq+K2kkVThIOLAAACBCbr+9cR9p6/FS8EEZ+/8kHSupxx4FC66rsu7eHQcW4pUfzV22m7g9HFhZdl11cqEI7qFZ0h8l/cZa/SIM7c+nT79gdRr3uf3PWvpdIzM9HWIC4lXa8p7b8Vb+mKw1w15YMOJ7VNqAgAUAALHR2NiYe/31zW/N5XLHSvZ4a/VBSW9VUS6tGMogz11XbghYiFd+NHc0cW8IWLiu4oj+tZKekOwTxuR+3tKy0akXrsfJ/hOW7Gtqav8j2b0rX6fZyeXV2RfIe+7GW8Vj+nePvboe8/QNw5oEmQYBCwAAqsqcOXN6SbXvsNYcb4z9oLV6n6T9Yi+BPHVd7UzyAhbilR/NHU2ctEPAOuyVGJ92ZlxXm6zVnyT7hGSesNb+dNq0C1ZkeR8bctbSL1mZr/orJiBepTXvuRlv0YzJyHxuzR0jrqaSzjYIWAAAkHSzbebOvesISe+T7Huttcdaa95hTMfvGMniu64QsGjiilhPNHE72F3Aqqp4ZasZcZG+qL1F0pOSecKY8LeS+fWAAfv8bce31MIO+o//QY/a2qanJQ3wT0xAvEpz3nMv3iId08acbXnrqgX5VH48GYqDl7gDAECiGGOspH/u+M8CaY+PHh5rrTlWsu+S1L2kEigFrqs0FtNuFNyIV1mJO1xX7f6qRdK/JPNEq7uqa1f9YfLkyZvZmTrmxTs/tWnw2Uu/IWtu8EtMQLzK2n6bIvFKknoWVHu1pLFkoQz3DUwBAAD4QKuoZXaIWtouar1Te7wkXqn9hsHkHFiIV+43dzRxuzO4R5NG7/YRwljvx23XVYvdTawqFDY9kZX3VsXBsefNqn2xMOgpWXuoH2IC4lUW8p478Rbfc7LGDH1h/oifkIWyCQIWAAB4S2NjY279+q1HWmPeLdm3K9Q7JL1dsv0SK8FidF0lI2Dx3iv3mzuauLaITsDyznW1TtJfJP3FyvwlCOwf/vvfff7S0JDfxq4RLYMnLR0nY+50X0xAvMpK3nMj3mJ/Tk+ufa7PO/WToS1koezBRwgBAMBbdryX5W87/vMGN998d59crnC0MfZYY8xRkj1a0rGSusZWglXh44LVr0cRryDrzbbzrqu1dse3AQY2eNKE5u+vrF/zVENDQ0gcxc+qA/94z+Dn3z1d0rvcFRMQr7KW91IuXknS0YMOevWCNdINgsyBAwsAADLBrFmzamtquh9lrX27tfaY7R8/NMeok5fwuvKuK6vtDqzrq+bAQrzyo8FL25iiG0/lDixXxCsrSa9J9i9S8Fcp/EsY5v7UrZt9kvdVJc/+Zy890Viz3E0xAfEqa3kvA+JVK+tbTMtbXp6ff4EslC0QsAAAINPMmzevd0uLOVTS0caYo6zV0ZI5SrIH2872ySq7rqonYCFe+dHgIV51RPkCVqLC1WuSnpH0d8k+KenvhUL45NSpFzy74wsvwEEGT3rocRl9xC0xAfEqa3kvQ+JV63XmrL3j1HPIQNkCAQsAAKANZt51117dtrQcHprgEFl7dCAdZa09Wsa8VVKQxEcGqyNgIV750eDRyHUqKpQlYFVNvHpNMn83xj4pmb9bqycLhZZnpk2b8gzZ1z8GT3rwfTLBr3burRCvot4TyHnJ76XOxV4YhsEHXrzzlN+QhbIDAhYAAEAJLFiwoMfmzToyCMK3SDpC0uHG6HBrdbikveMs/+IXsBCv/GjwaOSKEhVKErBiEa62SPq3tfq3pH8bY/5trf5RW9vy1JQpU14jm6aLIZMeesga1ScvJiBeZS3nZVS8auWJtQf/5b3ivX+ZgZe4AwAAlMCECRM2Sfr9jv/sws03392ntrb5kDC0h0g6OgiCo6y1h0h6i6SeFZV/Nu7aEPHKjwaPRq7q1+9YvGo2Riut1TPG6Jmd3VTr1r20gpepZ4gg+F/ZcJi1ymV3LcWxJ5Dzkt9LnY69Ywc9c8xZa6TbSULZAAcWAABA7IW5NfPmzRtcKOjwMMwdbkx4sGQOlnSQpIMl7WeLqAu3tAS6/s9xOLAQrzyJIxq5EujcgVW0cLVORs/KaoWsng1ln9UOR9Wrr659rqGhga9yB0nS/pOW3iGZCRkTEGLcE8h5ye+lXsTefwOrt6xeMPK/ZKH0gwMLAAAgZna8fHnljv/8ePffz5w5s0tNz57717TkDrHGHmKsPcSa4BBtd3IdKql3WgpPxKty541GLsZrN0lare0vT3/GGPuMteaZ0AbPBEGw9uKLz15DFoNiCIOaLwdh4QxJXTImIMSwJ5Dzkt9LvYm9fQvGNki6mCyUgZqaKQAAAHCb22+/fR9raw5evb72mPn/7DvP18IT8arceaORK4f9ezRpzGGvhJJekLRSsqslu9JaszIIzOowNCtyuW0rLrzwQr6GHaKLu0nLrpfspRkTECLeE8h5ye+l3sVeIcjp2NVzR/6ZLJRucGABAAA4zjnnnPOqpFePOO/x56RtXhaeiFflzhuNXLnx9sLm2t/V1dnjJ0+e3EwWgapFd62+HjRrkpX2IueVsyeQ85LfS72MvVxY0E2S/ZBk0hhEsIOAKQAAAMhci+VIo0Ij1/G80chVEm8toWlCvIJqs2Z2/Ssy9jpyXjl7Ajkv+b3U69g7fuDEB8aQhdINAhYAAECmQLzyo8GjkfO7wYMs09S16TuSXmQmSlmj5Dw/cpvzz+k7fc5r3JuVll4QsAAAALLTOjjSqGSqmC5j3mjk/G7wIOu8fHN+o4y+Td4rdo2S8/zIbV48pwHdttZ8gSyUXhCwAAAAMgHilR8NHo2c3w0ewHZ6b9h6s7Z/syV5T4hX/uc2j56T0dRBZy56K1konSBgAQAApB7EKz8aPBo5vxs8gDd5cmF+m2S/St7L2hpFvEqa0KrWhrkbyELpBAELAACAYtqzghvxitgrJt6MYf1Dkqw+8I93SvpzlvNex2sU9TnZvTR9cdc6b1b24wPHLxlJJKUPBCwAAID0lsApLLgRr4g91xo8gHZoaAit9JWs5r3siVe2CvOW3hoi6nmzRtf3H/+DHiSidIGABQAAkEoQr/wouGni/G7wADpmzbyTl8roF1nLe4hXvuc2m4Z4G2KCTZ8lC6ULBCwAAAAKaQ8KbsQrYs+1Bg+g2FVhrshS3kO8Irc5E29Wn9vvzEWHM0vpAQELAACAQtrxghvxitijwQN/WTO3/ueSHslC3kO8SkNusymJN0lSl5owuIYslB4QsAAAACikHS64Ea+IPRcbPIDSMDa8QlKY5ryHeJWG3JYq8WrHiOzwAeMXDSMLpQMELAAAAAppRwtuxCtiz8UGD6B0Vs0/5a/W2nvTmvcQr9KQ29InXr0xJmNmHHbxI13IRP6DgAUAAEAh7WDBjXhF7LnY4AGUT6jwi5K2pS3vIV6lIbelWLzazmEb1m+ZThbyHwQsAAAACmnHCm7EK2LPxQYPoDJemD9ihbH2tjTlPcSrNOS21ItXkiRj9cWBYxYfSCbyGwQsAACAjBfSbhXciFfEnosNHkA0NBcKX5W0Ie15jzH5ktuyIV7toLut1bfJQn6DgAUAAEBz4EjBjXhF7LnY4AFEx4t3jnxJsjPSkPfaX6fkPT9yW6bEq9ZfjxowYfFQMpG/IGABAABktJB2q+BGvCL2XGzwAKKnyehqSS8hXmUr7yFexT1vRR5ozI06b1YtmchPELAAAAAyWEi7VXAjXhF7LjZ4APHwytzhG2Ts1f7mt+zkcsQrV2OtgjFZe9TALX0vJBP5CQIWAACAN2x0tHDMRiFd/LzRxPnf4AHES224102Snvcvv2UnlyNeuRprlY/JGnNl33GLB5KJ/AMBCwAAABIquBGvstTE+dPgAcTPivlDt1pjvpqOfYG850duQ7za6e/2qgn0DTKRfyBgAQAAQAIFN+JVlpo4fxo8gOqxZsPW+Ub6u9/7AnmPMSW1J1Q8pjP7TVjyfjKRXyBgAQAAQBmFI83BrvNGw+NuvAE4ysJ8QVZf8ndfIO/5kd8Qr9rBBMbeqNMbcyQjf0DAAgAAgCoW24hXWWvi3G/uAJJj1fzhSyT7K//2BfKeH/kN8aqTU717YLfcOWQif0DAAgAAAMSrsueNJs7v5g7AgYYsMFf4tS+Q9/zIb4hXRZ7xm4NGL+tLJvIkXzIFAAAA2Qbxqtx5o4nzu7kDcIOVc4b/1Fj7Qz/2BfKeH/kN8aoE9glrt11JJvIDBCwAAIAMg3hV7rzRxPnd3AE4tvqC3GclhW7vC+Q9P/Ib4lUZnD/gzMXvIRO5DwIWAABAVhsmxKsy540mzo/mDrUM/GH13Po/S2ahu/sCec+t/MZzipjAhLpesoZs5DYIWAAAABkE8arceaM58KO5Q7wC/zDWfElSs3v7AnnPrfyWjudU3LzZas7eBwZMfGA8mchtELAAAAAyBuJVufNGE+dHc4d4BX6yan79v2U1x619gbznVn5Lx3NyTbza6ZpX9zmvcW+ykbsgYAEAAGQIxKty540mzo/mzu58bT4KAt5RU9fyVUmb3dgXyHtu5bd0PCd3xStJVv27NOW+RCZyFwQsAACAjIB4Ve680cT50dzhvAL/eW72qWutNTOT3xfIe27lt3Q8J6fFqzcvf2n/Mx88hmzkJghYAAAAGQDxqtx5o4nzo7lDvIL0UKfCVZJ5Nbl1St5zK7+l4zl5IV5tp8aEhevJRG6CgAUAAJByEK/KnTeaOD+aO8QrSBcr5o943Vhdncw6Je+5ld/S8Zw8Eq9a+eiA8UtOJxu5BwIWAABAikG8KnfeaOL8aO4QryCd1KjXDEmrqrtOyXtu5bd0PCcPxavtGHtt//ELepCN3AIBCwAAIKUgXpU7bzRxfjR3iFeQXlbMH7rVGPO16q1T8p5b+S0dz8lb8Wo7gxX0/DzZyC0QsAAAACAThXRxxTZNnB/NHeIVpJ9VG7bOkcxT8a9T8p5b+S0dz8lz8UqSZKy9fP8JS44gG7kDAhYAAEAaS/fYa0LEq6w1ce40d4hXkBEW5gsyaoh3nZL33Mpv6XhOaRCvdlBXkJ0pcAYELAAAgLSV7ohXZcwZTZwfzR3iFWSL1XPrF0r6TTzrlLznVn5Lx3NKkXjVyqf6T1hyEtnIDRCwAAAA0lS609+XMWc0cX7EGsENWcRYa/Wl6Ncpec+PvRTxyolVKHv9QWfO60o+Sh4ELAAAgLSU7ry0vYw5o4nzo7lDvILssmb+8Edl7I+iW6fkPbfyWzqeU1rFqx0c2lTodRnZKHkQsAAAANJQuiNeQZWeEeIVQBJNm7milMWAeOVLfkvHc0q5eLX97o35woAzHziIbJR0LgQAAAC/iyrEqzLnLW1jQrwCSCsr5w7/vaxdUtk6RbxyK7+l4zllQbzaQTfZ8GqyUbIgYAEAAPhcuiNelTlvCCPuN3c8I4BdCMP/ldRS3jpFvHIrv6XjOWVIvGodyukDxy/6FMkoORCwAAAAfK2jEK/KnDcaOfebO8QrgN1ZvWDkv6zM/NLXKTnPrfyWjueUOfGqdURG1+m8WbVkpGRAwAIAAPCxgEK8KnPeaOTcb+4QrwDaI2fsVyRtLn6dkvPcym/peE5ZFa92jOnIgVv3vZhslAwIWAAAAL6VT4hXZc4bjZy/zR0ASNLKucPXGKubilun5Dw/8hvilW+xZ6WGvmctHURGqj4IWAAAAKkrHLNVTBc3bzRyjAkgJQ3ctty3ZPRax3sC+SH5vTR9OQ/x6g161TS3fItslED+YwoAAAD8YCPFdJkFN42cHw0e4hVAMTx/z0mvKTTfQbzyJbel4zkhXu2GseMHTlz8YTJSdUHAAgAAgNQWnohXvjR4iFcApWA2bb1O0upsrCXEq+T30qzm8Q7HZKy11+v0xhwZqXogYAEAAIAQr3hOyTV4iFcApbJqYX6LZL6Z/rWEeJX8XprVPF7UmN41oHtwHhmpeiBgAQAAZB7EK55TUg0e4hVAuQysW3ubrJ5O71pCvEp+L81qHi9hTNZ8Y9Doe/qSkaoDAhYAAECmQbziOSXV4CFeAVTCE7MnNyswX0a8ci23pSPnIV4VfXyfQm2Xr5ORqgMCFgAAQGZBvOI5JdXgIV4BRMGaefX3SfYP5DxXcls6ch7iVWkY2XMHTGh8LxkpfhCwAAAAMgniFc8pqQavOhcMjAzrHNKPsWGoL5LzXMht6dhvEa/K23KsDW5SQwP6Stx7O1MAAACQNRCveE5JNXg4rwCi5oUFI74n2R8zE0nmtnTkPMSriubtuAH/OWYCqy9eELAAAACyVdansFGhmPajwUO8AoitqQv1ef8XWTS3j3gV57yx33Y0b1b2qt5nPtCbjBRjrmMKAAAAsgLiFc8pqQYP8QogTlYtGPFbSUuznvcQr+KcN/bbIuatX5dCy1fISPGBgAUAAJAJEK94Tkk1eIhXANXp7MwVsmrJat6zpJoY5439tvh5Mxf1m7Do7URWTGmOKQAAAEh9eZrCgpti2o8Gj44SoFqsmTv8n5LuzGLec2tL8CfvZVf0s3HOW01gzU2S5YtEYgABCwAAgCLNrxEhXnnSqCBeAVS9ubO5L0nakqW8h3gV97ylLZfb2OfNyn6w/4QleTJSDDmOKQAAAEgriFc8p6QaPMQrgCRYtaB+tbW6NSt5D/Eq7nlDvCo33qy139nv9MaeZKVoQcACAABIJYhXPKekGjzEK4AkMV1y35S0Pu15D/Eq7nkjl1cSb0YaHHQ1/8vMRQsCFgAAQPrKrBQWjohXfjR4NDwASbNmdv0rsvpumvMe4lXc88aeG028mcsGjWt8C1kpOhCwAAAAKNAcL7gppP1o8BCvAFyhuce2ayW9mMa8h3gV97yx50YYb3UFY24gI0UHAhYAAAAFmsMFN4W0Hw0e4hWAS7x8c36jZL+RtryHeBX3vLHnRh9v5hP9xy0+mawUDQhYAAAAGS/Q3C24KaT9aPAQrwBcZGDdS7dK+k9a8h7iVdzzxp4bW7wZe8Og85Z1JytVDgIWAABAhgs0dwtuCmk/GjzEKwBXeWL25GYre2Ua8h7iVdzzxp4bc7wd0LKl6TNkpcpBwAIAAMhogeZuwU0h7UeDh3gF4DprD/rz3ZL+5HPeQ7yKe97Yc6sRb0a6ov/4xoPJSpWBgAUAAJDBAs3dgptC2o8GD/EKwAsaGkJjwi/5mvcQr+KeN/bcKsZbN6PgOySlykDAAgAAyFiB5m7BTSHtR4OHeAXgE6vnjVxupZ/4liMQr+KeN/bcaseblUbuN27JCWSl8kHAAgAAyFCB5m7BTSHtR4OHeAXgIyaolguLXJ7sXspzcn0vDYJw5mEXP9KFrFTm/DEFAAAAFNLJFtwU0q4X3OlteACywZq5I38ua5b7kiPc2RYQr9K+51Y91qwO37hu8yVkpfJAwAIAAIAEC24KaT+aO8QrAN8p1BQ+Lyl0PUcgXsU5Z+y5LsSatfrSvhMa9ycrlQ4CFgAAACRUwFFI+1FwI14BpIEX54z8m5HudjlHIF7FOWfsuQ7FWq8am7uKrFQ6CFgAAACQQMFNIe1HwY14BZAmCrJfltTkYo5AvIpzzthz3Ys1O3bAuIUfISuVBgIWAAAAVLngppD2o+BGvAJIGy/MH7FCRrNcyxGIV3HOGXuum7EmWWNu1EceryEzFQ8CFgAAAFSx4KaQ9qPgRrwCSCuhtn1d0gZXcgTiFWOq1pgcLEGOHjD4v+eTlYoHAQsAAACqU3IiXnlScKfjOYWhNaw6gD15YV7+ZRld50KOQLyKc97Yc92Mtd3uy9ivDpjUuB+ZqTgQsAAAAKAKxTaFtB8Ft01JvLHmADqiudu2ayS9lGSOQLyKc97Yc/3YE6wk9bEF802yUnEgYAEAAEDMxTaFtB8FN+IVQFZ4+eb8RmP07aRyBOJVnPPGnuvHnmB3/p9n9R+/6H1kps5BwAIAAIAYi20KaT8KbsQrgKzRe+O2myQ9W+0cgXgV57yx5/qxJ+xxY4Fkb1JDA/pMJzBBAAAAEFOxTSHtR8GdRvEKJQugM55cmN9mZL9azRyBeBXnvLHnuhlrRY/p2P7/OWoSmaljELAAAAAghmKbQtqPghvxCiDLrN7UfKekJ6uRIxCv4pw39tx0jMlctf+EJfuSmdoHAQsAAAAiLrYppP1o7hCvADLPwnxBsl+MO0cgXsU5b+y57sZbyWPat8UWvkJiah8ELAAAAIiw2KaQ9qPYRrwCgO2smT/iQUm/jCtHIF7FOW/sue7GW9ljmtJv3JJ3kJnaBgELAAAAIiq2KaT9KLYRrwBgj6xwRRzrCfEqznljz3U33ioaU86o5SbJGjLTniBgAQAAQATFNoW0H8U24hUA7Mna+af8zBjzPcQr1/JbunN5lGNKiXi1HWOO7z9h4Wgy054gYAEAAECFRSOFtB/FNuIVAHTQMxd0haTQz/yWjryHeOV7vEX4nKz57j5j79qLzLQrCFgAAABQQdFIIe1HsY14BQAds2rB8L/I6n7/8ls68h7ile/xFvlzGlATdPkCmWlXELAAAACgzKKRQtqPYhvxCgCKoxDmviBpmz/5LR15D/HK93iL5zkZaeqgMxe9lcz0JghYAAAAAFVqDhCvopg3xCuAuHjxzpOflXS7H/ktHXkP8cqX/TSR51RXKIQ3kJneBAELAAAAyigc01ZMI1750dwhXgHETaFgr5S0we38lo68h3jly36a5HMyH+83oXEEmWk7CFgAAABQYuGIiOB+sY14BQDl8eKdI1+yxsx0N7+lI+8hXvmynyb/nIw11/cfv6AH2QkBCwAAAEoqHCmm3S+2Ea8AoDK61W67RtJ/3ctv6ch7iFe+7KfOPKcDjOl2OZkJAQsAAACKLhwpptNRbPvW3DGJANXmmdn5dTLm237kN8SrLOy3GRavWsf/uf5jFh+S9dyEgAUAAABFFE4U034U2zYFsZb2Jg7AD+rsazdKWulOfvM/5yFe+bSfOvecuioXXpv1vISABQAAAJ0UjhTTjMml5g4AqsGK+ZO2ypivurtOEa+ysDchXu3C8AHjFw3Lcl5CwAIAAIAOCkeKaT8K7jSKV6hZAEmzZuO2eTJ6Krnclo6ch3jly17q/nOysjMOu/iRLlnNSQhYAAAA0E7hSDHtR8GNeAUAMbEwX7ChvpRMbktHzkO88mUv9eY5HbZh3cZpWU1JCFgAAADQRuFIMe1HwY14BQDxsvaOEYtlza+zkservyew3ya/l3r2nKz50sAxiw/MYj5CwAIAAIDdCkeKaT8KbsQrAKgOYRhekYU8Xv09gf02+b3Uy+fUPcyF385iLkLAAgAAgJ0KR4ppPwpuxKtOMTKsaIBoeOHOkf8n6dE05/Hq7wnst8nvpV4/p1EDJiwemrVchIAFAAAAOwpHimk/Cm6eEwAk0Djm7OWSQvJDFHsCeTz5vdT/52RteIPOm1WbqTxEKgYAAADEK18KbpuSeEt7IweQPlbPHflnIy0i51W6J7DfJr+XpuM5Wauj+2/uMyVLeQgBCwAAIOMgXvlScCNeAUDCzaMpfNFIzeS8cvcE9tvk99J0PKfWebMyX+07bvHAzOQg0jAAAEB2QbzypeBGvAKA5Fk1/7R/W2PnkvPK2RPYb5PfS9PxnHabt71yCr+RlRyEgAUAAJBREK98KbgRrwDAHZpb7JWSNjMTpewJ7LfJ76XpeE5tzZuVzuw/dvH/y8J6Q8ACAADIZMFNMe1HwY14BQBu8cpdp661xt5A3kO88mcvTcdz6mDejDWFm3R6Yy7t+QcBCwAAIGMgXvlScCNeAYCbdJX5tqRXs5z3bGbTGeKVm/Fm3t2/q85Oe/QhYAEAAGSp7ES88qTgRrwCAHdZMX/E68bYa7Ka94rfE9KW9xCvXI43K/OtQaPv6Zvm3IOABQAAkBEQr3wpuBGvAMCDRnJTywxJq7KW97IrXvm2l6bjGZU0b1b7tORyV6Y677CUAAAAslA4Il75UXAjXgGAH6xamN8ia76epbyXbfHKVmHe2G8rmzcryZzfd/yi49KadxCwAAAAUg7ilS8FN+IVAPjF2i3bbpfMP7KQ9xCvfNlL0/GMyhOvJElBYMMZkjVpzDkIWAAAACkG8cqXghvxCgA8ZGG+YKwa0p73EK982UvTUrtV/Iw+0G/8wnFpnBsELAAAgNQWQBTSfhTciFcA4C9rFgxvlPREWvMe4pUve2k6nlNk82Z1TZ/TG/dOW0QiYAEAAKSx5ES88qTgRrwCAN8x1kj/m8a8h3jly16ajudU3ry1+0f9a7vaL6UtKhGwAAAA0lZyIl55UnAjXgFAOlhzx4gfWulHacp7iFe+7KXpeE4Ri1c7fm0u7T+28Zg0RSYCFgAAQJpKTsQrTwpuxCsASBkm/HzHiQDxKu17LuJVNeetqD+qsUbXpSk6EbAAAADSUnIiXnlScCNeAUD6eGH+qb+T1QO+5z3EK1/20nQ8pxjFq1Y+tt/YxtPSEqEIWAAAAGkoORGvPCm4Ea8AIL0Esp+X1OJr3kO88mUvTcdzqoJ41bowr+0/fkGPdOQYAAAA8LvkRLzypOBGvAKAdLN6wch/SbrDxxyBeOXLXpqO51Q18UqSsRoShl2uSEOkImABAAD4XHIiXnlScCNeAUA2yNmar0jajHiV/j0X8aqa81bZmIwxn+074b4jfI9WBCwAAABfS07EK08KbsQrAMgOqxbUrzayN/uZ29Kfy6MaE+JVNectkjHVmTD4ju8Ri4AFAADgY8mJeOVJwY14BQDZo6a57puSXvMrt6U/l0c1JsSras5bdGMyUn3fcY0n+hy1CFgAAAC+lZyIV54U3IhXAJBNnr/npNckc60/uS39uTyqMSFeVXPeoh9TIM046Mx5XX2N3BrSKwAAgB90VdfmFrvtsYwO38qY18v+47DatxumZdZlfG3irJ4mawAkRxh2vy4INn1CknPfflaieLXOpCapV5bLQ2e3Abcfj7WmxUgbqvWcOmPrtu7vl/Q4WQoAAAAAAAAAAAAAAAAAAAAAAAAAAAAAAAAAAAAc4f8DcbcBBP/I9SMAAAAldEVYdGRhdGU6Y3JlYXRlADIwMjItMDQtMDVUMDY6NDc6MjQrMDA6MDD1d+vOAAAAJXRFWHRkYXRlOm1vZGlmeQAyMDIyLTA0LTA1VDA2OjQ3OjI0KzAwOjAwhCpTcgAAAABJRU5ErkJggg==;" vertex="1" parent="1">
          <mxGeometry x="438" y="280" width="90" height="69.75" as="geometry" />
        </mxCell>
        <mxCell id="cTB7-Oe_V62q6MQqIVd6-30" value="" style="swimlane;startSize=0;" vertex="1" collapsed="1" parent="1">
          <mxGeometry x="250" y="5" width="50" height="40" as="geometry">
            <mxRectangle x="250" y="5" width="330" height="375" as="alternateBounds" />
          </mxGeometry>
        </mxCell>
      </root>
    </mxGraphModel>
  </diagram>
</mxfile>
